<svg width="24" height="24" viewBox="0 0 24 24" fill="none" xmlns="http://www.w3.org/2000/svg">
<g clip-path="url(#clip0_282_2)">
<path d="M5.42933 3.74484C8.08917 5.72285 10.9501 9.73341 12.0005 11.8857C13.051 9.73357 15.9118 5.72281 18.5717 3.74484C20.4909 2.3176 23.6005 1.21327 23.6005 4.72729C23.6005 5.42908 23.1943 10.6227 22.9561 11.4659C22.128 14.3974 19.1103 15.145 16.4261 14.6925C21.1181 15.4835 22.3117 18.1037 19.734 20.7239C14.8384 25.7001 12.6976 19.4753 12.1488 17.8803C12.0482 17.5879 12.0011 17.4511 12.0005 17.5674C11.9998 17.4511 11.9527 17.5879 11.8521 17.8803C11.3036 19.4753 9.16283 25.7002 4.26695 20.7239C1.68919 18.1037 2.88275 15.4834 7.57483 14.6925C4.89051 15.145 1.87283 14.3973 1.04483 11.4659C0.806583 10.6227 0.400391 5.429 0.400391 4.72729C0.400391 1.21327 3.51007 2.3176 5.42919 3.74484H5.42933Z" fill="white"/>
</g>
<defs>
<clipPath id="clip0_282_2">
<rect width="24" height="21" fill="white" transform="translate(0 2)"/>
</clipPath>
</defs>
</svg>
