<?xml version="1.0" encoding="UTF-8"?>
<svg id="Layer_1" xmlns="http://www.w3.org/2000/svg" version="1.1" viewBox="0 0 644.22 252.95">
  <!-- Generator: Adobe Illustrator 29.8.3, SVG Export Plug-In . SVG Version: 2.1.1 Build 3)  -->
  <defs>
    <style>
      .st0 {
        fill: #fceeb2;
      }
    </style>
  </defs>
  <path class="st0" d="M38.04,169.99C4.75,132.25-18.39,80.87,19.79,44.87c11.84-11.16,27.29-17.72,42.89-22.34C114.11,7.31,165.72,3.99,219.09,1.76c92.1-3.84,192.07-2.61,282.29,16.13,37.58,7.8,76.52,22.28,106.03,47.46,44.28,37.79,53.37,100.5.74,134.79-92.23,60.1-206.62,48.05-311.27,50.57-8.46.2-18.4,1.84-26.87,2.07-62.85,1.73-129.8-9.56-184.4-42.11-14.66-8.74-32.2-23.26-47.57-40.68Z"/>
</svg>