<?xml version="1.0" encoding="UTF-8"?>
<svg id="Layer_1" xmlns="http://www.w3.org/2000/svg" version="1.1" viewBox="0 0 616.83 271.24">
  <!-- Generator: Adobe Illustrator 29.8.3, SVG Export Plug-In . SVG Version: 2.1.1 Build 3)  -->
  <defs>
    <style>
      .st0 {
        fill: #cbe8f2;
      }
    </style>
  </defs>
  <g id="OKLvo0.tif">
    <path class="st0" d="M.32,108.67c.79-9.19,2.98-18.56,6.19-28.03,5.47-16.15,11.37-32.97,23.73-44.71,11.07-10.5,26.15-15.72,41.14-18.61C122.61,7.45,174.99,4.28,227.07,3.79c52.16-.49,104.81-4.85,156.86-3.55,58.74,1.47,124.89,5.77,176.9,36.05,42.98,25.02,66.23,77.27,51.65,125.55-3.35,11.1-8.13,21.76-14.35,31.54-47.79,75.12-165.81,79.47-245.72,77.52-94.79-2.31-188.86-27.7-274.12-66.76-22.64-10.37-45.37-22.44-61.31-41.58C3.08,145.88-1.3,127.66.32,108.67Z"/>
  </g>
</svg>