<svg width="24" height="24" viewBox="0 0 24 24" fill="none" xmlns="http://www.w3.org/2000/svg">
<path d="M12 0C5.37 0 0 5.27633 0 11.7907C0 17.008 3.43543 21.4152 8.20457 22.9775C8.80457 23.0802 9.03 22.7265 9.03 22.4166C9.03 22.137 9.01457 21.2089 9.01457 20.221C6 20.7659 5.22 19.4984 4.98 18.8356C4.84457 18.4962 4.26 17.4502 3.75 17.1697C3.33 16.9491 2.73 16.4034 3.73457 16.389C4.68 16.3739 5.35457 17.2439 5.58 17.5976C6.66 19.3813 8.38457 18.8794 9.07457 18.5703C9.18 17.8039 9.49457 17.2885 9.84 16.9929C7.17 16.6981 4.38 15.6816 4.38 11.1717C4.38 9.88985 4.84457 8.82785 5.61 8.0025C5.49 7.70773 5.07 6.50003 5.73 4.87797C5.73 4.87797 6.73457 4.56889 9.03 6.08736C9.99 5.82207 11.01 5.689 12.03 5.689C13.05 5.689 14.07 5.82207 15.03 6.08651C17.3246 4.55373 18.33 4.87881 18.33 4.87881C18.99 6.50003 18.57 7.70857 18.45 8.00334C19.2146 8.82869 19.68 9.87469 19.68 11.1717C19.68 15.6959 16.8746 16.699 14.2046 16.9929C14.64 17.3618 15.0146 18.0692 15.0146 19.1742C15.0146 20.7516 15 22.0191 15 22.4166C15 22.7265 15.2254 23.0954 15.8254 22.9775C18.208 22.1879 20.2785 20.6836 21.745 18.6767C23.2115 16.6698 24.0002 14.2613 24 11.7907C24 5.27633 18.63 0 12 0Z" fill="white"/>
</svg>
