<svg xmlns="http://www.w3.org/2000/svg" width="24" height="24" viewBox="0 0 24 24" fill="none">
<path d="M4.87905 9.9212L1.90491 12.8953C0.685216 14.115 0 15.7693 0 17.4942C0 19.2191 0.685216 20.8734 1.90491 22.093C3.1246 23.3127 4.77886 23.998 6.50377 23.998C8.22867 23.998 9.88293 23.3127 11.1026 22.093L15.0652 18.1283C15.8007 17.3926 16.3491 16.4913 16.6642 15.5C16.9792 14.5086 17.0519 13.4561 16.8761 12.4309C16.7003 11.4056 16.281 10.4375 15.6536 9.60775C15.0262 8.77803 14.2089 8.11092 13.2704 7.66241L12.0001 8.93271C11.8711 9.06187 11.7589 9.20681 11.6662 9.36409C12.3914 9.57256 13.0496 9.96668 13.5758 10.5075C14.102 11.0483 14.4779 11.717 14.6664 12.4477C14.8549 13.1783 14.8495 13.9454 14.6506 14.6733C14.4518 15.4012 14.0664 16.0645 13.5327 16.5978L9.5722 20.5605C8.75869 21.374 7.65533 21.831 6.50485 21.831C5.35437 21.831 4.25101 21.374 3.4375 20.5605C2.62399 19.7469 2.16696 18.6436 2.16696 17.4931C2.16696 16.3426 2.62399 15.2393 3.4375 14.4258L5.15652 12.7089C4.9133 11.8002 4.81958 10.8601 4.87905 9.9212Z" fill="white"/>
<path d="M8.93469 5.86753C8.19919 6.60314 7.65088 7.50445 7.33579 8.49581C7.0207 9.48718 6.94802 10.5397 7.12385 11.5649C7.29968 12.5902 7.7189 13.5583 8.34631 14.388C8.97371 15.2178 9.791 15.8849 10.7296 16.3334L12.4096 14.6512C11.6746 14.4541 11.0045 14.0669 10.4665 13.5288C9.92853 12.9906 9.54169 12.3203 9.34485 11.5852C9.14802 10.8501 9.14812 10.0762 9.34514 9.34122C9.54217 8.60621 9.92918 7.93601 10.4673 7.39796L14.4277 3.43533C15.2413 2.62182 16.3446 2.16479 17.4951 2.16479C18.6456 2.16479 19.7489 2.62182 20.5624 3.43533C21.376 4.24884 21.833 5.3522 21.833 6.50268C21.833 7.65316 21.376 8.75652 20.5624 9.57003L18.8434 11.2869C19.0862 12.1973 19.1794 13.1403 19.1209 14.0768L22.095 11.1026C23.3147 9.88293 23.9999 8.22867 23.9999 6.50377C23.9999 4.77886 23.3147 3.1246 22.095 1.90491C20.8753 0.685216 19.2211 0 17.4962 0C15.7713 0 14.117 0.685216 12.8973 1.90491L8.93469 5.86753Z" fill="white"/>
</svg>
