<svg xmlns="http://www.w3.org/2000/svg" width="23" height="24" viewBox="0 0 23 24" fill="none">
<path d="M16.0355 18.293C19.0595 17.9329 21.6906 16.0804 22.0206 14.3884C22.5426 11.7213 22.5006 7.8797 22.5006 7.8797C22.5006 2.67457 19.0715 1.14753 19.0715 1.14753C17.3435 0.357009 14.3749 0.0255006 11.2908 0H11.2158C8.13026 0.0255006 5.16319 0.357009 3.43515 1.14753C3.43515 1.14753 0.00756016 2.67307 0.00756016 7.8797L0.00456013 8.87272C-0.00144002 9.83274 -0.00594017 10.8978 0.0210605 12.0093C0.145564 17.1004 0.960084 22.1196 5.6912 23.3646C7.87226 23.9391 9.7458 24.0591 11.2548 23.9766C13.9894 23.8266 15.5254 23.0061 15.5254 23.0061L15.4354 21.0305C15.4354 21.0305 13.4809 21.6455 11.2848 21.5705C9.10979 21.4955 6.81473 21.3365 6.46222 18.6785C6.43031 18.4317 6.41378 18.1832 6.41272 17.9344C6.41272 17.9344 8.54877 18.4535 11.2548 18.5765C12.9094 18.6515 14.4604 18.4805 16.037 18.293H16.0355ZM18.455 14.5879H15.9455V8.46771C15.9455 7.17918 15.3994 6.52516 14.3089 6.52516C13.1029 6.52516 12.4984 7.30068 12.4984 8.83672V12.1863H10.0023V8.83522C10.0023 7.29918 9.39779 6.52366 8.19176 6.52366C7.10124 6.52366 6.55522 7.17768 6.55522 8.46771V14.5864H4.04566V8.28321C4.04566 6.99517 4.37567 5.97215 5.03569 5.21413C5.7197 4.45661 6.61373 4.0681 7.72525 4.0681C9.00928 4.0681 9.98131 4.56011 10.6248 5.54264L11.2503 6.58516L11.8759 5.54264C12.5194 4.56011 13.4914 4.0681 14.7769 4.0681C15.887 4.0681 16.781 4.45661 17.4635 5.21413C18.1255 5.97115 18.456 6.99417 18.455 8.28321V14.5879Z" fill="white"/>
</svg>
