<svg width="340" height="119" viewBox="0 0 340 119" fill="none" xmlns="http://www.w3.org/2000/svg">
<path d="M19.8837 49.5833C19.8837 87.8617 51.3994 119 90.1409 119C128.516 119 159.734 87.8617 159.734 49.5833C159.734 44.1133 164.192 39.6667 169.676 39.6667C175.156 39.6667 179.618 44.1133 179.618 49.5833C179.618 87.8617 210.835 119 249.211 119C287.948 119 319.464 87.8617 319.464 49.5833V39.6667H339.348V19.8333H317.754C313.65 8.29033 302.602 0 289.638 0H209.443C195.708 0 184.115 9.31374 180.667 21.9357C173.609 19.1265 165.739 19.1265 158.68 21.9357C155.232 9.30977 143.64 0 129.908 0H49.7093C36.7451 0 25.6977 8.29033 21.5937 19.8333H0V39.6667H19.8837V49.5833ZM199.501 29.75C199.501 24.2839 203.959 19.8333 209.443 19.8333H289.638C292.668 19.8333 295.377 21.1939 297.202 23.328L299.58 43.4191V49.5833C299.58 76.9216 276.984 99.1667 249.211 99.1667C221.799 99.1667 199.501 76.9216 199.501 49.5833V29.75ZM39.7674 43.4191L42.1455 23.3319C43.076 22.2359 44.2346 21.3552 45.5408 20.751C46.847 20.1468 48.2695 19.8337 49.7093 19.8333H129.908C135.388 19.8333 139.85 24.2839 139.85 29.75V49.5833C139.85 76.9216 117.549 99.1667 90.1409 99.1667C62.3633 99.1667 39.7674 76.9216 39.7674 49.5833V43.4191Z" fill="#E25641"/>
</svg>
