<svg xmlns="http://www.w3.org/2000/svg" fill="none" viewBox="0 0 400 49" height="49" width="400">
<path fill="#0A3655" d="M15.5692 27.4931L24.5006 36.5019C27.8093 39.8396 32.204 41.6657 36.8626 41.6657C41.5211 41.6657 45.9057 39.8091 49.2245 36.5019C51.8938 33.854 53.6496 30.0496 54.0658 27.5336L49.7117 23.151C49.7218 23.4452 49.7523 23.7495 49.7523 24.0437C49.7523 27.5133 48.4024 30.78 45.9767 33.2351C43.551 35.7004 40.3032 37.0395 36.8524 37.0395C33.4016 37.0395 30.1741 35.6801 27.7281 33.2351L12.8187 18.1901V18.2205L8.32249 13.6958L5.08484 16.9625L15.559 27.5133L15.5692 27.4931Z"></path>
<path fill="#0A3655" d="M56.2885 29.7757C55.1213 32.9105 53.7105 35.7613 51.092 38.3889C47.286 42.2237 42.2316 44.3237 36.8626 44.3237C31.4935 44.3237 26.429 42.2135 22.6331 38.3889L3.23765 18.8394L0 22.1061L19.3955 41.6556C24.0743 46.3629 30.2756 48.9498 36.8727 48.9498C43.4698 48.9498 49.6711 46.3629 54.3499 41.6556C56.7452 39.241 58.5924 36.4106 59.8205 33.3265L56.2986 29.7757H56.2885Z"></path>
<path fill="#0A3655" d="M58.8766 21.4466L49.9451 12.4378C46.6364 9.10009 42.2417 7.27399 37.5832 7.27399C32.9246 7.27399 28.5401 9.13053 25.2212 12.4378C22.5519 15.0857 20.7961 18.8901 20.38 21.406L24.734 25.7887C24.7239 25.4945 24.6934 25.1901 24.6934 24.8959C24.6934 21.4263 26.0433 18.1596 28.469 15.7045C30.8947 13.2393 34.1425 11.9001 37.5933 11.9001C41.0441 11.9001 44.2716 13.2596 46.7176 15.7045L61.6271 30.7496V30.7192L66.1232 35.2439L69.3609 31.9772L58.8867 21.4263L58.8766 21.4466Z"></path>
<path fill="#0A3655" d="M18.1471 19.1741C19.3143 16.0393 20.725 13.1886 23.3436 10.561C27.1496 6.72616 32.204 4.62614 37.573 4.62614C42.942 4.62614 48.0066 6.73631 51.8024 10.561L71.1979 30.1105L74.4356 26.8438L55.0401 7.29429C50.3612 2.58699 44.16 0 37.5629 0C30.9658 0 24.7645 2.58699 20.0856 7.29429C17.6904 9.70881 15.8432 12.5393 14.6151 15.6234L18.1369 19.1741H18.1471Z"></path>
<path fill="#0A3655" d="M108.043 37.5564H91.5704L87.7644 48.1884H78.3762L93.8642 4.7879H105.15L121.42 48.1884H111.971L108.033 37.5564H108.043ZM106.074 31.094L101.608 18.8286C100.857 16.5562 100.339 14.6286 100.035 13.0155H98.9896C98.8577 13.9793 98.6648 14.9329 98.4314 15.8967C98.198 16.8605 97.9138 17.8446 97.6093 18.8286L93.4075 31.094H106.084H106.074Z"></path>
<path fill="#0A3655" d="M143.687 48.1884V47.5391C143.687 46.7072 143.759 45.9971 143.921 45.3884C144.063 44.7797 144.317 44.0797 144.672 43.2985L143.627 42.9738C142.916 44.7492 141.647 46.2101 139.78 47.3159C137.913 48.4319 135.649 48.9797 132.99 48.9797C129.834 48.9797 127.286 48.0565 125.317 46.2405C123.338 44.4144 122.374 41.584 122.374 37.7593V15.5721H131.366V36.268C131.366 38.1347 131.884 39.5651 132.909 40.539C133.944 41.513 135.365 42.0101 137.212 42.0101H137.344C139.141 42.0101 140.673 41.4216 141.942 40.2448C143.21 39.0781 143.84 37.5462 143.84 35.6796V15.5822H152.771V48.2087H143.698L143.687 48.1884Z"></path>
<path fill="#0A3655" d="M163.743 46.8898C161.621 45.4999 159.957 43.5216 158.759 40.9549C157.552 38.3882 156.963 35.3955 156.963 31.9563C156.963 28.5171 157.572 25.504 158.759 22.9272C159.967 20.3301 161.621 18.3416 163.743 16.9213C165.864 15.5112 168.269 14.801 170.928 14.801C173.588 14.801 175.82 15.3894 177.586 16.5967C179.352 17.7938 180.591 19.2344 181.301 20.9388L182.286 20.6141C181.707 19.0416 181.433 17.3981 181.433 15.6633V2.85016H190.425V48.2086H181.433V47.6912C181.433 46.3014 181.717 44.8101 182.286 43.2579L181.301 42.9332C180.611 44.6274 179.342 46.0579 177.526 47.2347C175.709 48.4014 173.517 49 170.928 49C168.34 49 165.864 48.2999 163.743 46.9101V46.8898ZM174.217 42.3144C176.703 42.3144 178.612 41.381 179.89 39.5143C181.189 37.6477 181.819 35.1215 181.819 31.9461C181.819 28.7707 181.169 26.2243 179.89 24.3069C178.591 22.3895 176.703 21.4257 174.217 21.4257H173.821C171.334 21.4257 169.447 22.3895 168.178 24.3069C166.909 26.2243 166.28 28.7707 166.28 31.9461C166.28 35.1215 166.909 37.6375 168.178 39.5143C169.447 41.381 171.334 42.3144 173.821 42.3144H174.217Z"></path>
<path fill="#0A3655" d="M197.073 10.0734C196.068 9.11981 195.571 7.96327 195.571 6.61398C195.571 5.26469 196.068 4.10816 197.073 3.15452C198.078 2.20089 199.286 1.71393 200.686 1.71393C202.087 1.71393 203.285 2.19075 204.269 3.15452C205.254 4.1183 205.741 5.26469 205.741 6.61398C205.741 7.96327 205.254 9.11981 204.269 10.0734C203.285 11.0372 202.087 11.514 200.686 11.514C199.286 11.514 198.078 11.0372 197.073 10.0734ZM205.142 15.5619V48.1884H196.15V15.5619H205.142Z"></path>
<path fill="#0A3655" d="M228.11 48.1173C226.537 48.5028 224.872 48.7057 223.127 48.7057C219.544 48.7057 216.865 47.7014 215.078 45.6622C213.312 43.6434 212.429 40.7114 212.429 36.8766V21.9228H207.507V15.5315H212.429V6.08643H221.422V15.5517H227.724V21.9431H221.422V36.6839C221.422 38.2158 221.706 39.3216 222.244 40.0013C222.792 40.7013 223.715 41.0361 225.025 41.0361C226.161 41.0361 227.186 40.9042 228.1 40.6506V48.097L228.11 48.1173Z"></path>
<path fill="#0A3655" d="M254.133 4.7879C258.244 4.7879 261.512 5.75168 263.948 7.69953C266.373 9.64738 267.581 12.1633 267.581 15.3083C267.581 18.0982 266.759 20.3504 265.094 22.0548C263.43 23.7794 261.349 24.7736 258.863 25.0171V25.991C261.836 26.1229 264.354 27.107 266.434 28.923C268.515 30.7491 269.56 33.2549 269.56 36.4303C269.56 39.9202 268.332 42.7304 265.896 44.9115C263.45 47.0927 259.807 48.1782 255.006 48.1782H232.566V4.7879H254.153H254.143H254.133ZM256.498 21.4664C257.635 20.4924 258.203 19.1228 258.203 17.388C258.203 15.6532 257.624 14.2837 256.498 13.3097C255.361 12.3358 253.829 11.8387 251.9 11.8387H241.659V22.9374H251.9C253.829 22.9374 255.351 22.4504 256.498 21.4664ZM258.173 39.5753C259.38 38.5405 259.969 37.0694 259.969 35.2027C259.969 33.3361 259.38 31.865 258.203 30.7998C257.026 29.7346 255.331 29.1969 253.149 29.1969H241.67V41.1376H253.149C255.28 41.1376 256.965 40.6202 258.173 39.5651V39.5753Z"></path>
<path fill="#0A3655" d="M297.319 16.7894C299.886 18.1387 301.886 20.0967 303.327 22.6634C304.768 25.2301 305.489 28.2533 305.489 31.7432C305.489 35.2331 304.768 38.2665 303.327 40.8839C301.886 43.4912 299.876 45.4999 297.319 46.8898C294.751 48.2796 291.868 48.9796 288.621 48.9796C285.373 48.9796 282.419 48.2796 279.852 46.8898C277.284 45.4999 275.295 43.5115 273.884 40.9143C272.453 38.3375 271.742 35.2636 271.742 31.7432C271.742 28.2229 272.453 25.2504 273.884 22.6634C275.295 20.0967 277.304 18.1387 279.852 16.7894C282.419 15.4401 285.332 14.7706 288.621 14.7706C291.909 14.7706 294.751 15.4503 297.319 16.7894ZM294.375 39.4129C295.624 37.4447 296.243 34.9085 296.243 31.8041C296.243 28.6997 295.624 26.1939 294.375 24.2663C293.127 22.3388 291.28 21.3547 288.834 21.3547H288.377C285.931 21.3547 284.074 22.3489 282.836 24.3171C281.587 26.2852 280.968 28.7809 280.968 31.7939C280.968 34.807 281.587 37.3534 282.836 39.3621C284.084 41.3607 285.931 42.3549 288.377 42.3549H288.834C291.28 42.3549 293.137 41.3607 294.375 39.3926V39.4129Z"></path>
<path fill="#0A3655" d="M334.435 17.4184C336.84 19.1837 338.048 22.1055 338.048 26.204V39.2607C338.048 40.0926 338.15 40.6404 338.343 40.9245C338.535 41.2086 339.002 41.3506 339.753 41.3506C340.413 41.3506 340.961 41.2897 341.387 41.1578V48.1478C339.368 48.4623 337.642 48.6043 336.201 48.6043C332.446 48.6043 330.619 47.1028 330.751 44.0999C330.751 43.968 330.791 43.6434 330.883 43.126L330.03 42.8622C328.985 44.8202 327.381 46.3318 325.24 47.397C323.088 48.4623 320.825 49 318.419 49C315.486 49 313.04 48.2898 311.071 46.8492C308.534 45.1144 307.265 42.639 307.265 39.4027C307.265 36.1665 308.534 33.5694 311.071 31.8345C312.776 30.6679 315.415 29.7853 319.018 29.2273L321.829 28.7707C324.367 28.4258 326.224 27.9591 327.412 27.3606C328.589 26.7722 329.178 25.849 329.178 24.591C329.178 23.4243 328.68 22.5011 327.676 21.8518C326.671 21.2025 325.29 20.8779 323.535 20.8779C321.779 20.8779 320.277 21.3547 319.14 22.3185C318.003 23.2823 317.374 24.6011 317.242 26.2954H308.31C308.351 22.6939 309.772 19.8735 312.573 17.8445C315.374 15.8257 319.038 14.801 323.595 14.801C328.416 14.801 332.009 15.6735 334.425 17.4387H334.435V17.4184ZM324.083 33.7621L321.464 34.4114C319.84 34.7665 318.622 35.2839 317.8 35.9839C316.978 36.6839 316.552 37.6781 316.552 38.9767C316.552 40.1941 316.988 41.1376 317.892 41.8071C318.795 42.4868 319.942 42.8115 321.342 42.8115C323.524 42.8115 325.443 42.1013 327.087 40.6607C328.721 39.2201 329.543 37.2216 329.543 34.6549V30.8708C328.457 32.2606 326.64 33.2143 324.093 33.752L324.083 33.7621Z"></path>
<path fill="#0A3655" d="M362.011 24.2968C359.565 24.2968 357.535 24.9156 355.942 26.1939C354.348 27.4519 353.536 29.3693 353.536 31.936V48.1884H344.544V15.5619H353.343V16.7286C353.343 17.6011 353.282 18.4025 353.15 19.1431C353.019 19.8837 352.785 20.7765 352.43 21.8113L353.414 22.075C354.328 19.5083 355.627 17.7431 357.291 16.7996C358.956 15.846 361.168 15.359 363.919 15.359L365.553 15.4199V24.6924C364.325 24.4287 363.148 24.3069 362.001 24.3069L362.011 24.2968Z"></path>
<path fill="#0A3655" d="M373.307 46.8898C371.186 45.4999 369.521 43.5216 368.324 40.9549C367.116 38.3882 366.527 35.3955 366.527 31.9563C366.527 28.5171 367.136 25.504 368.324 22.9272C369.532 20.3301 371.186 18.3416 373.307 16.9213C375.428 15.5112 377.834 14.801 380.503 14.801C383.172 14.801 385.395 15.3894 387.161 16.5967C388.927 17.7938 390.165 19.2344 390.876 20.9388L391.86 20.6141C391.282 19.0416 391.008 17.3981 391.008 15.6633V2.85016H400V48.2086H391.008V47.6912C391.008 46.3014 391.292 44.8101 391.86 43.2579L390.876 42.9332C390.186 44.6274 388.917 46.0579 387.1 47.2347C385.283 48.4014 383.091 49 380.503 49C377.915 49 375.438 48.2999 373.307 46.9101V46.8898ZM383.771 42.3144C386.258 42.3144 388.166 41.381 389.445 39.5143C390.744 37.6477 391.373 35.1215 391.373 31.9461C391.373 28.7707 390.723 26.2243 389.445 24.3069C388.146 22.3895 386.258 21.4257 383.771 21.4257H383.375C380.889 21.4257 379.001 22.3895 377.732 24.3069C376.464 26.2243 375.834 28.7707 375.834 31.9461C375.834 35.1215 376.464 37.6375 377.732 39.5143C379.001 41.381 380.889 42.3144 383.375 42.3144H383.771Z"></path>
</svg>
