<svg width="120" height="70" viewBox="0 0 120 70" fill="none" xmlns="http://www.w3.org/2000/svg">
<path d="M86.2707 26.37C84.3782 26.9591 83.3763 28.2333 83.1676 30.3433C83.0146 32.0148 83.6407 33.3301 85.1297 34.4263C85.561 34.7414 86.6464 35.4127 87.551 35.9059C88.4833 36.4266 89.4434 37.0843 89.7913 37.4405C90.334 37.9886 90.4174 38.153 90.4731 38.7969C90.5427 39.6875 90.2783 40.2903 89.6243 40.6739C89.0955 41.0028 88.1493 41.0302 87.5926 40.7562C86.9804 40.4411 86.3403 39.619 86.1455 38.9339C86.062 38.5914 85.9229 38.2899 85.8394 38.2626C85.7698 38.2351 85.0462 38.3585 84.2391 38.5366C82.7919 38.838 82.778 38.8517 82.8058 39.2216C82.8476 39.8656 83.6268 41.3179 84.3226 42.0441C85.2688 43.0443 86.4238 43.5649 87.8849 43.6471C90.487 43.8115 92.5328 42.8387 93.4232 41.0165C93.8688 40.0985 93.98 38.2626 93.6456 37.2761C93.1168 35.7142 91.976 34.6591 89.1651 33.1383C86.8552 31.8778 86.3125 31.2887 86.5212 30.2063C86.716 29.165 87.7179 28.5895 88.8172 28.891C89.4434 29.0554 90.2505 29.8501 90.5149 30.5899C90.7097 31.138 90.7097 31.138 91.2802 30.9599C91.5029 30.8776 92.1432 30.6995 92.6992 30.5351C93.6736 30.2611 93.7016 30.2337 93.6176 29.8775C93.4512 29.1787 92.6856 27.9319 92.1288 27.4387C91.8229 27.1646 91.2245 26.781 90.7932 26.5892C90.1253 26.2741 89.7913 26.2192 88.4833 26.1918C87.3978 26.1644 86.7578 26.2192 86.2707 26.37ZM11.96 34.932V43.6651H13.5756H15.1912V39.8924V36.1197L17.4531 36.1477L19.7015 36.1896L19.7418 39.9203L19.7688 43.6651H21.3844H23L22.973 34.96L22.9327 26.2689L21.3574 26.227L19.7688 26.1851V29.6922V33.1854H17.48H15.1912V29.6922V26.199H13.5756H11.96V34.932ZM30.7017 26.3109C30.6229 26.4368 26.68 43.3435 26.68 43.5392C26.68 43.6091 27.3503 43.6651 28.1783 43.6651H29.6766L30.0971 41.8471L30.5177 40.0292L32.6994 40.0572L34.8811 40.0991L34.9731 40.5187C35.0257 40.7424 35.1966 41.5535 35.3543 42.3086L35.6434 43.6651H37.1417C37.9697 43.6651 38.64 43.6371 38.64 43.5951C38.64 43.5112 35.0126 27.4856 34.8154 26.7025L34.684 26.1851H32.7257C31.648 26.1851 30.7411 26.241 30.7017 26.3109ZM33.3697 33.191C33.7246 34.8271 34.0531 36.3934 34.1057 36.6451L34.1977 37.0926H32.6731C31.832 37.0926 31.1486 37.0367 31.1486 36.9667C31.1486 36.8968 31.4377 35.5263 31.7926 33.9182C32.1474 32.324 32.476 30.7998 32.5286 30.5481C32.5811 30.2964 32.6469 30.1006 32.6731 30.1285C32.6994 30.1565 33.0149 31.5409 33.3697 33.191ZM41.4 34.9181V43.6511H43.0315H44.663V40.0937V36.5224L45.4244 36.5643L46.1858 36.6061L47.559 40.0937L48.9458 43.5814L50.6861 43.6232L52.44 43.6651L52.3448 43.3582C52.2905 43.1768 51.6106 41.5027 50.8357 39.6334C50.0607 37.75 49.4217 36.1457 49.4217 36.062C49.4217 35.9783 49.6392 35.783 49.9111 35.6295C52.3992 34.2624 52.5352 29.2542 50.1286 27.3709C49.0138 26.5059 48.1165 26.3246 44.5679 26.2409L41.4 26.1851V34.9181ZM47.491 29.2821C48.4292 29.7145 48.837 31.0119 48.4699 32.3651C48.1844 33.3975 47.2599 33.8857 45.5876 33.8857H44.663V31.4444V29.0031H45.7915C46.5937 29.0031 47.0695 29.0868 47.491 29.2821ZM55.2002 26.2829C55.1869 26.3529 56.1303 30.2824 57.2865 35.0369L59.3861 43.6651H61.2066H63.0272L63.1601 43.1337C64.2232 38.8546 67.16 26.5626 67.16 26.4088C67.16 26.213 66.9341 26.1851 65.6584 26.1851H64.1434L63.1866 30.3383C61.3927 38.0435 61.2332 38.7147 61.1402 38.4211C61.1003 38.2672 60.489 35.6942 59.7847 32.7016C59.0938 29.709 58.4558 27.0101 58.3894 26.7165L58.2433 26.1851H56.7283C55.8911 26.1851 55.2002 26.227 55.2002 26.2829ZM70.84 34.9251V43.6651H75.44H80.04V42.1967V40.7284H77.0191H73.9982L74.0257 38.4491L74.0669 36.1836L76.2364 36.1417L78.3922 36.0997V34.6454V33.1771H76.1952H73.9845L74.0257 31.1773L74.0669 29.1916L76.923 29.1497L79.7654 29.1217V27.6534V26.1851H75.3027H70.84V34.9251ZM96.6968 26.2829C96.6416 26.3249 96.6 26.9961 96.6 27.7513V29.1217H98.532H100.464V36.3934V43.6651H102.12H103.776L103.803 36.4214L103.845 29.1916L105.75 29.1497L107.64 29.1077V27.6534V26.1851H102.217C99.2216 26.1851 96.7384 26.227 96.6968 26.2829Z" fill="black"/>
</svg>
