<svg width="180" height="25" viewBox="0 0 180 25" fill="none" xmlns="http://www.w3.org/2000/svg">
<g clip-path="url(#clip0_63_5270)">
<path d="M56.93 12.0785C56.93 16.4535 53.7489 19.8324 49.8897 19.8324C47.9157 19.8324 46.4725 19.1562 45.5016 18.0414V24.3H41.0833V4.73723H45.5016V6.11775C46.4745 5.00085 47.9177 4.32669 49.8897 4.32669C53.7489 4.32468 56.93 7.70354 56.93 12.0785ZM52.5116 12.0785C52.5116 9.87695 51.0382 8.49643 49.0056 8.49643C46.973 8.49643 45.4996 9.87695 45.4996 12.0785C45.4996 14.2821 46.973 15.6607 49.0056 15.6607C51.0382 15.6607 52.5116 14.2821 52.5116 12.0785Z" fill="#111111"/>
<path d="M67.2664 4.44345V9.22899C65.1713 9.04989 62.848 9.97962 62.848 12.7829V19.4199H58.4297V4.73726H62.848V7.3514C63.4374 5.38325 65.4114 4.44345 67.2664 4.44345Z" fill="#111111"/>
<path d="M67.7689 12.0786C67.7689 7.70356 71.2447 4.32471 75.5742 4.32471C79.9038 4.32471 83.3795 7.70155 83.3795 12.0786C83.3795 16.4556 79.9038 19.8324 75.5742 19.8324C71.2447 19.8324 67.7689 16.4536 67.7689 12.0786ZM78.9611 12.0786C78.9611 9.9937 77.4877 8.61318 75.5742 8.61318C73.6587 8.61318 72.1873 9.9937 72.1873 12.0786C72.1873 14.1634 73.6607 15.544 75.5742 15.544C77.4877 15.544 78.9611 14.1634 78.9611 12.0786Z" fill="#111111"/>
<path d="M100.405 0V19.4199H95.9867V18.0394C95.0138 19.1542 93.5707 19.8304 91.5987 19.8304C87.7394 19.8304 84.5583 16.4536 84.5583 12.0765C84.5583 7.69953 87.7394 4.32268 91.5987 4.32268C93.5727 4.32268 95.0159 4.99886 95.9867 6.11374V0H100.405ZM95.9867 12.0786C95.9867 9.87697 94.5133 8.49645 92.4807 8.49645C90.4481 8.49645 88.9747 9.87697 88.9747 12.0786C88.9747 14.2822 90.4481 15.6607 92.4807 15.6607C94.5133 15.6607 95.9867 14.2822 95.9867 12.0786Z" fill="#111111"/>
<path d="M116.647 4.73724V19.4199H112.229V18.0394C111.434 19.1261 109.96 19.8304 108.017 19.8304C105.041 19.8304 102.508 17.7154 102.508 13.7509V4.73523H106.927V13.1049C106.927 14.9261 108.075 15.7774 109.49 15.7774C111.111 15.7774 112.229 14.8376 112.229 12.7527V4.73724H116.647Z" fill="#111111"/>
<path d="M118.355 12.0786C118.355 7.70356 121.683 4.32471 126.16 4.32471C129.018 4.32471 131.551 5.82195 132.817 8.08391L128.958 10.3157C128.457 9.28734 127.398 8.67154 126.1 8.67154C124.184 8.67154 122.771 10.0521 122.771 12.0786C122.771 14.1051 124.184 15.4856 126.1 15.4856C127.396 15.4856 128.485 14.8698 128.958 13.8415L132.817 16.043C131.549 18.3332 129.047 19.8324 126.16 19.8324C121.683 19.8324 118.355 16.4536 118.355 12.0786Z" fill="#111111"/>
<path d="M138.765 8.96534V14.1634C138.765 15.4272 139.855 15.544 141.799 15.4272V19.4199C136.026 20.0075 134.347 18.2748 134.347 14.1634V8.96534V4.73724V3.09913L138.765 1.44894V4.73523H141.799V8.96333H138.765V8.96534Z" fill="#111111"/>
<path d="M143.83 4.73724H148.248V19.4199H143.83V4.73724Z" fill="#111111"/>
<path d="M165.185 4.73724L159.735 19.4219H154.727L149.277 4.73724H154.168L157.232 14.0467L160.296 4.73724H165.185V4.73724Z" fill="#111111"/>
<path d="M172.901 15.9988C174.108 15.9988 175.016 15.6446 175.943 14.904L179.263 16.8078C177.82 18.8041 175.64 19.8324 172.843 19.8324C167.805 19.8324 164.684 16.4556 164.684 12.0786C164.684 7.70155 167.865 4.32471 172.52 4.32471C176.821 4.32471 180.002 7.64319 180.002 12.0786C180.002 12.6944 179.943 13.1753 179.824 13.7328H169.28C169.839 15.2602 171.28 15.9988 172.901 15.9988ZM175.781 10.6135C175.388 8.9573 174.092 8.07989 172.568 8.07989C170.798 8.07989 169.544 9.03579 169.108 10.6135H175.781V10.6135Z" fill="#111111"/>
<path d="M6.03601 22.8909L0.169802 12.9757C-0.17231 12.3982 0.0188703 11.6516 0.596435 11.3095L5.22903 8.56854C5.8066 8.22642 6.55321 8.4176 6.89532 8.99517L10.1957 14.5736L13.6188 8.68324C17.8992 1.66593 22.3306 9.4218 20.3121 12.7182L14.4218 22.8567C13.9167 23.7281 12.9869 24.2654 11.9787 24.2695L8.48714 24.2835C7.48093 24.2876 6.54918 23.7563 6.03601 22.8909Z" fill="url(#paint0_linear_63_5270)"/>
<path d="M30.8464 15.4454C30.8464 17.8764 28.8763 19.8465 26.4453 19.8465C24.0143 19.8465 22.0441 17.8764 22.0441 15.4454C22.0441 13.0144 24.0143 11.0442 26.4453 11.0442C28.8763 11.0442 30.8464 13.0144 30.8464 15.4454ZM12.5877 18.621C13.5537 20.2611 15.9283 20.253 16.8842 18.6069L20.3134 12.7065C22.1004 9.79046 24.1209 8.23084 26.6465 7.88671C27.2583 7.8042 27.858 7.66333 28.021 6.74164L28.9588 1.48318C29.1178 0.718464 28.5341 -0.00198364 27.7513 -0.00198364C23.1489 -0.00198364 17.7959 1.82328 13.6201 8.66955L10.1949 14.5619L12.5877 18.621Z" fill="url(#paint1_linear_63_5270)"/>
</g>
<defs>
<linearGradient id="paint0_linear_63_5270" x1="-1.5" y1="3.00001" x2="13" y2="24" gradientUnits="userSpaceOnUse">
<stop stop-color="#AB40FF"/>
<stop offset="1" stop-color="#5D2BFF"/>
</linearGradient>
<linearGradient id="paint1_linear_63_5270" x1="24.5" y1="1.99998" x2="13.8858" y2="17.7093" gradientUnits="userSpaceOnUse">
<stop stop-color="#AB40FF"/>
<stop offset="1" stop-color="#2D00AD"/>
</linearGradient>
<clipPath id="clip0_63_5270">
<rect width="180" height="24.3" fill="white"/>
</clipPath>
</defs>
</svg>
