<?xml version="1.0" encoding="UTF-8"?>
<svg width="401px" height="150px" viewBox="0 0 401 150" version="1.1" xmlns="http://www.w3.org/2000/svg" xmlns:xlink="http://www.w3.org/1999/xlink">
    <g id="Style-Guide" stroke="none" stroke-width="1" fill="none" fill-rule="evenodd">
        <g transform="translate(-97.000000, -88.000000)">
            <g id="Logo" transform="translate(140.000000, 116.125874)" fill="#261744">
                <path d="M162.934191,57.0389619 L162.934191,32.3135602 L166.490977,32.3135602 L166.490977,57.0963294 C166.490977,66.3325004 160.582123,71.0940047 152.09173,71.0940047 C143.429234,71.0940047 137.692482,66.3325004 137.692482,57.0963294 L137.692482,32.3135602 L141.364003,32.3135602 L141.364003,57.0389619 C141.364003,64.2672696 145.723935,67.7666884 152.09173,67.7666884 C158.80373,67.7666884 162.934191,64.2672696 162.934191,57.0389619 Z M194.553257,48.7206713 L191.283308,49.0075089 C190.824368,44.1312696 187.210214,43.3281243 183.997633,43.3281243 C180.498214,43.3281243 177.170898,44.4181072 177.170898,48.0322611 C177.170898,56.6373893 194.897462,51.3022098 194.897462,62.8904491 C194.897462,67.8240559 190.767,71.0940047 183.768163,71.0940047 C180.498214,71.0940047 173.384641,70.1761243 172.696231,62.7757141 L176.080915,62.7757141 C176.597222,66.9635431 180.154009,68.2256286 183.82553,68.2256286 C188.185462,68.2256286 191.45541,66.9061756 191.45541,63.0625517 C191.45541,54.2853209 173.728846,59.5057653 173.728846,48.3190987 C173.728846,42.9839192 179.006658,40.6892183 183.940265,40.6892183 C187.611787,40.6892183 193.979581,41.6644662 194.553257,48.7206713 Z M221.869758,62.7757141 L225.254442,62.7757141 C223.820254,68.053526 219.97663,71.0940047 213.608835,71.0940047 C205.003707,71.0940047 200.242202,65.4719876 200.242202,55.948979 C200.242202,46.4259705 205.520014,40.6892183 213.608835,40.6892183 C221.755023,40.6892183 225.598647,46.1391329 225.598647,54.7442611 L225.483912,56.5800218 L203.913724,56.5800218 C204.028459,63.865697 207.413143,68.1108936 213.551467,68.1108936 C218.312972,68.1108936 220.89451,66.2177653 221.869758,62.7757141 Z M203.971091,53.8263807 L221.927126,53.8263807 C221.755023,47.4585859 219.575057,43.6149619 213.551467,43.6149619 C207.69998,43.6149619 204.487399,47.3438508 203.971091,53.8263807 Z M237.13908,70.4055944 L233.582294,70.4055944 L233.582294,41.3202611 L236.794875,41.3202611 L236.794875,47.7454235 C238.5159,42.524979 241.671114,40.6892183 244.424755,40.6892183 C245.055798,40.6892183 246.031046,40.7465859 247.121029,41.090791 L247.121029,44.1312696 L244.367388,44.1312696 C240.294294,44.1312696 237.13908,47.7454235 237.13908,53.9984833 L237.13908,70.4055944 Z M255.735718,70.4055944 L252.178932,70.4055944 L252.178932,29.0436115 L255.735718,29.0436115 L255.735718,70.4055944 Z M269.111912,70.4055944 L265.555125,70.4055944 L265.555125,41.3202611 L269.111912,41.3202611 L269.111912,70.4055944 Z M269.284014,34.9524662 L265.383023,34.9524662 L265.383023,30.420432 L269.284014,30.420432 L269.284014,34.9524662 Z M297.977336,48.7206713 L294.707388,49.0075089 C294.248447,44.1312696 290.634294,43.3281243 287.421712,43.3281243 C283.922294,43.3281243 280.594977,44.4181072 280.594977,48.0322611 C280.594977,56.6373893 298.321541,51.3022098 298.321541,62.8904491 C298.321541,67.8240559 294.19108,71.0940047 287.192242,71.0940047 C283.922294,71.0940047 276.808721,70.1761243 276.120311,62.7757141 L279.504994,62.7757141 C280.021302,66.9635431 283.578088,68.2256286 287.24961,68.2256286 C291.609541,68.2256286 294.87949,66.9061756 294.87949,63.0625517 C294.87949,54.2853209 277.152926,59.5057653 277.152926,48.3190987 C277.152926,42.9839192 282.430738,40.6892183 287.364345,40.6892183 C291.035866,40.6892183 297.403661,41.6644662 297.977336,48.7206713 Z M316.975547,67.9961585 L316.975547,70.5203294 C316.000299,70.9219021 314.336641,71.0940047 313.935068,71.0940047 C306.592026,71.0940047 305.903615,67.0209106 305.903615,61.1694235 L305.903615,44.3607397 L301.256846,44.3607397 L301.256846,41.6070987 L305.903615,41.6070987 L305.903615,33.6330132 L309.460402,33.6330132 L309.460402,41.6070987 L316.975547,41.6070987 L316.975547,44.3607397 L309.460402,44.3607397 L309.460402,61.0546884 C309.460402,65.9309277 310.148812,67.9961585 314.221906,67.9961585 L316.975547,67.9961585 Z" id="Userlist.io"></path>
                <g id="Logo-Icon" fill-rule="nonzero">
                    <path d="M89.8159701,21.2012151 L55.5988097,1.96529687 C50.941861,-0.65362247 42.9381935,-0.656575028 38.2723519,1.96529687 L4.05519149,21.2012151 C1.43769581,22.6745418 0,24.7354276 0,27.0088976 C0,29.2823676 1.44066014,31.3432534 4.05519149,32.8136275 L38.2723519,52.0524983 C40.6023084,53.3634343 43.6792739,54.0838585 46.9340986,54.0838585 C50.1918877,54.0838585 53.2688532,53.3604817 55.5988097,52.0524983 L89.8159701,32.8136275 C92.4334657,31.3432534 93.8741259,29.2823676 93.8741259,27.0088976 C93.8741259,24.7354276 92.4305014,22.6745418 89.8159701,21.2012151 Z M88.2567371,30.0677481 L54.0395767,49.306619 C50.369747,51.3704573 43.4984503,51.3734099 39.8286205,49.306619 L5.61146016,30.0677481 C4.05815581,29.1937908 3.16885943,28.0777238 3.16885943,27.0088976 C3.16885943,25.9371189 4.05815581,24.8240043 5.61146016,23.9470945 L39.8286205,4.70822367 C41.6635354,3.67482821 44.2543522,3.08431652 46.9311343,3.08431652 C49.6108807,3.08431652 52.2016975,3.67778077 54.0366124,4.70822367 L88.2537728,23.9470945 C89.8070771,24.8210518 90.6993378,25.9371189 90.6993378,27.0088976 C90.7023021,28.0777238 89.8130057,29.1937908 88.2567371,30.0677481 Z" id="Shape"></path>
                    <path d="M89.8189344,41.1555759 C89.0600681,40.7259812 88.0936994,40.9926262 87.6579442,41.7570084 C87.2281176,42.5184279 87.4978708,43.4842753 88.2597014,43.91387 C89.8130057,44.7908357 90.7052664,45.9107445 90.7052664,46.9832499 C90.7052664,48.0557552 89.8130057,49.1756641 88.2597014,50.0526298 L54.042541,69.3577257 C50.194852,71.5294009 43.6852025,71.5323636 39.8315849,69.3577257 L5.61442448,50.0526298 C4.06112014,49.1756641 3.17182376,48.0557552 3.17182376,46.9832499 C3.17182376,45.9107445 4.06112014,44.7908357 5.61442448,43.91387 C6.37625504,43.4842753 6.64600828,42.5184279 6.2161817,41.7570084 C5.78339079,40.9926262 4.81405774,40.7230185 4.05519149,41.1555759 C1.43769581,42.6310114 0,44.701954 0,46.9832499 C0,49.2645457 1.43769581,51.3354884 4.05519149,52.8109239 L38.2723519,72.1160198 C40.700131,73.4847974 43.818597,74.1721488 46.9340986,74.1721488 C50.0525646,74.1721488 53.1710306,73.4877601 55.5988097,72.1160198 L89.8159701,52.8109239 C92.4334657,51.3354884 93.8741259,49.2645457 93.8741259,46.9832499 C93.8741259,44.701954 92.4334657,42.6310114 89.8189344,41.1555759 Z" id="Shape"></path>
                    <path d="M89.8159701,60.8598729 C89.0571038,60.4303085 88.0907351,60.6969347 87.6549799,61.4612632 C87.2251533,62.2226293 87.4949065,63.1884087 88.2567371,63.6179732 C89.8100414,64.4948773 90.7023021,65.6147075 90.7023021,66.6871374 C90.7023021,67.7595674 89.8100414,68.8793976 88.2567371,69.7592642 L54.0395767,89.0630036 C50.1918877,91.2345261 43.6822382,91.2374887 39.8286205,89.0630036 L5.61146016,69.7563017 C4.05815581,68.8793976 3.16885943,67.7595674 3.16885943,66.6841749 C3.16885943,65.611745 4.05815581,64.4919148 5.61146016,63.6150107 C6.37329072,63.1854462 6.64304396,62.2196667 6.21321738,61.4583007 C5.78042647,60.6969347 4.81109342,60.4243834 4.05222717,60.8569104 C1.44066014,62.3352048 0,64.4030394 0,66.6871374 C0,68.9712355 1.43769581,71.0390701 4.05519149,72.5144019 L38.2723519,91.8181414 C40.700131,93.1868227 43.818597,93.8741259 46.9340986,93.8741259 C50.0525646,93.8741259 53.1710306,93.1897852 55.5988097,91.8181414 L89.8159701,72.5144019 C92.4334657,71.0361076 93.8741259,68.968273 93.8741259,66.6871374 C93.8741259,64.4060019 92.4305014,62.3352048 89.8159701,60.8598729 Z" id="Shape"></path>
                </g>
            </g>
        </g>
    </g>
</svg>