<?xml version="1.0" encoding="UTF-8"?>
<svg width="115px" height="38px" viewBox="0 0 115 38" version="1.1" xmlns="http://www.w3.org/2000/svg" xmlns:xlink="http://www.w3.org/1999/xlink">
    <!-- Generator: Sketch 61.2 (89653) - https://sketch.com -->
    <title>weplan-color</title>
    <desc>Created with Sketch.</desc>
    <g id="components" stroke="none" stroke-width="1" fill="none" fill-rule="evenodd">
        <g id="Artboard" transform="translate(-64.000000, -29.000000)">
            <g id="weplan-color" transform="translate(64.000000, 29.000000)">
                <path d="M4.66238866,30.5334691 L4.66238866,30.5334691 C2.09793522,30.5334691 0,28.4193086 0,25.8355432 L0,7.04360494 C0,4.45983951 2.09793522,2.34567901 4.66238866,2.34567901 C7.22660931,2.34567901 9.32477733,4.45983951 9.32477733,7.04360494 L9.32477733,25.8355432 C9.32477733,28.4193086 7.22660931,30.5334691 4.66238866,30.5334691" id="Fill-1-Copy" fill="#043F42"></path>
                <path d="M16.3020648,37.5705062 L16.3020648,37.5705062 C13.7378441,37.5705062 11.6396761,35.4563457 11.6396761,32.8725802 L11.6396761,14.080642 C11.6396761,11.4968765 13.7378441,9.38271605 16.3020648,9.38271605 C18.8665182,9.38271605 20.9644534,11.4968765 20.9644534,14.080642 L20.9644534,32.8725802 C20.9644534,35.4563457 18.8665182,37.5705062 16.3020648,37.5705062" id="Fill-3-Copy" fill="#FCD016"></path>
                <path d="M27.9417409,28.1877901 L27.9417409,28.1877901 C25.3775202,28.1877901 23.2793522,26.0736296 23.2793522,23.4898642 L23.2793522,4.69792593 C23.2793522,2.11416049 25.3775202,0 27.9417409,0 C30.5061943,0 32.6041296,2.11416049 32.6041296,4.69792593 L32.6041296,23.4898642 C32.6041296,26.0736296 30.5061943,28.1877901 27.9417409,28.1877901" id="Fill-5-Copy" fill="#7DD3CD"></path>
                <path d="M41.902834,11.7283951 L42.1230567,11.7283951 C43.6220142,11.7283951 44.9270547,12.7595556 45.2843927,14.2263086 L46.7447065,20.2218642 C47.0748077,21.530284 47.3830263,22.750037 47.6030162,24.0361728 L47.647247,24.0361728 C47.8672368,22.7720864 48.1533401,21.5525679 48.4834413,20.2441481 L50.1430263,13.0288395 C50.318087,12.2674321 50.9913259,11.7283951 51.7669939,11.7283951 C52.5387045,11.7283951 53.2096154,12.262037 53.3884008,13.0187531 L55.1082794,20.2882469 C55.4602632,21.6855679 55.724251,22.6613704 55.9665891,24.0361728 L56.0103543,24.0361728 C56.2524595,22.617037 56.4945648,21.7519506 56.8027834,20.3548642 L58.2346964,14.2535185 C58.5820243,12.7736296 59.8933502,11.7283951 61.4025506,11.7283951 L57.1107692,28.139 L54.711832,28.139 L51.7846862,15.5647531 L51.7406883,15.5647531 L48.6594332,28.139 L46.2386134,28.139 L41.902834,11.7283951 Z" id="Fill-8-Copy" fill="#313131"></path>
                <path d="M68.7357794,21.3874321 C68.58167,19.5911111 67.7012449,18.637358 66.0726215,18.637358 C64.7522166,18.637358 63.5416903,19.3914938 63.2774696,21.3874321 L68.7357794,21.3874321 Z M60.5263158,22.5405679 C60.5263158,18.0607901 63.6736842,16.4197531 66.094504,16.4197531 C68.713664,16.4197531 71.2227126,17.9941728 71.2227126,22.7845185 L71.2227126,23.4274691 L63.2337045,23.4274691 C63.343583,25.5564074 64.6423381,26.4878765 66.3587247,26.4878765 C67.2265789,26.4878765 67.886083,26.3213333 68.4559615,26.0170988 C69.2805162,25.577284 70.2994534,25.7691605 70.9643117,26.4285309 L71.0686032,26.5322099 C69.8583097,27.884963 68.2515688,28.6611481 66.1606174,28.6611481 C63.2337045,28.6611481 60.5263158,26.8650617 60.5263158,22.5405679 L60.5263158,22.5405679 Z" id="Fill-10-Copy" fill="#313131"></path>
                <path d="M78.3843725,19.4900123 C80.8051923,19.4900123 81.9058401,18.7361111 81.9058401,16.8511235 C81.9058401,15.0325185 80.8051923,14.2563333 78.3624899,14.2563333 L76.7573785,14.2563333 L76.7573785,19.4900123 L78.3843725,19.4900123 Z M74.0283401,11.7283951 L78.3403745,11.7283951 C81.8618421,11.7283951 84.6127632,12.9701975 84.6127632,16.7624568 C84.6127632,20.7320494 81.5976215,21.9074691 78.2523785,21.9074691 L76.7573785,21.9074691 L76.7573785,28.139 L74.0283401,28.139 L74.0283401,11.7283951 Z" id="Fill-12-Copy" fill="#313131"></path>
                <path d="M86.1336032,11.7283951 L88.8628745,11.7283951 L88.8628745,28.139 C87.3555364,28.139 86.1336032,26.9077531 86.1336032,25.3889259 L86.1336032,11.7283951 Z" id="Fill-14-Copy" fill="#313131"></path>
                <path d="M98.8699696,25.1351235 L98.8699696,22.5403333 C95.6348381,22.9839012 93.9182186,23.7821358 93.9182186,25.0685062 C93.9182186,25.9999753 94.5563057,26.4878765 95.5468421,26.4878765 C96.9333603,26.4878765 98.0116599,25.9554074 98.8699696,25.1351235 M91.2550607,25.5786914 C91.2550607,23.0284691 93.4118927,21.3205802 98.8699696,20.699679 L98.8699696,20.3447778 C98.8699696,19.1695926 98.2537652,18.6594074 96.9552429,18.6594074 C95.9782085,18.6594074 95.111751,18.9467531 94.3612247,19.3492716 C93.5343421,19.7926049 92.5165688,19.6110494 91.9411032,18.8665309 L91.6950405,18.5486914 C92.9495648,17.3955556 94.9085223,16.4197531 97.3293421,16.4197531 C100.454828,16.4197531 101.533128,17.9275556 101.533128,20.6776296 L101.533128,25.5341235 C101.533128,26.9534938 101.620891,27.8183457 101.863229,28.4171975 L99.1341903,28.4171975 C98.980081,27.9292963 98.8699696,27.5743951 98.8699696,26.9091605 C97.6815587,28.1289136 96.2948077,28.5945309 94.5563057,28.5945309 C92.6634615,28.5945309 91.2550607,27.5302963 91.2550607,25.5786914" id="Fill-16-Copy" fill="#313131"></path>
                <path d="M104.291498,16.6414198 L107.020304,16.6414198 L107.020304,18.238358 C107.768735,17.4396543 109.177368,16.4197531 111.28997,16.4197531 C113.336923,16.4197531 114.657561,17.6392716 114.657561,19.9680617 L114.657561,28.4171975 L111.928289,28.4171975 L111.928289,20.6553457 C111.928289,19.3469259 111.377966,18.7480741 110.189555,18.7480741 C109.001144,18.7480741 108.01084,19.3689753 107.020304,20.2783951 L107.020304,28.4171975 L104.291498,28.4171975 L104.291498,16.6414198 Z" id="Fill-18-Copy" fill="#313131"></path>
            </g>
        </g>
    </g>
</svg>