<svg width="4" height="1088" viewBox="0 0 4 1088" fill="none" xmlns="http://www.w3.org/2000/svg">
<g clip-path="url(#clip0_320_1036)">
<path d="M-1.5 1086.5V1086.25C-1.49987 1084.59 -0.156776 1083.25 1.5 1083.25C3.15678 1083.25 4.49987 1084.59 4.5 1086.25V1086.5C4.5 1088.16 3.15685 1089.5 1.5 1089.5C-0.156854 1089.5 -1.5 1088.16 -1.5 1086.5ZM-1.5 1066.28V1065.78C-1.49987 1064.12 -0.156777 1062.78 1.5 1062.78C3.15678 1062.78 4.49987 1064.12 4.5 1065.78V1066.28C4.5 1067.94 3.15685 1069.28 1.5 1069.28C-0.156854 1069.28 -1.5 1067.94 -1.5 1066.28ZM-1.5 1045.81V1045.31C-1.49988 1043.65 -0.156778 1042.31 1.5 1042.31C3.15678 1042.31 4.49988 1043.65 4.5 1045.31V1045.81C4.5 1047.46 3.15685 1048.81 1.5 1048.81C-0.156854 1048.81 -1.5 1047.46 -1.5 1045.81ZM-1.5 1025.34V1024.84C-1.49988 1023.18 -0.156779 1021.84 1.5 1021.84C3.15678 1021.84 4.49988 1023.18 4.5 1024.84V1025.34C4.49976 1026.99 3.1567 1028.34 1.5 1028.34C-0.156705 1028.34 -1.49976 1026.99 -1.5 1025.34ZM-1.5 1004.86V1004.36C-1.49991 1002.71 -0.156801 1001.36 1.5 1001.36C3.1568 1001.36 4.49991 1002.71 4.5 1004.36V1004.86C4.5 1006.52 3.15685 1007.86 1.5 1007.86C-0.156854 1007.86 -1.5 1006.52 -1.5 1004.86ZM-1.5 984.392V983.893C-1.49995 982.236 -0.156824 980.893 1.5 980.893C3.15682 980.893 4.49995 982.236 4.5 983.893V984.392C4.5 986.048 3.15685 987.392 1.5 987.392C-0.156854 987.392 -1.5 986.048 -1.5 984.392ZM-1.5 963.92V963.421C-1.49995 961.764 -0.156824 960.421 1.5 960.421C3.15682 960.421 4.49995 961.764 4.5 963.421V963.92C4.5 965.577 3.15685 966.92 1.5 966.92C-0.156854 966.92 -1.5 965.577 -1.5 963.92ZM-1.5 943.448V942.949C-1.49999 941.292 -0.156847 939.949 1.5 939.949C3.15685 939.949 4.49999 941.292 4.5 942.949V943.448C4.5 945.105 3.15685 946.448 1.5 946.448C-0.156854 946.448 -1.5 945.105 -1.5 943.448ZM-1.5 922.977V922.478C-1.5 920.821 -0.156854 919.478 1.5 919.478C3.15685 919.478 4.5 920.821 4.5 922.478V922.977C4.5 924.633 3.15685 925.977 1.5 925.977C-0.156854 925.977 -1.5 924.633 -1.5 922.977ZM-1.5 902.505V902.006C-1.5 900.349 -0.156854 899.006 1.5 899.006C3.15685 899.006 4.5 900.349 4.5 902.006V902.505C4.5 904.162 3.15685 905.505 1.5 905.505C-0.156854 905.505 -1.5 904.162 -1.5 902.505ZM-1.5 882.033V881.534C-1.5 879.877 -0.156854 878.534 1.5 878.534C3.15685 878.534 4.5 879.877 4.5 881.534V882.033C4.5 883.69 3.15685 885.033 1.5 885.033C-0.156854 885.033 -1.5 883.69 -1.5 882.033ZM-1.5 861.562V861.062C-1.5 859.406 -0.156854 858.062 1.5 858.062C3.15685 858.062 4.5 859.406 4.5 861.062V861.562C4.5 863.218 3.15685 864.562 1.5 864.562C-0.156854 864.562 -1.5 863.218 -1.5 861.562ZM-1.5 841.09V840.591C-1.5 838.934 -0.156854 837.591 1.5 837.591C3.15685 837.591 4.5 838.934 4.5 840.591V841.09C4.49999 842.747 3.15685 844.09 1.5 844.09C-0.15685 844.09 -1.49999 842.747 -1.5 841.09ZM-1.5 820.618V820.119C-1.5 818.462 -0.156854 817.119 1.5 817.119C3.15685 817.119 4.5 818.462 4.5 820.119V820.618C4.49996 822.275 3.15683 823.618 1.5 823.618C-0.156828 823.618 -1.49996 822.275 -1.5 820.618ZM-1.5 800.146V799.647C-1.5 797.991 -0.156854 796.647 1.5 796.647C3.15685 796.647 4.5 797.991 4.5 799.647V800.146C4.49992 801.803 3.15681 803.146 1.5 803.146C-0.156805 803.146 -1.49992 801.803 -1.5 800.146ZM-1.5 779.675V779.175C-1.49975 777.518 -0.156701 776.175 1.5 776.175C3.1567 776.175 4.49975 777.518 4.5 779.175V779.675C4.49988 781.332 3.15678 782.675 1.5 782.675C-0.156783 782.675 -1.49988 781.332 -1.5 779.675ZM-1.5 759.203V758.703C-1.49975 757.046 -0.156702 755.703 1.5 755.703C3.1567 755.703 4.49975 757.046 4.5 758.703V759.203C4.49988 760.86 3.15678 762.203 1.5 762.203C-0.156782 762.203 -1.49988 760.86 -1.5 759.203ZM-1.5 738.731V738.231C-1.49979 736.575 -0.156724 735.231 1.5 735.231C3.15672 735.231 4.49979 736.575 4.5 738.231V738.731C4.49985 740.388 3.15676 741.731 1.5 741.731C-0.15676 741.731 -1.49985 740.388 -1.5 738.731ZM-1.5 718.26V717.76C-1.49983 716.103 -0.156746 714.76 1.5 714.76C3.15675 714.76 4.49983 716.103 4.5 717.76V718.26C4.49981 719.916 3.15674 721.26 1.5 721.26C-0.156737 721.26 -1.49981 719.916 -1.5 718.26ZM-1.5 697.788V697.288C-1.49986 695.631 -0.156769 694.288 1.5 694.288C3.15677 694.288 4.49986 695.631 4.5 697.288V697.788C4.49977 699.445 3.15671 700.788 1.5 700.788C-0.156715 700.788 -1.49977 699.445 -1.5 697.788ZM-1.5 677.316V676.816C-1.4999 675.16 -0.156791 673.816 1.5 673.816C3.15679 673.816 4.4999 675.16 4.5 676.816V677.316C4.49974 678.973 3.15669 680.316 1.5 680.316C-0.156692 680.316 -1.49974 678.973 -1.5 677.316ZM-1.5 656.844V656.345C-1.49993 654.688 -0.156814 653.345 1.5 653.345C3.15681 653.345 4.49993 654.688 4.5 656.345V656.844C4.5 658.501 3.15685 659.844 1.5 659.844C-0.156854 659.844 -1.5 658.501 -1.5 656.844ZM-1.5 636.372V635.873C-1.49997 634.216 -0.156836 632.873 1.5 632.873C3.15684 632.873 4.49997 634.216 4.5 635.873V636.372C4.5 638.029 3.15685 639.372 1.5 639.372C-0.156854 639.372 -1.5 638.029 -1.5 636.372ZM-1.5 615.9V615.401C-1.5 613.745 -0.156854 612.401 1.5 612.401C3.15685 612.401 4.5 613.745 4.5 615.401V615.9C4.5 617.557 3.15685 618.9 1.5 618.9C-0.156854 618.9 -1.5 617.557 -1.5 615.9ZM-1.5 595.429V594.93C-1.5 593.273 -0.156854 591.93 1.5 591.93C3.15685 591.93 4.5 593.273 4.5 594.93V595.429C4.5 597.086 3.15685 598.429 1.5 598.429C-0.156854 598.429 -1.5 597.086 -1.5 595.429ZM-1.5 574.957V574.458C-1.5 572.801 -0.156854 571.458 1.5 571.458C3.15685 571.458 4.5 572.801 4.5 574.458V574.957C4.5 576.614 3.15685 577.957 1.5 577.957C-0.156854 577.957 -1.5 576.614 -1.5 574.957ZM-1.5 554.485V553.986C-1.5 552.329 -0.156854 550.986 1.5 550.986C3.15685 550.986 4.5 552.329 4.5 553.986V554.485C4.5 556.142 3.15685 557.485 1.5 557.485C-0.156854 557.485 -1.5 556.142 -1.5 554.485ZM-1.5 534.014V533.515C-1.5 531.858 -0.156854 530.515 1.5 530.515C3.15685 530.515 4.5 531.858 4.5 533.515V534.014C4.5 535.671 3.15685 537.014 1.5 537.014C-0.156854 537.014 -1.5 535.671 -1.5 534.014ZM-1.5 513.542V513.043C-1.5 511.386 -0.156854 510.043 1.5 510.043C3.15685 510.043 4.5 511.386 4.5 513.043V513.542C4.49999 515.199 3.15685 516.542 1.5 516.542C-0.156849 516.542 -1.49999 515.199 -1.5 513.542ZM-1.5 493.07V492.571C-1.5 490.914 -0.156854 489.571 1.5 489.571C3.15685 489.571 4.5 490.914 4.5 492.571V493.07C4.49999 494.727 3.15685 496.07 1.5 496.07C-0.156849 496.07 -1.49999 494.727 -1.5 493.07ZM-1.5 472.599V472.1C-1.5 470.443 -0.156854 469.1 1.5 469.1C3.15685 469.1 4.5 470.443 4.5 472.1V472.599C4.49999 474.255 3.15685 475.599 1.5 475.599C-0.156848 475.599 -1.49999 474.255 -1.5 472.599ZM-1.5 452.127V451.628C-1.5 449.971 -0.156854 448.628 1.5 448.628C3.15685 448.628 4.5 449.971 4.5 451.628V452.127C4.49999 453.784 3.15685 455.127 1.5 455.127C-0.156847 455.127 -1.49999 453.784 -1.5 452.127ZM-1.5 431.655V431.156C-1.5 429.499 -0.156854 428.156 1.5 428.156C3.15685 428.156 4.5 429.499 4.5 431.156V431.655C4.49999 433.312 3.15685 434.655 1.5 434.655C-0.156846 434.655 -1.49999 433.312 -1.5 431.655ZM-1.5 411.184V410.685C-1.5 409.028 -0.156854 407.685 1.5 407.685C3.15685 407.685 4.5 409.028 4.5 410.685V411.184C4.49999 412.84 3.15685 414.184 1.5 414.184C-0.156845 414.184 -1.49999 412.84 -1.5 411.184ZM-1.5 390.712V390.213C-1.5 388.556 -0.156854 387.213 1.5 387.213C3.15685 387.213 4.5 388.556 4.5 390.213V390.712C4.49998 392.369 3.15684 393.712 1.5 393.712C-0.156844 393.712 -1.49998 392.369 -1.5 390.712ZM-1.5 370.24V369.741C-1.5 368.084 -0.156854 366.741 1.5 366.741C3.15685 366.741 4.5 368.084 4.5 369.741V370.24C4.49998 371.897 3.15684 373.24 1.5 373.24C-0.156843 373.24 -1.49998 371.897 -1.5 370.24ZM-1.5 349.769V349.27C-1.5 347.613 -0.156854 346.27 1.5 346.27C3.15685 346.27 4.5 347.613 4.5 349.27V349.769C4.49998 351.425 3.15684 352.769 1.5 352.769C-0.156842 352.769 -1.49998 351.425 -1.5 349.769ZM-1.5 329.297V328.798C-1.5 327.141 -0.156854 325.798 1.5 325.798C3.15685 325.798 4.5 327.141 4.5 328.798V329.297C4.49998 330.954 3.15684 332.297 1.5 332.297C-0.156842 332.297 -1.49998 330.954 -1.5 329.297ZM-1.5 308.825V308.326C-1.5 306.669 -0.156854 305.326 1.5 305.326C3.15685 305.326 4.5 306.669 4.5 308.326V308.825C4.49998 310.482 3.15684 311.825 1.5 311.825C-0.156841 311.825 -1.49998 310.482 -1.5 308.825ZM-1.5 288.354V287.854C-1.5 286.198 -0.156854 284.854 1.5 284.854C3.15685 284.854 4.5 286.198 4.5 287.854V288.354C4.49998 290.01 3.15684 291.354 1.5 291.354C-0.15684 291.354 -1.49998 290.01 -1.5 288.354ZM-1.5 267.882V267.383C-1.5 265.726 -0.156854 264.383 1.5 264.383C3.15685 264.383 4.5 265.726 4.5 267.383V267.882C4.49998 269.539 3.15684 270.882 1.5 270.882C-0.156844 270.882 -1.49998 269.539 -1.5 267.882ZM-1.5 247.41V246.911C-1.5 245.254 -0.156854 243.911 1.5 243.911C3.15685 243.911 4.5 245.254 4.5 246.911V247.41C4.49997 249.067 3.15684 250.41 1.5 250.41C-0.156838 250.41 -1.49997 249.067 -1.5 247.41ZM-1.5 226.938V226.439C-1.5 224.783 -0.156854 223.439 1.5 223.439C3.15685 223.439 4.5 224.783 4.5 226.439V226.938C4.49996 228.595 3.15683 229.938 1.5 229.938C-0.156827 229.938 -1.49996 228.595 -1.5 226.938ZM-1.5 206.467V205.968C-1.5 204.311 -0.156854 202.968 1.5 202.968C3.15685 202.968 4.5 204.311 4.5 205.968V206.467C4.49995 208.124 3.15682 209.467 1.5 209.467C-0.15682 209.467 -1.49995 208.124 -1.5 206.467ZM-1.5 185.995V185.496C-1.5 183.839 -0.156854 182.496 1.5 182.496C3.15685 182.496 4.5 183.839 4.5 185.496V185.995C4.49993 187.652 3.15681 188.995 1.5 188.995C-0.156809 188.995 -1.49993 187.652 -1.5 185.995ZM-1.5 165.523V165.024C-1.5 163.368 -0.156854 162.024 1.5 162.024C3.15685 162.024 4.5 163.368 4.5 165.024V165.523C4.49991 167.18 3.1568 168.523 1.5 168.523C-0.156797 168.523 -1.49991 167.18 -1.5 165.523ZM-1.5 145.052V144.552C-1.49974 142.895 -0.156693 141.552 1.5 141.552C3.15669 141.552 4.49974 142.895 4.5 144.552V145.052C4.49989 146.709 3.15679 148.052 1.5 148.052C-0.156785 148.052 -1.49989 146.709 -1.5 145.052ZM-1.5 124.58V124.08C-1.49975 122.423 -0.156699 121.08 1.5 121.08C3.1567 121.08 4.49975 122.423 4.5 124.08V124.58C4.49988 126.237 3.15678 127.58 1.5 127.58C-0.156779 127.58 -1.49988 126.237 -1.5 124.58ZM-1.5 104.108V103.608C-1.49976 101.952 -0.156708 100.608 1.5 100.608C3.15671 100.608 4.49976 101.952 4.5 103.608V104.108C4.49987 105.765 3.15677 107.108 1.5 107.108C-0.156773 107.108 -1.49987 105.765 -1.5 104.108ZM-1.5 83.6367V83.1367C-1.49977 81.4801 -0.156714 80.1367 1.5 80.1367C3.15671 80.1367 4.49977 81.4801 4.5 83.1367V83.6367C4.49985 85.2934 3.15676 86.6367 1.5 86.6367C-0.156764 86.6367 -1.49985 85.2934 -1.5 83.6367ZM-1.5 63.165V62.665C-1.49978 61.0084 -0.15672 59.665 1.5 59.665C3.15672 59.665 4.49978 61.0084 4.5 62.665V63.165C4.49984 64.8218 3.15676 66.165 1.5 66.165C-0.156758 66.165 -1.49984 64.8218 -1.5 63.165ZM-1.5 42.6934V42.1934C-1.49979 40.5367 -0.156727 39.1934 1.5 39.1934C3.15673 39.1934 4.49979 40.5367 4.5 42.1934V42.6934C4.49983 44.3501 3.15675 45.6934 1.5 45.6934C-0.156752 45.6934 -1.49983 44.3501 -1.5 42.6934ZM-1.5 22.2217V21.7217C-1.4998 20.065 -0.156733 18.7217 1.5 18.7217C3.15673 18.7217 4.4998 20.065 4.5 21.7217V22.2217C4.49982 23.8784 3.15675 25.2217 1.5 25.2217C-0.156745 25.2217 -1.49982 23.8784 -1.5 22.2217ZM-1.5 1.75V1.5C-1.5 -0.156854 -0.156854 -1.5 1.5 -1.5C3.15685 -1.5 4.5 -0.156854 4.5 1.5V1.75C4.49981 3.4067 3.15674 4.75 1.5 4.75C-0.156739 4.75 -1.49981 3.4067 -1.5 1.75Z" fill="white"/>
</g>
<defs>
<clipPath id="clip0_320_1036">
<rect width="3.50138" height="1088" fill="white"/>
</clipPath>
</defs>
</svg>
