<svg width="100" height="98" viewBox="0 0 100 98" fill="none" xmlns="http://www.w3.org/2000/svg">
<path d="M50.5853 50.9203C50.5853 50.9203 42.1602 76.6608 44.6665 83.9856C46.1643 88.3623 50.0762 94.4807 59.1224 93.343C66.2588 92.4444 67.5442 86.0597 67.5442 86.0597C67.5442 86.0597 76.712 90.5262 82.1657 80.215C87.198 70.7018 79.9042 64.2975 76.1247 61.1177C71.4208 57.1608 50.5857 50.9174 50.5857 50.9174L50.5853 50.9203Z" fill="#5C7B62" stroke="#1D1D1B" stroke-width="8" stroke-miterlimit="10"/>
<path d="M50.0898 50.5829C50.0898 50.5829 33.4926 43.3164 28.2956 41.7079C19.0105 38.8339 14.061 41.7699 10.3844 44.3726C5.08594 48.1214 4.22598 55.905 5.51118 59.7324C8.01419 67.1872 11.872 66.6554 11.872 66.6554C11.872 66.6554 7.31406 71.349 16.3476 80.3097C19.1751 83.1153 27.252 84.0254 32.3531 80.4631C36.8886 77.2977 41.6915 69.2473 43.7974 64.9147C45.2335 61.9629 50.0898 50.5829 50.0898 50.5829Z" fill="#5C7B62" stroke="#1D1D1B" stroke-width="8" stroke-miterlimit="10"/>
<path d="M51.0575 49.9767C51.0575 49.9767 59.9812 22.5151 67.0617 18.4181C71.2906 15.9714 78.6974 13.8165 85.3325 21.0506C90.5665 26.7573 87.2459 32.7554 87.2459 32.7554C87.2459 32.7554 97.8278 35.5948 95.2289 47.6474C92.8351 58.7639 82.4611 58.7789 77.1794 58.6788C70.6101 58.552 51.06 49.9799 51.06 49.9799L51.0575 49.9767Z" fill="#5C7B62" stroke="#1D1D1B" stroke-width="8" stroke-miterlimit="10"/>
<path d="M49.6123 48.7156C49.6123 48.7156 32.6481 42.7529 27.9438 40.0964C19.5425 35.3524 18.3295 29.716 17.7334 25.2375C16.8765 18.7828 21.9766 12.7495 25.6452 11.022C32.7872 7.65789 35.0184 10.8274 35.0184 10.8274C35.0184 10.8274 35.3528 4.25775 48.0265 4.58744C51.9917 4.69051 57.3421 10.0909 58.9987 16.101C60.2919 20.7861 57.1435 30.6783 55.4094 35.2201C54.2257 38.3157 49.6127 48.7127 49.6127 48.7127L49.6123 48.7156Z" fill="#5C7B62" stroke="#1D1D1B" stroke-width="8" stroke-miterlimit="10"/>
</svg>
