<?xml version="1.0" encoding="UTF-8"?>
<svg id="Layer_1" xmlns="http://www.w3.org/2000/svg" version="1.1" viewBox="0 0 237.32 129.85">
  <!-- Generator: Adobe Illustrator 29.8.3, SVG Export Plug-In . SVG Version: 2.1.1 Build 3)  -->
  <defs>
    <style>
      .st0 {
        fill: #f4eadc;
        stroke: #f4eadc;
        stroke-miterlimit: 10;
        stroke-width: 2px;
      }
    </style>
  </defs>
  <path class="st0" d="M34.19,30.43c.08-3.25.14-6.51,1.07-9.65.66-2.22,1.21-4.48,2.18-6.58.29-.62.66-1.1,1.24-1.49,1.47-.99,2.78-2.23,4.39-3.01,3.03-1.46,5.84-1.3,8.52.94.97.81,1.88,1.65,2.73,2.58,2.33,2.55,5.1,4.5,7.95,6.27,2.02,1.25,4.37,1.68,6.7,1.87,1.45.12,2.93-.07,4.38.05,3.99.34,8.01.21,11.95,1.1.62.14,1.3.25,1.84.57,1.69,1.02,3.6,1.37,5.37,2.12,2.91,1.23,5.95,1.9,9.02,1.93,2.13.01,4.31.01,6.45-.28,1.96-.27,3.89-.79,5.85-.94,1.49-.12,2.88-.54,4.25-1.02,4.32-1.5,8.76-2.54,13.16-3.7.56-.15,1.16-.11,1.74-.13,1.16-.05,2.33.08,3.48-.3.43-.14.94-.12,1.39-.05,3.18.48,6.38.52,9.56.82,3.22.31,6.42.25,9.61.2,1.73-.02,3.51-.11,5.21-.4,1.42-.24,2.84-.52,4.26-.77,1.49-.26,3-.34,4.5-.54,1.9-.26,3.8-.59,5.7-.69,2.16-.12,4.22-.67,6.3-1.16.97-.23,1.97-.14,2.95-.27,3.28-.43,6.53-1.33,9.88-.9,1.79.23,3.6.37,5.25,1.23,1.99,1.03,4.02,1.98,5.89,3.26,2.98,2.04,5.95,4.09,8.66,6.53,1.6,1.44,3.17,2.98,4.39,4.69,1.45,2.01,3.26,3.84,4.02,6.38.29.99.88,1.87,1.35,2.77,1.05,2.03,1,4.26,1.33,6.42.15.98-.93,2.4-1.98,2.75-1.5.5-3,1.01-4.54,1.36-2.56.58-5.12,1.15-7.64,1.92-.96.29-1.94.33-2.94.4-2.49.19-5,.24-7.47.67-.11.02-.23.04-.35.03-2.75-.21-5.47.59-8.21.35-2.66-.24-5.35-.18-8-.63-.8-.14-1.67-.19-2.44,0-1.28.33-2.55.26-3.83.29-2.62.07-5.22.55-7.86.37-2.26-.16-4.52-.31-6.77-.66-1.44-.22-2.9-.13-4.35-.34-1.73-.25-3.43-.67-5.16-.9-2.82-.37-5.63-.9-8.43-1.43-2.46-.47-4.89-1.18-7.36-1.52-3.52-.48-6.92-1.59-10.48-1.87-2.37-.19-4.72-.65-7.11-.67-1.24-.01-2.42.31-3.64.42-3.06.29-6.11.63-9.11,1.51-2.73.8-5.57,1.2-8.37,1.76-6.19,1.23-12.46.84-18.69.65-3.27-.1-6.58-.56-9.85-1.21-3.51-.7-7.06-1.41-10.68-1.43-3.1-.01-6.13-.75-9.06-1.8-2.76-.99-5.65-1.46-8.38-2.54-1.52-.6-3.06-1.19-4.55-1.86-1.05-.47-1.78-1.44-2.43-2.34-1.05-1.45-1.89-3.03-2.25-4.9-.4-2.06-.73-4.1-.62-6.21ZM220.85,36.14c-1.31-1.97-2.37-3.8-3.84-5.32-2.42-2.51-5.19-4.55-7.93-6.63-1.72-1.31-3.72-2.07-5.49-3.26-3.08-2.07-6.49-2.59-10-2.83-.9-.06-1.72.28-2.59.38-2.19.25-4.38.56-6.57.91-1.67.27-3.32.61-4.98.95-1.95.4-3.92.54-5.88.79-1.96.26-3.9.69-5.89.67-.4,0-.81.08-1.21.18-2.67.7-5.37,1.1-8.14.94-.64-.04-1.3-.07-1.92.06-2.55.53-5.17.52-7.68.19-3.02-.4-6.05-.09-9.07-.54-2.39-.36-4.87-.09-7.33.19-4.32.49-8.47,1.72-12.54,3.16-3.18,1.13-6.43,1.61-9.7,2.13-1.56.25-3.16.16-4.69.46-2.5.49-4.95.12-7.41-.1-1.78-.16-3.53-.53-5.23-1.19-1.64-.64-3.31-1.2-4.9-1.98-2.14-1.05-4.37-1.67-6.75-1.65-1.05,0-2.12.11-3.15-.06-3.06-.51-6.13-.71-9.23-.67-2.87.04-5.5-.74-7.94-2.39-2.27-1.52-4.23-3.46-6.44-5.04-1.65-1.17-2.87-2.88-4.58-3.99-1.63-1.06-3.25-1.43-5.14-.75-1.57.57-2.99,1.41-4.34,2.37-1.2.85-2.26,1.95-2.56,3.59-.51,2.75-1.93,5.28-1.81,8.2-.71,1.54-.39,3.23-.6,4.84-.28,2.07.2,4.16.47,6.21.18,1.39.78,2.82,1.65,3.98,1.53,2.03,3.61,3.25,5.94,3.97,3.8,1.18,7.6,2.31,11.44,3.33,2.9.76,5.79,1.42,8.8,1.19.35-.03.71,0,1.05.06,2.58.46,5.15.94,7.73,1.42.8.15,1.59.33,2.41.39,1.74.12,3.47.38,5.2.59,2.2.27,4.44-.05,6.62.45,2.04-.73,4.15-.19,6.21-.22,3.05-.05,6.05-.42,9.03-.93,3.39-.59,6.7-1.56,10.06-2.31,2.47-.55,4.92-.92,7.43-.93.88,0,1.76.06,2.63-.04,1.92-.22,3.85-.09,5.73.14,3.57.43,7.12,1.16,10.66,1.82,5.21.98,10.35,2.36,15.6,3.09,2.08.29,4.13.71,6.21.96,1.56.19,3.13.24,4.69.43,1.73.2,3.46.48,5.2.6,3.8.25,7.58-.24,11.36-.37.23,0,.47-.04.69-.12,1.09-.39,2.25-.41,3.3-.16,2.42.58,4.88.3,7.31.56,3.47.38,7,.18,10.47-.32,2.42-.35,4.84-.71,7.29-.69,1.13,0,2.19-.26,3.24-.67.38-.15.79-.44,1.15-.39,1.69.21,3.22-.5,4.8-.85,1.97-.45,4.03-.76,5.65-2.29.24-2.51.21-4.94-1.38-7.03-.84-1.1-1.54-2.33-2.59-3.23-.72-.61-1.02-1.33-.54-2.21Z"/>
  <path class="st0" d="M7.61,108.35c1.17-1.69,2.86-2.54,4.51-3.42,1.86-1,3.81-1.78,5.87-2.34,1.3-.35,2.61-.69,3.91-1.04,1.13-.3,2.28-.46,3.41-.54,2.22-.16,4.43-.47,6.65-.59,1.25-.07,2.53-.19,3.79-.29.89-.07,1.8-.14,2.7-.13,1.68.02,3.36-.09,5.03.02,1.98.13,3.97.24,5.95.39,2.44.19,4.88.48,7.34.61,2.37.13,4.76.17,7.13.34,2.39.17,4.72.63,7.08.99.39.06.8.01,1.2.05,1.55.15,2.77.7,3.58,2.2.7,1.31,1.25,2.66,1.73,4.05.28.8.17,1.14-.53,1.63-.26.18-.53.38-.82.48-1.77.61-3.44,1.48-5.24,1.98-2.37.66-4.77,1.21-7.2,1.66-2.03.38-4.11.4-6.15.72-2,.31-3.99.69-5.99,1.02-.9.15-1.8.3-2.71.39-1.62.16-3.25.32-4.8.84-.57.19-1.19.25-1.76.29-1.3.09-2.5.5-3.72.84-2.32.65-4.67,1-7.07.91-1.05-.04-2.06.19-3.09.23-1.87.07-3.72-.24-5.58-.4-2.64-.23-5.16-.93-7.72-1.52-1.6-.37-3.01-1.07-4.05-2.38-1.22-1.53-2.26-3.16-2.77-5.08-.17-.65-.58-1.23-.68-1.93ZM76.59,109.81c.16-.89-.01-1.69-.34-2.31-.51-.98-1.03-1.98-1.64-2.91-.41-.62-1-1.03-1.81-.99-.88.05-1.75-.04-2.61-.26-1.61-.4-3.33-.25-4.85-1.07-.16-.09-.39-.11-.58-.1-2.44.13-4.85-.33-7.29-.27-.75.02-1.5,0-2.26-.18-.77-.19-1.57-.25-2.36-.27-1.16-.03-2.3-.2-3.44-.33-1.86-.22-3.73-.18-5.59-.37-2.21-.23-4.44.17-6.67-.02-.2-.02-.41-.04-.6.01-1.14.34-2.3.16-3.45.22-.4.02-.82-.06-1.19.04-1.4.37-2.86.28-4.27.38-2.12.15-4.16.66-6.24.97-1.49.22-2.93.75-4.37,1.2-.95.29-1.91.6-2.78,1.07-.88.48-1.74.99-2.65,1.39-.99.43-1.71,1.15-2.45,1.88-.35.35-.41.71-.29,1.19.49,2.04,1.36,3.85,2.75,5.48.86,1,1.77,1.89,2.99,2.26,1.63.5,3.32.77,4.98,1.18,1.48.37,3.03.08,4.5.49,1.1.31,2.22.22,3.33.23,1.68,0,3.36.04,5.04-.02,1.15-.04,2.3-.19,3.43-.35,2.64-.37,5.14-1.37,7.81-1.67,1.85-.21,3.66-.69,5.52-.9,2.01-.22,4.01-.59,6-.95,3.05-.55,6.14-.8,9.19-1.32,3.04-.51,6.01-1.19,8.88-2.27,1.11-.41,2.26-.78,3.33-1.43Z"/>
</svg>