<svg width="831" height="452" viewBox="0 0 831 452" fill="none" xmlns="http://www.w3.org/2000/svg">
<g clip-path="url(#clip0_136_2)">
<path d="M576.161 102.397C560.184 100.792 545.23 102.772 533.457 107.336C534.287 105.06 534.741 102.602 534.741 100.041C534.741 93.4407 531.764 87.5459 527.083 83.6198C532.06 77.0081 535.014 68.7804 535.014 59.8585C535.014 38.0204 517.344 20.3246 495.538 20.3246C486.481 20.3246 478.141 23.3858 471.482 28.5295C470.527 17.5593 461.346 8.95601 450.153 8.95601C441.289 8.95601 433.687 14.3387 430.437 22.0202C428.562 12.0855 419.869 4.56335 409.404 4.56335C401.824 4.56335 395.177 8.5122 391.37 14.4639C387.507 10.663 382.211 8.31874 376.371 8.31874C364.541 8.31874 354.951 17.9234 354.951 29.7699C354.951 30.6007 355.007 31.42 355.098 32.228C350.758 30.5779 346.042 29.6675 341.121 29.6675C319.315 29.6675 301.645 47.3633 301.645 69.2014C301.645 78.8516 305.1 87.6938 310.838 94.556C309.815 97.8106 308.975 101.122 308.372 104.502C296.952 100.508 282.85 98.8462 267.828 100.36C232.522 103.91 205.58 123.586 207.648 144.309C209.727 165.032 240.033 178.95 275.35 175.399C292.793 173.647 308.179 167.957 319.054 160.15C321.19 163.701 323.576 167.126 326.213 170.392C322.088 181.385 319.815 193.3 319.815 205.738C319.815 218.176 321.986 229.59 325.951 240.39C318.872 247.537 314.497 257.357 314.497 268.214C314.497 271.639 314.929 274.951 315.747 278.114C309.554 281.881 305.406 288.664 305.406 296.448C305.406 302.65 308.054 308.226 312.247 312.141C309.986 315.543 308.668 319.617 308.668 324.01C308.668 328.937 310.35 333.467 313.145 337.097C312.122 340.613 311.565 344.323 311.565 348.158C311.565 368.107 326.315 384.597 345.485 387.294C344.962 389.137 344.667 391.083 344.667 393.086C344.667 404.933 354.258 414.537 366.087 414.537C368.768 414.537 371.325 414.025 373.689 413.126C376.246 432.483 392.779 447.437 412.813 447.437C423.847 447.437 433.824 442.896 440.983 435.59C441.642 435.647 442.312 435.693 442.994 435.693C453.653 435.693 462.471 427.886 464.118 417.678C465.823 418.122 467.607 418.372 469.448 418.372C481.277 418.372 490.868 408.768 490.868 396.921C490.868 394.975 490.583 393.097 490.095 391.299C504.924 385.609 515.469 371.225 515.469 354.371C515.469 354.087 515.458 353.802 515.447 353.518C521.367 348.101 525.083 340.306 525.083 331.646C525.083 325 522.889 318.866 519.196 313.916C524.651 310.024 528.219 303.662 528.219 296.448C528.219 289.233 524.958 283.429 519.901 279.503C521.219 275.565 521.935 271.355 521.935 266.974C521.935 257.722 518.753 249.209 513.435 242.484C517.901 231.104 520.367 218.711 520.367 205.738C520.367 192.765 518.106 181.385 513.969 170.392C516.765 166.932 519.276 163.302 521.503 159.535C532.423 168.696 549.252 175.49 568.616 177.436C603.921 180.987 634.239 167.069 636.318 146.346C638.398 125.623 611.455 105.947 576.138 102.397H576.161Z" fill="#FFF8EE" stroke="#1D1D1B" stroke-width="8" stroke-linecap="round" stroke-linejoin="round"/>
<path d="M528.583 296.459C528.583 289.563 525.321 283.44 520.265 279.514C521.583 275.577 522.299 271.366 522.299 266.985C522.299 257.778 519.151 249.312 513.879 242.598C499.22 279.89 462.925 306.28 420.495 306.28C378.064 306.28 340.36 278.854 326.281 240.424C319.213 247.571 314.838 257.38 314.838 268.237C314.838 271.662 315.27 274.974 316.088 278.137C309.895 281.904 305.748 288.686 305.748 296.47C305.748 302.672 308.395 308.249 312.588 312.163C310.327 315.566 309.009 319.64 309.009 324.033C309.009 328.96 310.691 333.489 313.486 337.119C312.463 340.636 311.906 344.346 311.906 348.181C311.906 368.13 326.656 384.619 345.826 387.316C345.303 389.16 345.008 391.106 345.008 393.109C345.008 404.955 354.599 414.56 366.428 414.56C369.11 414.56 371.666 414.048 374.03 413.149C376.587 432.506 393.12 447.459 413.154 447.459C424.188 447.459 434.165 442.919 441.324 435.613C441.983 435.67 442.653 435.715 443.335 435.715C453.994 435.715 462.812 427.909 464.459 417.701C466.164 418.145 467.948 418.395 469.789 418.395C481.618 418.395 491.209 408.79 491.209 396.944C491.209 394.998 490.925 393.12 490.436 391.322C505.265 385.632 515.81 371.248 515.81 354.394C515.81 354.11 515.799 353.825 515.788 353.541C521.708 348.124 525.424 340.329 525.424 331.668C525.424 325.023 523.231 318.889 519.537 313.938C524.992 310.047 528.56 303.685 528.56 296.47L528.583 296.459Z" fill="#F5F5F5" stroke="#1D1D1B" stroke-width="8" stroke-miterlimit="10"/>
<path d="M324.667 170.392C324.19 171.678 323.747 172.975 323.327 174.284C327.986 168.173 330.44 161.163 329.883 153.88C328.338 133.612 304.179 118.989 275.919 121.219C247.658 123.45 226.011 141.692 227.556 161.959C227.738 164.383 228.261 166.728 229.056 168.981C241.113 174.591 257.237 177.174 274.601 175.41C291.771 173.658 306.918 167.968 317.622 160.161C319.724 163.712 322.077 167.137 324.667 170.403V170.392Z" fill="white" stroke="#1D1D1B" stroke-width="8" stroke-linecap="round" stroke-linejoin="round"/>
<path d="M618.126 169.39C618.341 168.332 618.512 167.262 618.603 166.17C620.216 145.902 597.637 127.66 568.184 125.43C538.73 123.199 513.549 137.823 511.935 158.09C511.662 161.504 512.094 164.85 513.106 168.07C515.242 165.316 517.208 162.46 518.992 159.513C530.196 168.674 547.468 175.467 567.331 177.413C587.07 179.348 605.285 176.082 618.114 169.368L618.126 169.39Z" fill="white" stroke="#1D1D1B" stroke-width="8" stroke-linecap="round" stroke-linejoin="round"/>
<path d="M354.189 193.63C362.9 193.63 369.962 185.142 369.962 174.671C369.962 164.2 362.9 155.712 354.189 155.712C345.479 155.712 338.417 164.2 338.417 174.671C338.417 185.142 345.479 193.63 354.189 193.63Z" fill="black"/>
<path d="M356.894 169.698C359.881 169.698 362.303 167.273 362.303 164.281C362.303 161.289 359.881 158.864 356.894 158.864C353.907 158.864 351.485 161.289 351.485 164.281C351.485 167.273 353.907 169.698 356.894 169.698Z" fill="#FFF8EE"/>
<path d="M489.424 192.276C498.135 192.276 505.197 183.787 505.197 173.317C505.197 162.846 498.135 154.358 489.424 154.358C480.713 154.358 473.652 162.846 473.652 173.317C473.652 183.787 480.713 192.276 489.424 192.276Z" fill="black"/>
<path d="M486.72 168.344C489.707 168.344 492.129 165.918 492.129 162.927C492.129 159.935 489.707 157.51 486.72 157.51C483.733 157.51 481.311 159.935 481.311 162.927C481.311 165.918 483.733 168.344 486.72 168.344Z" fill="#FFF8EE"/>
<path d="M430.778 275.395C428.517 275.258 422.005 273.198 422.005 273.198C422.005 273.198 415.483 275.258 413.233 275.395C408.881 275.656 395.927 273.198 395.927 273.198C395.813 276.715 408.46 281.028 413.233 281.494C415.415 281.71 422.005 281.494 422.005 281.494C422.005 281.494 428.596 281.71 430.778 281.494C435.551 281.028 448.198 276.703 448.084 273.198C448.084 273.198 435.13 275.656 430.778 275.395Z" fill="#1D1D1B"/>
<path d="M430.653 257.699C431.664 256.208 431.698 252.362 432.483 250.746C433.403 248.845 436.335 245.67 437.971 244.339C440.301 242.427 445.994 239.844 447.971 237.568C449.198 236.157 451.016 231.32 449.493 230.239C442.937 225.596 422.006 246.899 422.006 246.899C422.006 246.899 401.074 225.585 394.518 230.239C392.995 231.32 394.813 236.157 396.04 237.568C398.018 239.855 403.699 242.427 406.04 244.339C407.665 245.67 410.597 248.857 411.529 250.746C412.313 252.362 412.347 256.219 413.358 257.699C414.21 258.962 417.494 259.838 418.483 260.999C420.54 263.423 422.017 273.21 422.017 273.21C422.017 273.21 423.494 263.423 425.551 260.999C426.54 259.838 429.812 258.962 430.676 257.699H430.653Z" fill="#1D1D1B"/>
<path d="M355.996 129.071V130.983C362.45 134.329 367.859 139.575 371.575 146.05C377.575 154.835 381.734 173.965 381.734 196.156C381.734 202.563 381.382 208.72 380.745 214.444C375.371 223.707 372.223 234.893 372.223 246.922C372.223 278.979 394.529 304.96 422.028 304.96C449.528 304.96 471.834 278.979 471.834 246.922C471.834 238.888 470.436 231.229 467.902 224.276C466.232 215.821 465.266 205.852 465.266 195.166C465.266 172.406 469.641 152.867 475.891 144.4C479.572 138.46 484.72 133.646 490.777 130.494V129.071H355.996Z" stroke="#1D1D1B" stroke-width="8" stroke-miterlimit="10"/>
<path d="M502.958 119.592H344.28V153.003H502.958V119.592Z" fill="#FFF8EE"/>
<path d="M528.56 83.6085C533.537 76.9967 536.492 68.769 536.492 59.8471C536.492 38.009 518.822 20.3132 497.015 20.3132C487.959 20.3132 479.618 23.3744 472.959 28.5182C472.005 17.5479 462.823 8.94466 451.63 8.94466C442.767 8.94466 435.165 14.3274 431.915 22.0088C430.04 12.0741 421.347 4.552 410.881 4.552C403.302 4.552 396.654 8.50084 392.848 14.4526C388.984 10.6517 383.689 8.30738 377.848 8.30738C366.019 8.30738 356.428 17.9121 356.428 29.7586C356.428 30.5893 356.485 31.4087 356.576 32.2166C352.235 30.5666 347.519 29.6562 342.599 29.6562C320.793 29.6562 303.123 47.352 303.123 69.1901C303.123 91.0282 320.793 108.724 342.599 108.724C349.621 108.724 356.201 106.88 361.905 103.671C368.519 116.235 381.677 124.792 396.836 124.792C410.983 124.792 423.381 117.339 430.358 106.141C436.801 110.715 444.664 113.424 453.175 113.424C459.369 113.424 465.221 111.99 470.436 109.452C474.368 113.947 480.118 116.804 486.55 116.804C487.595 116.804 488.618 116.701 489.618 116.553C493.39 122.676 500.129 126.773 507.845 126.773C514.288 126.773 520.049 123.916 523.969 119.41C531.208 115.962 536.219 108.599 536.219 100.041C536.219 93.4408 533.242 87.5459 528.56 83.6199V83.6085Z" fill="#F5F5F5" stroke="#1D1D1B" stroke-width="8" stroke-miterlimit="10"/>
<path d="M497.572 152.059C511.529 152.059 522.844 148.421 522.844 143.934C522.844 139.446 511.529 135.808 497.572 135.808C483.615 135.808 472.3 139.446 472.3 143.934C472.3 148.421 483.615 152.059 497.572 152.059Z" fill="#1D1D1B"/>
<path d="M351.042 152.093C364.999 152.093 376.314 148.455 376.314 143.968C376.314 139.48 364.999 135.842 351.042 135.842C337.084 135.842 325.77 139.48 325.77 143.968C325.77 148.455 337.084 152.093 351.042 152.093Z" fill="#1D1D1B"/>
<path d="M310.02 175.171C310.02 203.519 333.326 226.586 361.985 226.586C390.643 226.586 413.449 203.519 413.449 175.171C413.449 171.12 416.745 167.831 420.801 167.831C424.858 167.831 428.153 171.12 428.153 175.171C428.153 203.519 451.244 226.586 479.618 226.586C507.992 226.586 531.571 203.519 531.571 175.171V167.831L530.31 153.14C527.276 144.594 519.106 138.448 509.515 138.448H450.21C440.051 138.448 431.483 145.345 428.926 154.699C423.71 152.616 417.881 152.616 412.665 154.699C410.12 145.345 401.541 138.448 391.382 138.448H332.065C322.474 138.448 314.304 144.594 311.27 153.14L310.009 167.831V175.171H310.02ZM442.858 160.48C442.858 156.429 446.153 153.14 450.21 153.14H509.515C511.754 153.14 513.765 154.153 515.106 155.723L516.867 170.608V175.171C516.867 195.416 500.152 211.895 479.618 211.895C459.084 211.895 442.858 195.416 442.858 175.171V160.48ZM324.724 170.597L326.486 155.723C327.179 154.915 328.031 154.255 328.997 153.811C329.963 153.368 331.02 153.129 332.076 153.129H391.393C395.45 153.129 398.745 156.429 398.745 160.469V175.16C398.745 195.405 382.257 211.883 361.985 211.883C341.713 211.883 324.724 195.405 324.724 175.16V170.597Z" fill="#E25641"/>
</g>
<path d="M733.011 358.356C733.011 358.356 690.306 369.134 682.414 378.943C677.698 384.804 672.685 395.496 682.108 406.944C689.542 415.974 699.436 412.195 699.436 412.195C699.436 412.195 701.26 428.678 720.172 427.218C737.622 425.872 740.09 410.282 741.178 402.324C742.532 392.42 733.015 358.354 733.015 358.354L733.011 358.356Z" fill="#5C7B62" stroke="#1D1D1B" stroke-width="8" stroke-miterlimit="10"/>
<path d="M733.044 357.382C733.044 357.382 728.616 328.254 726.313 319.712C722.198 304.451 713.862 300.197 707.09 297.404C697.334 293.376 685.887 298.956 681.742 304.047C673.668 313.964 677.75 318.805 677.75 318.805C677.75 318.805 667.338 316.617 662.867 336.819C661.466 343.144 667.232 355.038 676.56 358.956C684.851 362.441 700.091 362.05 707.876 361.182C713.182 360.592 733.044 357.382 733.044 357.382Z" fill="#5C7B62" stroke="#1D1D1B" stroke-width="8" stroke-miterlimit="10"/>
<path d="M734.718 358.186C734.718 358.186 780.222 346.598 792.005 352.773C799.042 356.461 808.439 364.771 804.258 380.177C800.959 392.329 789.829 392.975 789.829 392.975C789.829 392.975 795.118 409.989 776.291 416.886C758.93 423.252 749.897 409.003 745.447 401.656C739.915 392.514 734.716 358.192 734.716 358.192L734.718 358.186Z" fill="#5C7B62" stroke="#1D1D1B" stroke-width="8" stroke-miterlimit="10"/>
<path d="M735.197 355.103C735.197 355.103 728.657 326.603 728.222 317.828C727.446 302.158 734.141 295.594 739.78 290.884C747.909 284.099 760.633 285.869 766.195 289.412C777.024 296.307 774.605 302.128 774.605 302.128C774.605 302.128 783.927 296.881 794.483 314.59C797.786 320.131 795.009 332.177 788.186 339.675C782.869 345.523 766.535 349.788 758.785 351.35C753.501 352.411 735.201 355.101 735.201 355.101L735.197 355.103Z" fill="#5C7B62" stroke="#1D1D1B" stroke-width="8" stroke-miterlimit="10"/>
<path d="M103.572 280.914C103.572 280.914 125.456 319.137 137.028 324.095C143.943 327.057 155.591 329.004 164.077 316.846C170.77 307.253 164.465 298.744 164.465 298.744C164.465 298.744 179.848 292.547 173.346 274.726C167.349 258.285 151.67 260.108 143.714 261.204C133.811 262.569 103.569 280.911 103.569 280.911L103.572 280.914Z" fill="#5C7B62" stroke="#1D1D1B" stroke-width="8" stroke-miterlimit="10"/>
<path d="M102.625 281.144C102.625 281.144 75.7664 293.257 68.1609 297.776C54.5728 305.85 52.7221 315.024 51.8564 322.298C50.6063 332.778 59.0633 342.299 65.0833 344.919C76.8087 350.023 80.3712 344.787 80.3712 344.787C80.3712 344.787 81.0686 355.404 101.729 354.267C108.197 353.912 118.098 345.156 119.358 335.117C120.48 326.193 115.999 311.622 113.065 304.359C111.067 299.408 102.625 281.144 102.625 281.144Z" fill="#5C7B62" stroke="#1D1D1B" stroke-width="8" stroke-miterlimit="10"/>
<path d="M102.948 279.316C102.948 279.316 79.5292 238.617 82.3012 225.606C83.9571 217.835 89.4287 206.547 105.391 206.423C117.983 206.326 121.603 216.871 121.603 216.871C121.603 216.871 136.563 207.194 148.277 223.466C159.085 238.471 147.797 251.008 141.92 257.273C134.607 265.064 102.954 279.317 102.954 279.317L102.948 279.316Z" fill="#5C7B62" stroke="#1D1D1B" stroke-width="8" stroke-miterlimit="10"/>
<path d="M99.8505 279.686C99.8505 279.686 74.1653 293.662 65.8321 296.444C50.9503 301.414 42.8255 296.735 36.7706 292.573C28.0463 286.573 26.323 273.842 28.2363 267.532C31.9599 255.245 38.217 256.007 38.217 256.007C38.217 256.007 30.6523 248.443 44.8628 233.506C49.3088 228.833 61.6577 228.261 70.717 232.812C77.781 236.357 86.2887 250.938 89.8805 257.981C92.3266 262.784 99.8474 279.682 99.8474 279.682L99.8505 279.686Z" fill="#5C7B62" stroke="#1D1D1B" stroke-width="8" stroke-miterlimit="10"/>
<defs>
<clipPath id="clip0_136_2">
<rect width="438" height="452" fill="white" transform="translate(203)"/>
</clipPath>
</defs>
</svg>
