<?xml version="1.0" encoding="UTF-8"?>
<svg id="Layer_1" xmlns="http://www.w3.org/2000/svg" version="1.1" viewBox="0 0 1201.31 745.05">
  <!-- Generator: Adobe Illustrator 29.8.3, SVG Export Plug-In . SVG Version: 2.1.1 Build 3)  -->
  <defs>
    <style>
      .st0 {
        fill: #e8451c;
        fill-rule: evenodd;
      }
    </style>
  </defs>
  <path class="st0" d="M1035.09,394.56c22.1-1.09,49.21-2.56,71.23-.93,28.72,2.13,53.24-3.15,78.53-2.47-4.89,22.72-4.53,52.62-13.38,72.76-10.83,24.62-26.77,38.04-36.9,66.85-16.7,47.48-23.53,97.64-59.08,136.07-66.39,71.77-216.19,82.15-300.52,39.28-28.38-14.42-38.83-21.84-56.1-48.61-11.13-17.25-24.36-26.69-34.55-45.11-35.38-63.93-18.66-83.06-101.68-80.57-29.31.88-31.74,22.43-45.45,44.1-11.66,18.44-34.53,49.18-50.19,63.84-41.89,39.21-85.57,61.36-142.33,69.42-96.08,13.65-224.85,2.41-271.24-95.78-23.38-49.5-21.04-101.13-44.57-146.56-13.88-26.8-18.85-43.53-18.18-74.13.77-35.33,21.77-30.19,49.22-25.54,43.07,7.28,101.61,6.95,147.51,11.66,52.86,5.42,104.26,10.01,157.1,16.92,72.05,9.42,87.75,16.91,155.13,41.35,13.64,4.95,27.74,7.87,41.7,11.73,2.18.6,30.27,7.99,27.69,12.38-2.63,4.48-57.65-12.94-65.26-15.09,1.59.72,3.18,1.43,4.77,2.15-.45,20.04,69.66,32.68,85.92,30.42,14.69-2.04,90.98-15.33,87.91-34.06-2.09-.64-42.05,13.58-49.03,15.7-18.54,5.61-30.26,6.23-51.81,4.26,2.39-2.83,19.07-2.81,28.12-5.04,16.21-4,23.05-5.29,38.95-11.88,24.04-9.97,47.38-20.8,73.04-26.36,48.58-10.52,102.87-18.95,152.48-21.84,46.33-2.7,94.14-2.62,140.96-4.92h.01ZM646.22,137.18c7.2-4.21,15.72-10.91,16.2-22.15-8.07,5.01-19.09,13.99-16.2,22.15h0ZM135.78,498.28c3.11-7.93,15.5-28.41,9.43-34.51-9.05,6.97-19.57,26.81-9.43,34.51h0ZM742.65,526.28c8.87-5.53,18.93-31.17,15.93-34.22-8.19,6.23-17.58,18.02-15.93,34.22h0ZM726.08,520c8.42-2.49,11.4-18.04,10.61-30.2-5.82,6.03-20.54,21.61-10.61,30.2h0ZM111.69,472.02c10.66,3.71,18.53-15.23,20.77-24-12.71-2.61-25.55,10.16-20.77,24h0ZM397.37,639.76c17.76-5.97,83.85-57.02,74.1-78.31-21.24,22.15-74.43,75.61-74.1,78.31h0ZM1017.24,653.96c17.63-1.57,65.29-86.83,54.36-94.87-1.54,1.32-54.26,93.75-54.36,94.87h0ZM777.21,65.34c.52,15.02,27.09,20.78,35.69,29.36,16.69,16.68,19,20.96,41.63,32.1,24.28,11.96,69.26,54.58,91.85,73.79,14.3,12.16,33.65,26.23,45.59,39.17,16.78,18.19,25.24,17.29,43.22,38.54,15.32,18.11,34.57,25.34,50.77,37.67,9.47,7.21,19.41,26.65,38.42,36.67,21.56,11.37-2.3-23.28-15.59-31.48-18.05-11.14-32.01-27.08-48.11-40.62-29.63-24.91-58.29-56.45-86.11-78.38-11.29-8.9-25.51-24.08-36.95-34.39-15.56-14.02-37.95-22.26-50.88-33.37-18.01-15.48-88.13-63.52-109.51-69.08h0l-.02.02ZM1015.9,439.43c23.41-.52,46.97-.89,70.38-.54,29.15.43,18.27,26.71,14.59,52.36-6.02,42.02-10.9,94.5-35.24,130.37-55.41,81.67-187.51,91.03-270.34,48.53-33.81-17.35-61.55-44.84-77.36-79.21-20.28-44.1-52.45-99,11.18-118.64,87.23-26.92,195.46-30.84,286.78-32.86h.01ZM1120.49,434.07c-4.68-16.05-60.07-9.59-76.23-9.69-28.01-.17-48.61.62-76.4,2.18-51.53,2.9-100.08,5.84-151.54,11-46.75,4.68-116.21,5.47-138.07,54.35-13.62,30.46,31.62,114.6,50.85,140.75,55.01,74.83,197.88,88.39,277.76,51.68,49.47-22.73,76.92-61.48,90.57-113.61,4.81-18.38,26.7-124.17,23.06-136.65h0ZM90.65,422c3.64-8.87,124.24.07,138.62,1.35,56.36,5,84.22,4.5,141.91,18.29,30.79,7.36,117.39,22.73,138.43,37.8,31.47,22.55-32.34,108.39-50.98,128.75-63.46,69.33-194.13,80.5-277,46.77-45.67-18.59-71.86-58.97-89.21-101.85-8.27-20.43-9.27-112.85-1.78-131.11h.01ZM87.96,403.23c-17.19,3.82-11.21,52.75-11.75,71.49-.7,24.36-.57,49.04,4.14,72.97,10.22,51.91,32.53,97.92,86.48,115.29,102.84,33.11,217.35,34.82,298.01-48.09,24.06-24.73,77.89-99.96,63.32-135.85-12.82-31.57-109.22-45.37-140.12-51.23-45.46-8.62-263.71-32.67-300.07-24.58h-.01ZM656.54,170.77c28.07,8.01,73.89-11.34,87.17-39.17,8.54-17.89-12.99-28.38-23.43-31.64-2.4-.75-47.25-13.28-48.96-13.41,6.44-4.79,45.88-3.02,54.54-.75,21.04,5.5,41.75,17.94,57.04,32.83,13.22,12.87,32.33,35.35,43.45,50.16,11.76,15.65,31.37,37.43,40.65,51.18,11.01,16.31,78.87,65.9,98.19,78.37,34.54,22.29,69.01,47.55,97.64,78.08-75.34,6.02-152.65,8.11-227.54,15.95-26.83,2.81-100.36,17.7-125.42,26.06-40.01,13.37-69.53,39.74-112.6,26.23-41.35-12.97-76.55-24.3-117.74-38.7-25.98-9.08-91.59-26.6-116.94-25.83-15.7.48-32.97-4.09-48-8.17-7.88-2.14-44.26-4.22-55.6-5.26-37.62-3.47-80.82-5.19-117.39-11.73,8.93-14.17,147.86-86.38,173.43-105.48,29.3-21.87,51.65-30.97,76.48-62.22,16.66-20.97,51.75-52.47,77.13-61.53,68.5-24.45,124.36,26.89,187.9,45.03h0ZM30.3,348.25c93.7-78.55,242.61-179.05,350.27-237.14,57.07-30.79,122.94-56.34,188.17-40.1,16.14,4.02,33,8.14,49.18,11.9,6.45,1.5,14.45-.44,19.19,2.28,9.65,5.56,9.2,4.53,20.16,6.72,17,3.39,33.22,9.77,50.01,14.03,15.84,4.02,40.63,8.57,21.11,27.06-53.62,50.8-131.2,1-191.37-19.6-74.87-25.63-120.74,30.35-168.49,80.97-46.41,49.19-111.35,71.21-170,106.12-14.17,8.44-74.34,49.63-82.87,51.92-5.14,1.38-81.3-1.77-85.37-4.16h.01ZM536,53.19c-19.44-5.36-44.06,3.25-42.94-14.58,1.25-19.96,12.4-26.2,31.53-28.19,35.96-3.75,166.64,6.05,199.9,17.37,11.05,3.76,15.17,7.49,24.55,13.45,7.94,5.04,15.88,4.42,24.41,8.65,14.64,7.27,31.99,20.9,47.09,28.9,14.08,7.47,38.57,16.89,49.22,28.11,24.31,25.62,66.55,46.91,104.71,80.4,15.14,13.29,62.72,62,76.11,66.89,9.72,3.55,31.33,25.65,35.67,35.31,4.47,9.96,18.36,14.8,28.8,23.96,9.82,8.62,14.33,17.16,24.72,27.66,13.19,13.33,26.18,21.54,38.38,33.95-20.76,3.53-35.97.85-56.57.83-42.86-.04-24.82,4.34-57.63-18.04-28.79-19.63-53.96-43.58-85.04-63.81-75.77-49.33-103.17-70.44-153.25-146.6-18.51-28.16-54.58-54.9-84.89-69.08-18.34-8.58-75.51.12-102.69-4.68-35.13-6.21-67.33-10.91-102.08-20.49h0ZM517.38.77c-59.2,2.07-16.66,25.64-42.66,52.79-9.42,9.83-67.08,27.76-91.46,44.13-59.57,40-127,70.7-187.78,112.52-49.55,34.1-128.24,85.46-170.13,125.7-59.29,56.96,2.58,139.23,13.58,198.34,33.99,182.74,122.65,199.01,290.91,189.62,75.75-4.23,122.86-29.58,176.38-82.4,29.94-29.54,36.04-53.39,57.5-77.36,18.15-20.27,54.38-27.57,75.21-7.12,12.75,12.52,31.1,61.64,48.97,85.26,25.2,33.31,36.9,51.92,75.21,72.75,59.44,32.32,146.28,37.3,211.22,20.88,75.72-19.14,121.71-58.34,153.66-128.54,14.21-31.21,20.45-64.9,34.35-92.9,15.99-32.21,39.67-53.83,38.95-92.65-.85-45.62-23.75-63.98-55.64-90.09-24.56-20.11-49.28-50.03-75.35-72.6-51.96-44.99-103.24-90.63-157.91-132.22-40.21-30.59-139.76-93.62-185.46-110.15C678.1-.9,570.52-1.09,517.38.77h0Z"/>
</svg>