<svg width="222" height="76" viewBox="0 0 222 76" fill="none" xmlns="http://www.w3.org/2000/svg">
<g clip-path="url(#clip0_172_822)">
<path d="M220.749 16.9352C218.479 15.6352 129.389 12.5752 129.389 12.5752C86.4393 15.5852 69.7493 14.1752 49.5593 14.8252C29.3593 15.4652 1.97934 13.9852 0.479341 17.1952C-1.02066 20.4152 4.20934 37.5452 10.3193 38.2152C12.9193 38.4952 17.8693 37.8152 25.1193 36.6052C24.9593 28.1152 25.9493 20.7852 28.3693 19.4852C33.9493 16.5052 85.1193 14.5252 88.4693 16.6152C89.5593 17.2952 90.0993 21.9452 90.2293 28.0852C102.999 27.7252 116.179 28.1852 128.779 28.8852C128.969 22.0852 129.589 16.8052 130.779 16.0952C134.159 14.0652 185.289 16.8852 190.819 19.9652C192.899 21.1252 193.819 26.7752 193.839 33.7752C204.379 35.1052 210.969 36.2152 212.909 35.5452C216.249 34.3952 223.009 18.2252 220.739 16.9252L220.749 16.9352Z" fill="#E03A24"/>
<path d="M129.389 12.5752C86.4393 15.5852 69.7493 14.1752 49.5593 14.8252C30.8693 15.4252 6.05934 14.2052 1.25934 16.5652C7.02934 20.9952 10.2793 27.9952 9.58934 36.1452C9.53934 36.7552 9.44934 37.3652 9.32934 37.9652C9.65934 38.0952 9.98934 38.1952 10.3293 38.2252C12.9293 38.5052 17.8793 37.8252 25.1293 36.6152C24.9693 28.1252 25.9593 20.7952 28.3793 19.4952C33.9593 16.5152 85.1293 14.5352 88.4793 16.6252C89.5693 17.3052 90.1093 21.9552 90.2393 28.0952C103.009 27.7352 116.189 28.1952 128.789 28.8952C128.979 22.0952 129.599 16.8152 130.789 16.1052C134.169 14.0752 185.299 16.8952 190.829 19.9752C192.909 21.1352 193.829 26.7852 193.849 33.7852C200.479 34.6252 205.559 35.3752 208.879 35.6452C208.789 34.3652 208.769 33.0552 208.879 31.7052C209.389 25.6652 213.189 20.0752 218.329 16.5652C203.799 15.1352 129.379 12.5752 129.379 12.5752H129.389Z" fill="#AF180C"/>
<path d="M201.469 9.46511C191.789 -0.884895 121.639 -2.1049 118.069 4.2751C114.499 10.6551 119.519 53.3051 122.339 63.8251C125.159 74.3451 160.779 75.8751 177.309 75.0251C193.839 74.1751 196.969 72.9651 201.439 60.1851C205.909 47.4051 206.409 14.7351 201.479 9.4551L201.469 9.46511ZM186.179 66.4951C179.059 69.7251 134.469 68.4051 131.519 62.9151C128.569 57.4151 127.399 18.1251 130.789 16.0951C134.169 14.0651 185.299 16.8851 190.829 19.9651C196.769 23.2651 193.289 63.2651 186.179 66.4951Z" fill="#E03A24"/>
<path d="M198.549 57.125C195.959 57.545 193.419 57.725 190.899 57.735C189.639 62.285 188.029 65.645 186.179 66.485C179.059 69.715 134.469 68.395 131.519 62.905C128.569 57.405 127.399 18.115 130.789 16.085C131.339 15.755 133.129 15.555 135.769 15.465C133.829 10.715 132.369 5.82504 131.479 0.915039C124.129 1.53504 118.979 2.65504 118.079 4.26504C114.509 10.645 119.529 53.295 122.349 63.815C125.169 74.335 160.789 75.865 177.319 75.015C193.849 74.165 196.979 72.955 201.449 60.175C201.849 59.025 202.219 57.715 202.559 56.285C201.249 56.615 199.919 56.895 198.569 57.115L198.549 57.125Z" fill="#CC1F12"/>
<path d="M101.379 5.01526C97.9194 -1.42474 27.7594 -1.37474 17.9094 8.81526C12.8894 14.0053 12.8494 46.6853 17.0994 59.5353C21.3594 72.3853 24.4594 73.6453 40.9794 74.7653C57.4994 75.8853 93.1394 74.9553 96.1294 64.4753C99.1194 54.0053 104.849 11.4453 101.379 5.00526V5.01526ZM86.9594 63.4153C83.9194 68.8653 39.3094 69.4353 32.2494 66.0953C25.1894 62.7453 22.3794 22.6953 28.3694 19.4953C33.9494 16.5153 85.1194 14.5353 88.4694 16.6253C91.8194 18.7053 89.9994 57.9753 86.9594 63.4253V63.4153Z" fill="#E03A24"/>
<path d="M88.8894 54.5753C88.3494 58.8153 87.6894 62.1053 86.9594 63.4153C83.9194 68.8653 39.3094 69.4353 32.2494 66.0953C25.1894 62.7453 22.3794 22.6953 28.3694 19.4953C29.2694 19.0153 31.3694 18.5553 34.2494 18.1453C33.4694 13.0653 33.2594 7.97531 33.6194 3.19531C26.0894 4.52531 20.2594 6.38531 17.8994 8.82531C12.8794 14.0153 12.8394 46.6953 17.0894 59.5453C21.3494 72.3953 24.4494 73.6553 40.9694 74.7753C57.4894 75.8953 93.1294 74.9653 96.1194 64.4853C97.0794 61.1353 98.3094 54.5153 99.4294 46.8353C96.3694 49.9553 92.7694 52.5853 88.8794 54.5753H88.8894Z" fill="#CC1F12"/>
<g opacity="0.25">
<path d="M28.3694 19.4954C22.3694 22.6954 25.1894 62.7454 32.2494 66.0954C39.3094 69.4454 83.9194 68.8654 86.9594 63.4154C89.9994 57.9654 91.8194 18.7054 88.4694 16.6154C85.1194 14.5354 33.9494 16.5054 28.3694 19.4854V19.4954Z" fill="#719DEA"/>
<path d="M190.829 19.9654C196.769 23.2654 193.289 63.2654 186.179 66.4954C179.059 69.7254 134.469 68.4054 131.519 62.9154C128.569 57.4154 127.399 18.1254 130.789 16.0954C134.169 14.0654 185.299 16.8854 190.829 19.9654Z" fill="#719DEA"/>
</g>
<g style="mix-blend-mode:screen">
<path opacity="0.57" d="M53.4093 16.4453C44.0793 16.9753 35.3793 17.7653 30.9493 18.7053C35.3593 34.8953 38.5993 51.3453 42.0293 67.7553C47.8993 68.1953 55.4293 68.2853 62.6493 67.9953C60.2693 50.7053 56.9693 33.5453 53.4093 16.4553V16.4453Z" fill="#26266D"/>
<path opacity="0.57" d="M62.6493 32.8755C64.8793 44.4255 66.8793 56.0255 68.4593 67.6655C71.9093 67.4155 75.1594 67.0755 77.9394 66.6255C75.1594 49.5355 71.8094 32.5655 67.1594 15.8755C64.5994 15.9455 61.9393 16.0355 59.2693 16.1555C60.4293 21.7255 61.5693 27.2955 62.6493 32.8755Z" fill="#26266D"/>
<path opacity="0.57" d="M164.949 29.4154C167.669 42.2954 170.089 55.2254 172.509 68.1654C174.919 68.0954 177.159 67.9754 179.119 67.8054C176.249 50.9154 173.029 34.0654 170.229 17.1654C170.209 17.0554 170.209 16.9554 170.189 16.8554C167.539 16.6354 164.789 16.4354 162.019 16.2554C163.029 20.6354 164.009 25.0254 164.939 29.4254L164.949 29.4154Z" fill="#26266D"/>
<path opacity="0.57" d="M155.989 15.8953C144.599 15.3053 134.159 15.1953 131.349 15.8953C135.969 32.6053 139.489 49.5653 142.559 66.6153C149.439 67.6453 158.459 68.1853 166.589 68.2253C163.319 50.7253 160.009 33.2353 155.989 15.8953Z" fill="#26266D"/>
</g>
</g>
<defs>
<clipPath id="clip0_172_822">
<rect width="220.99" height="74.86" fill="white" transform="translate(0.21936 0.365234)"/>
</clipPath>
</defs>
</svg>
