<svg width="153" height="154" viewBox="0 0 153 154" fill="none" xmlns="http://www.w3.org/2000/svg">
<path d="M73.8734 78.1652C73.8734 78.1652 39.5866 86.8189 33.2499 94.6937C29.4639 99.3996 25.4391 107.984 33.0041 117.176C38.9731 124.425 46.9167 121.391 46.9167 121.391C46.9167 121.391 48.381 134.625 63.5655 133.453C77.5753 132.372 79.5568 119.855 80.4305 113.466C81.5171 105.515 73.8768 78.1637 73.8768 78.1637L73.8734 78.1652Z" fill="#5C7B62" stroke="#1D1D1B" stroke-width="8" stroke-miterlimit="10"/>
<path d="M73.9005 77.3834C73.9005 77.3834 70.3451 53.9966 68.4958 47.1385C65.1921 34.8859 58.4995 31.4706 53.0625 29.2279C45.2295 25.9944 36.0387 30.4739 32.7107 34.5618C26.2282 42.5238 29.5058 46.4109 29.5058 46.4109C29.5058 46.4109 21.1464 44.6537 17.5566 60.8739C16.4321 65.9515 21.0607 75.5011 28.5503 78.6468C35.2074 81.445 47.4426 81.1314 53.6933 80.434C57.953 79.9603 73.9005 77.3834 73.9005 77.3834Z" fill="#5C7B62" stroke="#1D1D1B" stroke-width="8" stroke-miterlimit="10"/>
<path d="M75.2446 78.0287C75.2446 78.0287 111.779 68.725 121.239 73.6825C126.889 76.6437 134.433 83.3158 131.076 95.6847C128.428 105.442 119.492 105.96 119.492 105.96C119.492 105.96 123.738 119.62 108.623 125.158C94.6836 130.269 87.4317 118.829 83.8585 112.93C79.4167 105.59 75.2428 78.0337 75.2428 78.0337L75.2446 78.0287Z" fill="#5C7B62" stroke="#1D1D1B" stroke-width="8" stroke-miterlimit="10"/>
<path d="M75.6285 75.5538C75.6285 75.5538 70.3781 52.6711 70.0292 45.6261C69.4058 33.0447 74.7808 27.7747 79.3083 23.9933C85.8348 18.5455 96.051 19.9668 100.516 22.8112C109.211 28.3477 107.268 33.021 107.268 33.021C107.268 33.021 114.753 28.808 123.228 43.0264C125.88 47.4748 123.651 57.1466 118.173 63.1669C113.904 67.8619 100.789 71.2861 94.5671 72.5399C90.3247 73.3924 75.6319 75.5522 75.6319 75.5522L75.6285 75.5538Z" fill="#5C7B62" stroke="#1D1D1B" stroke-width="8" stroke-miterlimit="10"/>
</svg>
