<svg width="330" height="180" viewBox="0 0 330 180" fill="none" xmlns="http://www.w3.org/2000/svg">
<g clip-path="url(#clip0_320_1078)">
<path d="M326.421 112.22C308.486 107.694 311.217 96.8382 293.282 92.3128C275.347 87.7875 272.603 98.6317 254.668 94.0945C236.733 89.5691 239.465 78.713 221.53 74.1877C203.583 69.6623 200.851 80.5065 182.904 75.9693C164.957 71.4439 167.701 60.5878 149.754 56.0625" stroke="white" stroke-width="3" stroke-miterlimit="10"/>
<path d="M320.637 135.097C302.702 130.571 305.434 119.715 287.499 115.19C269.564 110.664 266.82 121.509 248.885 116.971C230.95 112.446 233.682 101.59 215.747 97.0646C197.8 92.5393 195.068 103.383 177.121 98.8463C159.174 94.3209 161.918 83.4648 143.971 78.9395" stroke="white" stroke-width="3" stroke-miterlimit="10"/>
<path d="M314.864 157.972C296.929 153.446 299.661 142.59 281.726 138.065C263.791 133.539 261.047 144.384 243.112 139.846C225.177 135.321 227.909 124.465 209.973 119.94C192.026 115.414 189.295 126.258 171.348 121.721C153.401 117.196 156.144 106.34 138.197 101.814" stroke="white" stroke-width="3" stroke-miterlimit="10"/>
<path d="M329.307 100.78C311.372 96.2548 314.104 85.3987 296.169 80.8733C278.234 76.348 275.49 87.1922 257.555 82.655C239.62 78.1296 242.352 67.2735 224.417 62.7482C206.47 58.2228 203.738 69.067 185.791 64.5298C167.844 60.0045 170.588 49.1484 152.641 44.623" stroke="white" stroke-width="3" stroke-miterlimit="10"/>
<path d="M323.536 123.657C305.601 119.132 308.333 108.276 290.397 103.75C272.462 99.225 269.719 110.069 251.784 105.532C233.848 101.007 236.58 90.1505 218.645 85.6252C200.698 81.0998 197.966 91.944 180.019 87.4068C162.072 82.8814 164.816 72.0253 146.869 67.5" stroke="white" stroke-width="3" stroke-miterlimit="10"/>
<path d="M317.751 146.532C299.816 142.007 302.547 131.151 284.612 126.625C266.677 122.1 263.934 132.944 245.998 128.407C228.063 123.882 230.795 113.026 212.86 108.5C194.913 103.975 192.181 114.819 174.234 110.282C156.287 105.756 159.031 94.9003 141.084 90.375" stroke="white" stroke-width="3" stroke-miterlimit="10"/>
<path d="M311.977 169.421C294.042 164.895 296.774 154.039 278.839 149.514C260.904 144.989 258.16 155.833 240.225 151.296C222.29 146.77 225.022 135.914 207.087 131.389C189.14 126.863 186.408 137.708 168.461 133.17C150.514 128.645 153.258 117.789 135.311 113.264" stroke="white" stroke-width="3" stroke-miterlimit="10"/>
<path d="M192.11 77.6083C174.175 73.0829 176.907 62.2268 158.972 57.7015C141.037 53.1761 138.293 64.0203 120.358 59.4831C102.423 54.9577 105.155 44.1017 87.2194 39.5763C69.2724 35.051 66.5406 45.8952 48.5936 41.358C30.6466 36.8326 33.3903 25.9765 15.4434 21.4512" stroke="white" stroke-width="3" stroke-miterlimit="10"/>
<path d="M186.339 100.483C168.404 95.9579 171.135 85.1018 153.2 80.5765C135.265 76.0511 132.521 86.8953 114.586 82.3581C96.6512 77.8327 99.3831 66.9766 81.4479 62.4513C63.501 57.926 60.7691 68.7702 42.8221 64.2329C24.8751 59.7076 27.6189 48.8515 9.67188 44.3262" stroke="white" stroke-width="3" stroke-miterlimit="10"/>
<path d="M180.554 123.36C162.618 118.835 165.35 107.979 147.415 103.453C129.48 98.9281 126.736 109.772 108.801 105.235C90.8661 100.71 93.5979 89.8536 75.6628 85.3283C57.7158 80.8029 54.984 91.6471 37.037 87.1099C19.09 82.5846 21.8337 71.7285 3.88672 67.2031" stroke="white" stroke-width="3" stroke-miterlimit="10"/>
<path d="M194.997 66.1571C177.062 61.6317 179.794 50.7757 161.859 46.2503C143.923 41.725 141.18 52.5692 123.245 48.032C105.309 43.5066 108.041 32.6505 90.1061 28.1252C72.1592 23.5998 69.4273 34.444 51.4803 29.9068C33.5334 25.3814 36.2771 14.5253 18.3301 10" stroke="white" stroke-width="3" stroke-miterlimit="10"/>
<path d="M189.223 89.0438C171.288 84.5185 174.02 73.6624 156.085 69.137C138.15 64.6117 135.406 75.4559 117.471 70.9186C99.536 66.3933 102.268 55.5372 84.3327 51.0118C66.3857 46.4865 63.6539 57.3307 45.7069 52.7935C27.7599 48.2681 30.5036 37.4121 12.5566 32.8867" stroke="white" stroke-width="3" stroke-miterlimit="10"/>
<path d="M183.438 111.921C165.503 107.395 168.235 96.5393 150.3 92.014C132.365 87.4886 129.621 98.3329 111.686 93.7956C93.7509 89.2703 96.4827 78.4142 78.5476 73.8888C60.6006 69.3635 57.8687 80.2077 39.9217 75.6705C21.9747 71.1451 24.7185 60.289 6.77148 55.7637" stroke="white" stroke-width="3" stroke-miterlimit="10"/>
<path d="M177.667 134.796C159.732 130.27 162.464 119.414 144.528 114.889C126.593 110.364 123.85 121.208 105.914 116.671C87.9793 112.145 90.7112 101.289 72.7761 96.7638C54.8291 92.2385 52.0973 103.083 34.1503 98.5455C16.2033 94.0201 18.947 83.164 1 78.6387" stroke="white" stroke-width="3" stroke-miterlimit="10"/>
<circle cx="165" cy="90" r="90" fill="white"/>
<path d="M234 89.5C234 51.1162 202.884 20 164.5 20C126.116 20 95 51.1162 95 89.5C95 127.884 126.116 159 164.5 159V165C122.803 165 89 131.197 89 89.5C89 47.8025 122.803 14 164.5 14C206.197 14 240 47.8025 240 89.5C240 131.197 206.197 165 164.5 165V159C202.884 159 234 127.884 234 89.5Z" fill="#EB7F19"/>
<path d="M207.305 89.5C207.305 65.8597 188.14 46.6953 164.5 46.6953C140.86 46.6953 121.695 65.8597 121.695 89.5C121.695 113.14 140.86 132.305 164.5 132.305V136C138.819 136 118 115.181 118 89.5C118 63.8188 138.819 43 164.5 43C190.181 43 211 63.8188 211 89.5C211 115.181 190.181 136 164.5 136V132.305C188.14 132.305 207.305 113.14 207.305 89.5Z" fill="#EB7F19"/>
<path d="M180.825 74.4068C179.843 74.8093 178.842 75.2401 177.824 75.696C177.948 76.2863 177.961 76.8448 176.968 77.113C176.832 77.3554 176.695 77.5981 176.559 77.8404C176.47 77.8955 176.401 77.9697 176.354 78.0633C176.797 79.0269 175.93 79.8011 176.089 80.7248C175.483 80.6581 175.108 80.4032 174.783 80.0587C174.561 79.4171 174.338 78.7753 174.116 78.1337L174.212 78.1107C174.095 77.9712 173.979 77.8317 173.862 77.6922C173.853 77.6952 173.844 77.6971 173.835 77.7003C173.745 77.6899 173.655 77.6778 173.564 77.6655C173.423 77.2809 173.854 76.8625 173.496 76.4906C173.285 76.0071 173.312 75.5706 173.734 75.2111C173.694 74.8546 173.654 74.4983 173.614 74.1419L173.773 74.0779C173.773 74.0779 173.773 74.0778 173.773 74.0779C173.456 73.6414 173.806 72.9226 173.161 72.6247C173.039 72.5995 172.916 72.5798 172.793 72.5653C172.101 71.7867 171.428 72.2739 170.753 72.5969C170.378 72.1013 170.35 71.6104 170.774 71.1256C170.729 70.9398 170.684 70.7543 170.639 70.5686C170.185 70.1891 169.732 69.8099 169.279 69.4306L158.189 61.0053C158.096 61.1237 158.013 61.2564 157.916 61.3694C157.934 61.5729 157.952 61.7766 157.97 61.9801C157.907 62.4483 157.731 62.8353 157.238 62.993C156.965 63.2813 156.693 63.5698 156.42 63.8583C156.243 63.8562 156.105 63.7801 155.997 63.6425C155.981 63.6129 155.96 63.5867 155.943 63.5583C155.662 63.6662 155.746 64.0363 155.634 64.265C155.537 64.227 155.441 64.187 155.346 64.1439C154.403 64.7988 154.579 65.9322 154.198 66.8268C153.783 67.7504 153.175 67.5295 152.533 67.1106C152.452 67.0352 152.386 66.948 152.336 66.8495C153.212 65.6626 154.089 64.4756 154.965 63.2886C155.094 63.0933 155.224 62.8979 155.353 62.7024C155.333 62.6657 155.309 62.6321 155.293 62.5934C155.241 62.2286 155.3 61.8877 155.509 61.5781C156.021 61.1227 156.394 61.6065 156.816 61.7564C156.236 61.0265 156.343 60.4138 156.648 59.8347L148.654 53.7617L141.594 60.4615L150.317 70.6158C150.446 70.0487 150.642 69.4925 150.672 68.9079C150.735 68.7208 150.862 68.5994 151.051 68.5429C151.518 68.8343 151.984 69.1254 152.451 69.4167C152.52 70.1413 154.063 70.4674 153.011 71.4947C152.936 71.5105 152.862 71.5262 152.792 71.5451C152.771 71.5481 152.755 71.5533 152.737 71.5575C152.658 71.7076 152.579 71.8581 152.5 72.0084C152.527 72.1683 152.56 72.3316 152.437 72.4326C152.308 72.5232 152.184 72.5949 152.067 72.6517L161.809 83.9925C161.406 84.2233 161.004 84.4552 160.602 84.688C160.722 84.7848 160.842 84.8818 160.962 84.9788C161.079 85.7012 160.726 86.1036 160.064 86.2954C159.575 86.4257 159.252 86.0795 158.876 85.8839C158.873 85.8886 158.872 85.8932 158.869 85.8982L158.859 85.8743C158.865 85.8771 158.871 85.881 158.876 85.8839C158.936 85.794 158.977 85.7064 159.006 85.6203C152.263 89.5844 145.777 93.7422 140.496 97.2501L137.237 94.7739C136.325 96.2306 135.102 97.4533 134.054 98.8076C133.864 99.0945 133.256 99.2777 133.819 99.7518C133.678 99.966 133.537 100.18 133.396 100.394L134.448 101.618L134.452 101.617L135.165 102.447L135.312 103.53L135.308 103.532L137.275 118.042L141.378 117.691L142.582 102.022C143.823 101.678 145.117 101.315 146.455 100.934C146.558 100.771 146.722 100.729 146.94 100.795C152.984 99.0667 159.868 96.9842 166.644 94.6911L170.824 125.523L180.522 124.694L182.331 101.129C182.111 101.184 181.891 101.24 181.67 101.295C181.38 101.546 181.136 101.345 180.884 101.217C181.128 100.752 181.136 100.398 180.583 100.101C179.437 99.4847 179.713 98.6611 180.341 97.8254C180.813 97.6718 181.296 97.3045 181.73 97.8954C182.15 98.367 182.275 98.8388 181.732 99.3123C181.732 99.3126 181.732 99.3131 181.732 99.3135C181.874 99.3175 181.983 99.3889 182.05 99.5415C182.169 99.6969 182.294 99.832 182.422 99.9514L183.31 88.3893C195.111 83.2802 203.196 77.824 199.923 73.1788C198.76 71.5289 196.705 70.8458 194.007 70.9057C194.175 71.2135 193.726 71.447 193.583 71.7181C193.377 71.5552 193.171 71.3923 192.965 71.2292C192.97 71.1458 192.967 71.0544 192.962 70.962C192.289 71.0194 191.582 71.1171 190.844 71.2512C191.06 71.4248 191.277 71.5985 191.493 71.7721C191.278 72.0772 191.064 72.3822 190.849 72.6873C190.182 72.3221 189.841 71.9041 190.264 71.3625C189.971 71.4221 189.673 71.4871 189.37 71.5577C189.407 71.6355 189.426 71.7595 189.396 71.8085C189.126 72.2506 188.761 72.1699 188.386 71.951L188.384 71.9429C188.422 71.8849 188.461 71.8271 188.501 71.7721C186.394 72.3174 184.096 73.1004 181.666 74.0673C181.686 74.4821 181.602 74.7899 180.825 74.4068ZM169.969 74.9408C170.202 74.2522 170.825 74.2874 171.373 74.1775C171.778 74.1598 172.163 74.2201 172.494 74.4797C172.646 74.6221 172.749 74.794 172.807 74.9936C172.914 75.7025 172.645 76.1883 171.954 76.421C171.857 76.4485 171.781 76.5048 171.727 76.5904C171.533 76.6285 171.328 76.6371 171.148 76.7101C170.432 77.0018 169.661 77.602 169.061 76.631C168.455 75.651 169.673 75.5144 169.969 74.9408ZM167.328 75.9851C167.467 75.8668 167.917 75.8773 168.03 76.0028C168.766 76.8205 167.739 77.0477 167.473 77.5374C167.477 77.54 167.48 77.5427 167.484 77.5452C167.484 77.5452 167.465 77.5509 167.465 77.5513C167.467 77.5467 167.471 77.5421 167.473 77.5374C166.757 77.0863 166.673 76.542 167.328 75.9851ZM141.752 101.454C141.71 101.275 141.669 101.096 141.627 100.916C141.926 100.462 142.294 100.413 142.725 100.728C142.515 101.124 142.285 101.493 141.752 101.454ZM149.828 93.9005C149.419 94.1389 149.048 93.8579 148.66 93.8145C148.672 93.7135 148.676 93.6123 148.674 93.511C149.136 93.2769 149.586 93.1535 149.971 93.6451C149.906 93.7205 149.858 93.8054 149.828 93.9005ZM175.136 111.014C175.136 111.014 175.136 111.014 175.136 111.014C175.477 111.909 175.169 112.828 175.233 113.734C175.179 114.022 175.125 114.311 175.071 114.6C174.937 115.051 174.671 115.268 174.187 115.103C174.144 114.806 174.083 114.509 174.026 114.212C174.003 114.247 173.984 114.282 173.958 114.317C173.814 114.442 173.65 114.52 173.461 114.545C173.334 114.475 173.207 114.405 173.08 114.336C171.873 113.031 171.428 111.639 172.052 109.825C172.353 108.953 172.009 107.858 171.958 106.864C171.87 106.773 171.784 106.681 171.699 106.587C172.011 105.645 172.32 104.698 173.525 105.781C173.711 106.156 173.897 106.532 174.084 106.907L174.13 106.777C174.799 108.11 175.259 109.492 175.136 111.014ZM181.58 105.213C181.318 105.348 181.066 105.332 180.873 105.105C180.705 104.907 180.55 104.608 180.811 104.45C180.975 104.351 181.328 104.435 181.523 104.555C181.752 104.696 181.795 104.972 181.58 105.213ZM167.705 86.8174C167.912 87.6933 167.238 88.1544 166.804 88.7277C165.864 87.5057 166.916 87.2237 167.705 86.8174ZM172.253 84.77C172.192 84.8769 172.139 84.9875 172.092 85.1015C170.814 85.1562 170.997 84.411 171.278 83.612C171.885 83.7605 172.151 84.1967 172.253 84.77ZM170.053 85.179C169.044 84.6347 169.17 84.1244 170.101 83.6381C170.78 84.1724 170.368 84.6742 170.053 85.179ZM171.893 79.6682C172.021 79.705 172.058 79.7606 172.038 79.8292C172.164 79.9684 172.353 80.1771 172.542 80.3858C172.319 80.7126 172.096 81.0397 171.873 81.3666C169.835 81.0699 171.923 80.2264 172.038 79.8292C171.963 79.746 171.91 79.6874 171.893 79.6682ZM185.907 76.743L185.919 76.6311C186.599 76.866 187.199 77.2016 187.525 77.8889C187.729 78.2737 187.933 78.6581 188.382 79.5055C187.354 78.7419 186.715 78.2679 186.077 77.7938C186.174 77.4186 185.242 77.2109 185.907 76.743Z" fill="#EB7F19"/>
<path d="M173.747 112.804C173.791 112.837 173.828 112.872 173.866 112.907C173.862 112.459 173.94 112.011 174.161 111.564C174.026 111.507 173.913 111.418 173.821 111.303C173.455 111.771 172.966 112.22 173.747 112.804Z" fill="#EB7F19"/>
<path d="M132.347 96.9338C132.786 96.2015 133.337 95.5467 133.806 94.8347C134.157 94.1959 134.521 93.5697 135.005 93.08L127.894 87.6777L124.906 90.5128L131.851 98.5969C131.898 98.4456 131.935 98.288 131.96 98.1216C132.023 97.7036 132.145 97.3061 132.347 96.9338Z" fill="#EB7F19"/>
<path d="M147.616 38.6248L147.044 37.7754C146.839 38.0502 146.602 38.3061 146.34 38.5458L147.616 38.6248Z" fill="#EB7F19"/>
<path d="M115.836 114.932L118.919 114.137L116.712 112.408C116.754 113.272 116.366 114.11 115.851 114.912C115.847 114.919 115.841 114.925 115.836 114.932Z" fill="#EB7F19"/>
<path d="M216.423 130.485L217.083 125.834L221.288 123.741L217.069 121.677L216.378 117.031L213.111 120.405L208.479 119.627L210.678 123.777L208.506 127.942L213.133 127.132L216.423 130.485Z" fill="#EB7F19"/>
<path d="M226.002 98.1731L230.528 99.4316L228.774 95.0741L231.369 91.1592L226.683 91.4806L223.762 87.8027L222.619 92.3587L218.219 94.0007L222.199 96.4948L222.4 101.188L226.002 98.1731Z" fill="#EB7F19"/>
<path d="M171.408 28.9611C171.514 30.0889 170.53 30.3605 169.885 30.8978C169.69 31.1816 169.481 31.412 169.256 31.5781L170.852 35.857C170.905 35.7348 170.968 35.6165 171.044 35.5036C171.158 35.3471 171.29 35.2061 171.434 35.0766L173.381 31.9697L174.116 31.9381C174.248 31.8442 174.413 31.81 174.628 31.8709C175.133 31.1768 175.541 31.4015 175.923 31.8604L178.074 31.7681L175.06 28.166L176.318 23.6406L172.269 25.27C172.267 25.5032 172.246 25.7381 172.2 25.9757C172.474 27.1134 171.479 27.9153 171.408 28.9611Z" fill="#EB7F19"/>
<path d="M193.471 139.934C193.481 139.685 193.491 139.436 193.501 139.186L190.853 139.942L187.231 136.951L187.061 141.645L183.098 144.166L187.509 145.779L188.682 150.327L191.579 146.629L195.561 146.876C195.256 146.614 195.39 146.117 195.434 145.681L193.646 143.022L194.97 139.667C194.876 139.788 194.778 139.907 194.677 140.023C194.238 140.526 193.823 140.633 193.471 139.934ZM190.452 145.286C189.916 146.892 189.916 146.892 189.217 146.363C189.805 145.617 189.729 144.501 190.589 143.908C190.544 144.368 190.498 144.827 190.452 145.286ZM190.628 142.352C190.317 142.308 190.005 142.265 189.694 142.222C189.621 142.028 189.549 141.834 189.476 141.641C189.461 141.615 189.449 141.584 189.441 141.546C189.453 141.578 189.465 141.609 189.476 141.641C189.731 142.068 190.974 141.039 190.628 142.352Z" fill="#EB7F19"/>
<path d="M159.947 143.505L156.032 140.91L156.353 145.596L154.045 147.429C155.905 147.146 157.719 146.698 159.507 146.052C161.21 145.437 162.066 146.182 162.479 148.286C162.457 148.41 162.43 148.533 162.399 148.656C162.33 149.389 161.86 149.726 161.199 149.875C160.881 149.925 160.561 149.965 160.241 149.999C159.54 150.441 158.906 151.03 157.988 150.998C157.91 151.02 157.832 151.04 157.753 151.059L158.873 154.06L161.367 150.08L166.06 149.878L163.046 146.276L164.304 141.751L159.947 143.505Z" fill="#EB7F19"/>
<path d="M108.013 108.809C108.264 108.709 108.515 108.608 108.767 108.508C109.061 108.518 109.294 108.449 109.492 108.336L107.246 107.449L107.68 108.97C107.788 108.912 107.898 108.857 108.013 108.809Z" fill="#EB7F19"/>
<path d="M108.558 115.696L110.238 115.757L112.759 119.72L113.805 116.858C113.618 116.824 113.425 116.754 113.238 116.674C112.431 116.329 111.777 115.824 112.539 114.834C112.755 114.38 113.121 113.482 113.516 113.953C114.72 115.392 114.38 113.457 114.911 113.488C114.307 113.287 113.585 114.357 113.17 113.214C113.228 112.447 113.009 111.548 114.095 111.27C114.498 111.204 114.86 110.959 115.248 110.826L115.512 106.551L114.977 106.911C114.889 107.014 114.802 107.118 114.715 107.221C114.64 107.337 114.565 107.453 114.49 107.569C114.058 108.094 113.626 108.62 113.194 109.145C112.98 109.491 112.767 109.836 112.553 110.181C112.476 110.748 112.315 111.278 111.897 111.697C111.682 111.722 111.478 111.685 111.284 111.586C110.804 111.206 110.766 110.776 111.051 110.308C110.934 110.255 110.841 110.167 110.771 110.05C110.722 110.417 110.54 110.673 110.185 110.784C110.165 110.835 110.142 110.884 110.113 110.929C110.141 111.089 110.169 111.249 110.197 111.409C110.11 111.513 110.023 111.618 109.936 111.723C109.633 112.018 109.441 112.47 108.913 112.445C109.065 112.031 109.012 111.548 109.231 111.157C109.2 111.148 109.169 111.141 109.137 111.13C108.813 111 108.497 110.87 108.28 111.071L108.535 111.964L105.545 115.586L106.616 115.625C106.71 114.818 107.223 114.191 108.22 113.769C109.131 114.096 108.766 114.763 108.644 115.366C108.615 115.476 108.586 115.586 108.558 115.696Z" fill="#EB7F19"/>
<path d="M196.434 37.4144C196.141 39.1948 197.307 38.9078 198.526 38.5779C198.963 39.2785 200.008 39.982 199.278 40.8112C198.781 41.3759 198.001 41.7287 197.24 41.3613L196.513 45.6882L200.663 43.4885L204.828 45.6604L204.018 41.0336L207.371 37.7437L202.72 37.084L200.627 32.8789L198.563 37.0978L196.434 37.4144Z" fill="#EB7F19"/>
<path d="M112.416 87.418L110.663 83.0606L113.258 79.1455L108.572 79.4669L105.651 75.7891L105.073 78.0942C105.577 78.8845 106.019 79.7157 106.348 80.6199C106.538 81.1422 106.674 81.5512 105.889 81.556C105.496 80.8842 105.103 80.2122 104.71 79.5402L104.508 80.3452L100.107 81.987L104.087 84.4814L104.289 89.1742L107.891 86.1597L112.416 87.418Z" fill="#EB7F19"/>
<path d="M138.581 28.6582L138.411 33.3523L134.447 35.8732L138.859 37.4856L140.032 42.0338L142.929 38.3362L144.909 38.4587C145.198 37.6817 145.519 36.9215 146.021 36.2545L144.995 34.7288L146.72 30.3596L142.203 31.6485L138.581 28.6582ZM140.218 35.939C140.147 36.1597 139.946 36.1982 139.754 36.0167C139.629 35.8055 139.388 35.5825 139.642 35.3507C139.73 35.2705 140.053 35.3046 140.139 35.4013C140.242 35.5184 140.27 35.7778 140.218 35.939Z" fill="#EB7F19"/>
<path d="M131.17 129.158L129.105 133.377L124.459 134.068L127.834 137.336L127.055 141.968L131.205 139.768L135.37 141.94L134.56 137.313L137.913 134.023L133.263 133.364L131.17 129.158Z" fill="#EB7F19"/>
<path d="M102.432 49.4941C102.356 49.6177 102.285 49.7561 102.219 49.9092C102.443 49.8101 102.469 49.6632 102.432 49.4941Z" fill="#EB7F19"/>
<path d="M227.213 65.4849L223.516 62.5883L223.521 62.5076C223.218 62.4446 222.914 62.3821 222.611 62.3194L222.552 62.2787C222.335 61.2083 223.014 61.2493 223.602 61.1878L223.806 57.9004L219.908 60.5218L215.539 58.7973L216.828 63.3141L216.688 63.4832C217.571 63.2745 218.454 63.0668 219.069 61.9439C219.551 61.0648 220.224 62.4462 220.627 63.0686C219.974 64.3923 218.886 64.9386 217.447 64.8553C217.268 64.783 217.088 64.6239 216.908 64.5889C216.865 64.5896 216.822 64.5903 216.779 64.5909C216.676 64.6134 216.573 64.6887 216.47 64.8731C216.239 64.9592 216.026 64.9294 215.822 64.8304C215.802 64.8512 215.78 64.8703 215.759 64.8914C215.616 64.9803 215.473 65.0609 215.333 65.1255L213.838 66.9366L218.532 67.1067L221.053 71.07L222.665 66.6583L227.213 65.4849Z" fill="#EB7F19"/>
<path d="M112.199 50.1663L113.446 52.518C113.89 52.8208 114.291 53.1809 114.629 53.6241C114.744 53.6887 114.859 53.7531 114.974 53.8175C116.005 54.2447 116.953 54.7784 117.513 55.8067L117.472 55.751C117.528 55.884 117.535 56.0117 117.495 56.1345C117.979 56.5071 118.463 56.8797 118.948 57.2523C119.019 57.036 119.15 57.0026 119.332 57.1273C119.852 57.2261 120.244 57.499 120.598 57.8237L120.804 56.3739L125.009 54.281L120.79 52.2163L120.099 47.5703L116.831 50.9449L112.199 50.1663Z" fill="#EB7F19"/>
<path d="M167.434 31.0952C167.453 30.8578 167.472 30.6205 167.491 30.3832C167.472 30.3681 167.454 30.3521 167.435 30.3384C167.412 30.2506 167.39 30.162 167.368 30.0735C167.399 29.4501 167.431 28.8265 167.462 28.2031L164.688 30.4067L167.434 31.0952Z" fill="#EB7F19"/>
<path d="M113.437 57.248C113.22 57.2875 113.029 57.2918 112.859 57.2694L112.227 58.4834L114.181 58.1413C113.877 57.9173 113.64 57.6038 113.437 57.248Z" fill="#EB7F19"/>
<path d="M120.143 61.025L120.185 60.7303C120.134 60.6907 120.083 60.6509 120.032 60.6113C119.933 60.6201 119.838 60.6209 119.744 60.6179L120.143 61.025Z" fill="#EB7F19"/>
<path d="M108.833 41.7028C108.846 41.6704 108.85 41.6379 108.851 41.6055C108.837 41.6414 108.83 41.6745 108.833 41.7028Z" fill="#EB7F19"/>
</g>
<defs>
<clipPath id="clip0_320_1078">
<rect width="330" height="180" fill="white"/>
</clipPath>
</defs>
</svg>
