<svg width="159" height="32" viewBox="0 0 159 32" fill="none" xmlns="http://www.w3.org/2000/svg">
<g clip-path="url(#clip0_274_3)">
<path fill-rule="evenodd" clip-rule="evenodd" d="M158.045 11.9615H152.939V6.61748H149.09V11.9615H148.862C147.261 11.9615 146.08 13.0845 146.08 14.7115V15.5245H149.09V26.2525C149.09 29.6215 150.957 31.4805 154.349 31.4805H158.045V27.9175H154.882C153.625 27.9175 152.939 27.2205 152.939 25.9425V15.5245H154.92C156.102 15.5245 156.826 15.2145 157.359 14.6345C157.779 14.1695 158.045 13.5105 158.045 12.7365V11.9615ZM136.21 19.7455C134.724 19.6685 133.885 18.8155 133.885 17.5385C133.885 15.9505 135.334 14.9045 137.658 14.9045C139.716 14.9045 141.202 15.9505 141.469 17.4995H145.28C145.013 13.8595 142.002 11.4965 137.658 11.4965C133.124 11.4965 130.151 13.9365 130.151 17.6935C130.151 21.0635 132.209 23.0375 135.791 23.2705L139.525 23.5025C141.24 23.6185 142.079 24.4325 142.079 25.7875C142.079 27.4145 140.592 28.5375 138.077 28.5375C135.639 28.5375 133.885 27.3375 133.619 25.6325H129.77C130.037 29.4665 133.352 31.9455 138.154 31.9455C142.841 31.9455 145.813 29.4665 145.813 25.6325C145.813 22.2245 143.717 20.2105 139.945 19.9785L136.21 19.7455ZM114.794 20.6365C114.375 21.0625 114.108 21.6435 113.994 22.3025V21.7215C113.994 17.7315 116.242 14.9815 119.443 14.9815C122.072 14.9815 123.94 16.8025 124.473 19.7075H117.461C116.128 19.7075 115.327 20.0545 114.794 20.6365ZM128.436 21.9535C128.436 15.7565 125.35 11.4965 119.443 11.4965C113.955 11.4965 110.183 15.6405 110.183 21.7215C110.183 27.6465 113.879 31.9455 119.71 31.9455C124.206 31.9455 127.522 29.4665 128.169 25.6325H124.397C123.825 27.3755 121.92 28.4595 119.748 28.4595C116.356 28.4595 114.451 26.1745 114.07 22.9605H128.436V21.9535ZM101.647 27.3755L96.6166 11.9615H92.4626L99.1316 31.4805H103.971L110.64 11.9615H106.677L101.647 27.3755ZM87.6986 11.9605C86.0596 11.9605 85.3746 12.2315 84.8406 12.6965C84.2144 13.2977 83.8 14.0858 83.6596 14.9425V11.9605H79.8096V31.4805H83.6586V15.7955H87.8886C89.6036 15.7955 90.3656 15.4085 90.8986 14.8275C91.3186 14.3245 91.5846 13.6655 91.5846 12.9295V11.9615H87.6996L87.6986 11.9605ZM67.8066 28.6145C65.6346 28.6145 64.2626 27.4915 64.2626 25.7105C64.2626 23.9675 65.5966 22.8445 67.7306 22.8445H72.8756V25.7105C71.6176 27.6075 69.9786 28.6145 67.8066 28.6145ZM69.1026 11.4965C64.3016 11.4965 61.0996 14.2075 60.9096 18.3515H64.7196C64.9496 16.2995 66.6256 14.9815 68.9496 14.9815C71.3506 14.9815 72.8756 16.4545 72.8756 18.7385V22.1855C72.2656 20.6755 70.2456 19.6685 67.6926 19.6685C63.3106 19.6685 60.4526 22.1475 60.4526 25.9815C60.4526 29.4285 62.7766 31.8675 66.7396 31.8675C69.6366 31.8675 71.8846 30.6285 72.9136 28.2275V31.4805H76.6856V18.3125C76.6856 14.1695 73.7136 11.4965 69.1026 11.4965ZM51.6886 11.4965C48.6786 11.4965 46.4676 12.8525 45.5146 15.2145V4.44848H41.6656V31.4805H45.5156V16.0665C47.0386 15.4465 48.4106 15.1765 49.7456 15.1765C52.7556 15.1765 54.3176 16.4925 54.3176 19.2035V31.4805H58.1666V18.2745C58.1666 13.8975 55.7286 11.4965 51.6886 11.4965ZM13.5056 19.7845V31.4805H11.5616V13.8975C11.5616 12.8135 12.4386 11.9615 13.5056 11.9615H19.2596V17.8095C19.2596 18.8935 18.4216 19.7845 17.3546 19.7845H13.5056ZM30.8436 0.188477V29.5055C30.8436 30.5895 29.9676 31.4805 28.9006 31.4805H26.9956V2.12448C26.9956 1.04048 27.8336 0.188477 28.9006 0.188477H30.8436ZM23.1466 0.188477H25.0516V29.5055C25.0516 30.5895 24.1756 31.4805 23.1466 31.4805H21.2026V9.94748C21.2026 8.86348 22.0796 8.01148 23.1466 8.01148V0.188477ZM7.71263 31.4805H5.80763V2.12448C5.80763 1.04048 6.64562 0.188477 7.71263 0.188477H9.65662V21.6825C9.65662 22.7665 8.77963 23.6575 7.71263 23.6575V31.4805ZM0.015625 31.4805V2.12448C0.015625 1.04048 0.891625 0.188477 1.95862 0.188477H3.86462V29.5055C3.86462 30.5895 3.02562 31.4805 1.95862 31.4805H0.015625Z" fill="#FA5D00"/>
</g>
<defs>
<clipPath id="clip0_274_3">
<rect width="159" height="32" fill="white"/>
</clipPath>
</defs>
</svg>
