<svg width="792" height="109" viewBox="0 0 792 109" fill="none" xmlns="http://www.w3.org/2000/svg">
<g clip-path="url(#clip0_35_2)">
<path d="M78.4002 4.5H52.2002V30.6L78.4002 56.7L52.2002 82.9V109H78.4002L104.5 82.9V30.6L78.4002 4.5Z" fill="black"/>
<path d="M39.2 17.5L26.1 4.5H0V30.6L13 43.7L26.1 56.7L52.2 30.6L39.2 17.5Z" fill="black"/>
<path d="M13 69.8L0 82.9V109H26.1L39.2 95.9L52.2 82.9L26.1 56.7L13 69.8Z" fill="black"/>
<path d="M714.8 0H698.7V16.1H714.8V0Z" fill="black"/>
<path d="M176.9 36.4C184.1 36.4 190.2 40.7 192 47.7H208C206.2 32.7 192.9 22.8 177.1 22.8C158.8 22.8 143.6 36.5 143.6 56.5C143.6 77.4 158.3 90.8 176.9 90.8C192.1 90.8 205.7 81.5 208.1 65.8H192.1C190.1 73.2 184.1 77.2 177 77.2C167.3 77.2 160.2 68.5 160.2 56.5C160.1 44.7 167 36.4 176.9 36.4Z" fill="black"/>
<path d="M256.3 60.3C256.3 71.7 249.9 77 243 77C235.3 77 230.3 71.8 230.3 62.6V24.3H214.1V65.1C214.1 82.1 223.9 90.7 237.7 90.7C245.9 90.7 252.5 87.7 256.7 81.7V89.4H272.4V24.3H256.3V60.3Z" fill="black"/>
<path d="M683.6 72.5H665.9V89.5H683.6V72.5Z" fill="black"/>
<path d="M413.2 22.8C394.4 22.8 378.9 36 378.9 56.5C378.9 77.6 394.1 90.8 413.2 90.8C432 90.8 447.4 77.4 447.4 56.5C447.4 35.8 432.2 22.8 413.2 22.8ZM413.2 77.2C402.6 77.2 395.5 68.8 395.5 56.5C395.5 44.6 402.5 36.4 413.2 36.4C423.6 36.4 430.8 44.7 430.8 56.5C430.8 69 423.6 77.2 413.2 77.2Z" fill="black"/>
<path d="M530.6 22.8C521.6 22.8 513.8 26.6 509.4 33.6C505.3 26.1 497.6 22.8 489.9 22.8C481.4 22.8 474.7 26.1 470.8 32V24.3H455V89.4H471.1V53.2C471.1 42.1 477.5 36.6 484.4 36.6C491.3 36.6 496.6 41.2 496.6 50.7V89.4H512.7V53.2C512.7 42.3 519.1 36.6 526 36.6C532.9 36.6 538.2 41.2 538.2 50.7V89.4H554.4V48.1C554.4 29.8 543.2 22.8 530.6 22.8Z" fill="black"/>
<path d="M594.5 22.8C577.2 22.8 561.2 35.7 561.2 56.3C561.2 77.9 576.7 90.7 595.1 90.7C608.5 90.7 622.5 84.5 626.5 70.2H610.7C607.7 76 601.7 78 595.6 78C586.3 78 578.8 71.6 577.5 61.3H627.1V57.8C627.2 34.8 612.1 22.8 594.5 22.8ZM577.4 50C578.5 40.8 585.7 35.4 594.2 35.4C603.2 35.4 609.8 41.2 610.5 50H577.4Z" fill="black"/>
<path d="M673.4 39.4V24.2C672.3 23.9 670.6 23.8 668.9 23.8C663.2 23.8 659.6 25.1 655.7 28.1C653.6 29.9 651.9 32 650.5 34.3V24.4H634.8V89.5H650.9V54.4C650.9 41.7 659.9 39.2 667 39.2C668.8 39.2 670.3 39.2 673.4 39.4Z" fill="black"/>
<path d="M714.8 24.3H698.7V89.4H714.8V24.3Z" fill="black"/>
<path d="M756.9 22.8C738.1 22.8 722.6 36 722.6 56.5C722.6 77.6 737.8 90.8 756.9 90.8C775.7 90.8 791.1 77.4 791.1 56.5C791.1 35.8 775.9 22.8 756.9 22.8ZM756.9 77.2C746.3 77.2 739.2 68.8 739.2 56.5C739.2 44.6 746.2 36.4 756.9 36.4C767.3 36.4 774.5 44.7 774.5 56.5C774.5 69 767.3 77.2 756.9 77.2Z" fill="black"/>
<path d="M362.6 68.1V37.3H377.7V24.3H362.6V4.5H346.7V16.5L354.6 24.4H335.8V37.4H346.7V69.9C346.7 74.6 348.1 95.7 377.9 90V76.5C369.4 79 362.6 76.5 362.6 68.1Z" fill="black"/>
<path d="M313.2 50.2L304.7 48.3C302.2 47.8 300.2 47.1 298.6 46.1C297 45.1 296.2 43.7 296.2 41.9C296.2 38.8 299.4 35.5 305.7 35.5C309.6 35.5 316.5 37 317.4 43.8H333C332.3 40.1 329.1 22.7 306 22.7C298.3 22.7 292.3 24.6 287.8 28.5C283.3 32.3 281.1 37.2 281.1 43.1C281.1 47.1 282.1 50.3 284.1 52.8C286.1 55.3 288.6 57.3 291.8 58.7C294.9 60.1 298.3 61.2 302 62L311 63.9C313.6 64.5 315.8 65.2 317 66.4C320.3 69.7 318.6 77.6 307.7 77.6C296.1 77.6 294.4 69.2 294.2 66.8H278.6C278.6 71.7 282.4 90.9 308.4 90.9C313.9 90.9 318.5 90 322.3 88.1C326.1 86.2 329.1 83.7 331.1 80.5C333.1 77.3 334.1 73.8 334.1 69.9C334.2 58.8 327.2 53.1 313.2 50.2Z" fill="black"/>
</g>
<defs>
<clipPath id="clip0_35_2">
<rect width="791.1" height="109" fill="white"/>
</clipPath>
</defs>
</svg>
