<?xml version="1.0" encoding="UTF-8"?>
<svg id="Layer_1" xmlns="http://www.w3.org/2000/svg" xmlns:xlink="http://www.w3.org/1999/xlink" version="1.1" viewBox="0 0 1920 323.72">
  <!-- Generator: Adobe Illustrator 29.8.3, SVG Export Plug-In . SVG Version: 2.1.1 Build 3)  -->
  <defs>
    <style>
      .st0 {
        fill: none;
      }

      .st1 {
        fill: #748349;
      }

      .st2 {
        fill: #396475;
      }

      .st3 {
        fill: #f3f2de;
      }

      .st4 {
        clip-path: url(#clippath-1);
      }

      .st5 {
        fill: #27441d;
      }

      .st6 {
        fill: #75a5ba;
      }

      .st7 {
        fill: #d5dc7e;
      }

      .st8 {
        fill: #aa5e88;
      }

      .st9 {
        fill: #b4ccbf;
      }

      .st10 {
        clip-path: url(#clippath);
      }
    </style>
    <clipPath id="clippath">
      <path class="st0" d="M1077.84,136.47c-.2.5-.5.9-.7,1.3-.2.2-.2.5-.2.8,0,1.2.2,2.4.5,3.6.5.3.9.6,1.4,1,.1.3.3.6.4.9.3,1.3,1.1,2.5,2.3,3.6,1,1,1.6,2.1,2,3.2.2.5.2,1,0,1.6-.2,1,0,2-.6,3-1,.7-2.3.4-3.5.2-1-.5-2.1-.9-2.9-1.5-.7-.6-1.4-1.1-2.4-1.7,0-.9-1.1-1.4-1.6-2.1-2-3-4.1-5.9-6.1-8.8-.8-1.2-1.8-2.4-2.7-3.6,4.5-1,9.3-1.2,14-1.6l.1.1Z"/>
    </clipPath>
    <clipPath id="clippath-1">
      <path class="st0" d="M0,0v189.07c10.03.54,19.94.89,31.46,1.01,27.38.29,45.41-1.08,74.01-1.37,24.98-.26,69.03-.08,98.74-.54,40.92-.63,77.64-1.93,121.03-.83,17.05.44,31.93,1.18,44.85,1.84,13.08.67,23.75,1.22,33.07,1.35,16.73.23,53.31,1.37,100.03,1.28,27.2-.05,42.48-3.25,72.06-5.47,21.12-1.58,41.71-1.51,89.89.95,6.83.35,16.56,1.03,28.75,1.83,12.36.81,27.7,1.77,46.29,2.72,26.7,1.36,40.06.79,85.33,1.07,41.43.25,121.49.09,164.43-.09,61.33-.26,97.09-5.27,116.12-6.83,10.37-.85,28.51-1.54,55.54-2.87,37.73-1.86,71.26.46,91.1,1.83,13.56.93,45.26.92,89.9,1.95,32.62.75,54.43,1.56,77.22,2.47,13.08.53,39.9,2.63,71.96,4.57,21.35,1.3,36.6,2.54,52.11,2.98,11.44.32,45.24,1.18,91.99,1.63,22.95.22,52.7,1,100.29.55,32.66-.31,54.4-1.14,71.45-1.97,16.78-.82,30.17-1.71,44.7-2.04,18.19-.42,39.61-1.1,67.67-1.41v30.2h.01V0H0Z"/>
    </clipPath>
  </defs>
  <path class="st9" d="M0,0v189.07c10.03.54,19.94.89,31.46,1.01,27.38.29,45.41-1.08,74.01-1.37,24.98-.26,69.03-.08,98.74-.54,40.92-.63,77.64-1.93,121.03-.83,17.05.44,31.93,1.18,44.85,1.84,13.08.67,23.75,1.22,33.07,1.35,16.73.23,53.31,1.37,100.03,1.28,27.2-.05,42.48-3.25,72.06-5.47,21.12-1.58,41.71-1.51,89.89.95,6.83.35,16.56,1.03,28.75,1.83,12.36.81,27.7,1.77,46.29,2.72,26.7,1.36,40.06.79,85.33,1.07,41.43.25,121.49.09,164.43-.09,61.33-.26,97.09-5.27,116.12-6.83,10.37-.85,28.51-1.54,55.54-2.87,37.73-1.86,71.26.46,91.1,1.83,13.56.93,45.26.92,89.9,1.95,32.62.75,54.43,1.56,77.22,2.47,13.08.53,39.9,2.63,71.96,4.57,21.35,1.3,36.6,2.54,52.11,2.98,11.44.32,45.24,1.18,91.99,1.63,22.95.22,52.7,1,100.29.55,32.66-.31,54.4-1.14,71.45-1.97,16.78-.82,30.17-1.71,44.7-2.04,18.19-.42,39.61-1.1,67.67-1.41v30.2h.01V0H0Z"/>
  <g>
    <g>
      <path class="st3" d="M1048.34,251.27c-.5,0-.7.1-1,.2-1.7.4-3.5.6-5.3.6h-4.1c-1,0-2-.2-3-.4-.6-.1-1.2-.4-1.7-.7-.6-.4-1.2-.9-2-1.1-.4-.1-.7-.4-1-.7-.6-.7-1.1-1.4-1.6-2.1-.3-.4-.4-.9-.3-1.3.2-.6.8-.8,1.2-1.2h.4c1.2.2,2.3.2,3.5,0,1.5-.2,3-.2,4.5,0s3,0,4.5.2c.4,0,.8-.1,1.2-.2,2-.4,4.1-.8,6.1-1.2.8-.1,1.4-.5,2.1-.8,1.6-.8,3.2-1.5,4.8-2.3.2-.1.5,0,.7,0,.4.3.4.6.4,1-.2,1-.7,2-1.5,2.7-1,1-1.7,2.2-2.5,3.3-.7,1-1.5,1.9-2.7,2.4-.9.3-1.8.9-2.6,1.7l-.1-.1ZM1052.94,245.37c-.8.7-1.8.6-2.7.9-1.4.4-2.9.4-4.1,1.2-.2.1-.4.1-.6.2-1.2.2-2.4.7-3.6.7s-2.4,0-3.7.1c-1.4,0-2.7-.2-4,.2-.7-.2-1.3-.4-1.8-.6-.7-.4-1-1.1-1.4-1.5-.4,0-.7,0-1,.5.8.4,1.2,1.5,2.1,1.8,1.1.4,2,1.2,2.8,1.6,2.8.6,5.4.2,8,.3,2.3-.5,4.7-.5,6.6-2,.2-.1.4-.2.5-.3,1-.2,1.6-1,2.4-1.6.3-.3.7-.7.4-1.4l.1-.1ZM1037.44,245.97c-.3.2-.5.4-.3.8.8-.1,1.6-.2,2.3-.7-.7,0-1.4,0-2-.1ZM1033.24,246.57c1,.27,1.8.2,2.4-.2-1.07-.13-1.87-.07-2.4.2Z"/>
      <path class="st3" d="M1014.34,262.37c0-1-.6-2,0-3,.7-.4,1.3,0,2,0,1.4.9,2.7,1.9,4.3,2.4.4,0,.6.5,1.1.9,1.6.2,3.2.5,4.9.7,1.9-.4,3.8.3,5.9.4,1.2-.6,2.5-1,3.9-1.4.5.2.8.6,1,1,0,.1,0,.3-.2.3-.3.3-.8.6-1,1-.9,1.5-2.3,2.4-3.7,3.2-1.7,1-3.6,1.5-5.7,1.3-.3,0-.6-.1-.8,0-1.8.6-3.1-.6-4.7-1-2.8-.7-4.5-2.6-6.1-4.9-.2-.3-.5-.7-.7-1l-.2.1ZM1033.54,265.37c-1.3,0-2.1.3-2.9.4-1.8.4-3.6.7-5.5.3-1-.2-2-.3-3.1-.5-.8-.1-1.6-.2-2.3-.7-.3-.2-.7-.4-1.1,0,.6.7,1.4,1.1,2,1.6,1.3.3,2.5.3,3.6,1,2.6.6,5,.2,7.5-.6.7-.3,1.3-.7,1.9-1.7l-.1.2Z"/>
      <path class="st3" d="M1014.24,226.27c.5.2,1,.3,1.3.6.6.5,1.3.4,1.9.8,1.5-.1,2.7.7,4.2.9l.1.2c.1.5-.7.5-.6,1,.5.7,1.3.6,2,.9,1.2.5,2.4.6,3.6.5h.4c2.1,0,4.1-.5,6-1.2.8-.3,1.5-.5,2.3-.9.8-.3,1.4-.8,2.2-1.1.3,0,.5-.4.8-.6.2-.2.5-.1.8,0,.3.2.4.6.3.9,0,.6-.5,1.1-.4,1.6-1.8,2.7-4.2,4.4-6.9,5.7-1.1.5-2.3.7-3.5.9-.9.1-1.8,0-2.6.4-1-.1-2-.2-3-.3-.7-.1-1.5-.4-2.2-.6-2.6-.7-4.4-2.4-6.2-4.2,0,0-.2-.2-.2-.3-.5-1.3-1.1-2.5-1-3.9,0-.5.2-.8.8-1.1l-.1-.2ZM1015.44,228.77c-.4.9,0,1.5.3,2,.4.7,3.6,3.2,4.4,3.3,1.1.1,2.1.6,3.1.9.7.2,1.5.3,2.2.3,1.2,0,2.3-.5,3.4-.6,2-.2,3.8-1,5.5-2,.9-.5,1.8-1.2,2.5-2.1.2-.2.3-.5,0-.7-.4.2-.8.5-1.3.6-2,.4-3.8,1.5-5.9,1.7-1.7.7-3.5.6-5.2.2-2.4-.5-4.7-1.3-6.6-2.9-.7-.6-1.5-1-2.5-.7h.1Z"/>
      <path class="st3" d="M980.34,249.47c-.2-.4-.6-.9-.9-1.3,0-.5,0-.9.3-1.2.1,0,.3-.1.4-.1,1.1.2,2.2,0,3.3,0,2,0,4.1-.2,6.1,0,1-.3,1.9,0,2.9,0,.8.1,1.6-.3,2.5,0,.7.2,1.5.3,2.2.3,1.5,0,3-.2,4.5-.5,1.7-.2,3.4-.6,5.1-.8h.8c.4.7.2,1.4-.2,2-.5.8-1,1.6-1.9,2.2-.6.4-1.1.8-1.5,1.4-.4.6-1.1.8-1.8,1-2.1.5-4.3.6-6.5.9-.6,0-1.2-.1-1.8-.2-.8,0-1.6-.4-2.4,0-1.3-.2-2.6-.4-3.9-.6-.6-.5-1.4-.6-2.1-.6-1.1,0-2.1-.6-3-1.2-.6-.4-1.2-.7-1.9-1.2l-.2-.1ZM1005.64,247.47c-.2-.2-.4-.2-.6,0-1.6.6-3.3.6-5,1h-.8c-1.4-.3-2.9.2-4.3-.2-1,.3-2,0-3.1,0-.3,0-.7-.1-1,0-.7.2-1.4.1-2,0-.7-.2-1.4.3-2,.1-1.4-.4-2.7,0-4.1-.1-.3,0-.7,0-.7.6,1.4,1.1,3,1.8,4.8,2.1,2.2.3,4.5.7,6.7,1,.4,0,.8.2,1.2.1,1.7-.3,3.5-.2,5.3-.4,1.2-.2,2.2-.5,3.2-1.3,1-.7,1.5-1.9,2.4-2.7v-.2Z"/>
      <path class="st3" d="M961.24,253.57c.6.7,1.4.8,2.2,1.1,1.3.5,2.6.9,3.9,1.2,1.1.3,2.2,0,3.2-.2,1.7-.2,3.4-.5,5-.9h1.3c.4.5.3.9,0,1.2-.5.4-1.1.8-1.6,1.3-1,0-1.9.3-2.8.7-.6.3-1.3.4-1.9.7-2.2.8-4.5.9-6.8,1.2-1,.1-2-.2-2.9-.3-.7-.4-1-1-1.7-1.2-.2,0-.5-.3-.6-.5-.6-.8-1.3-1.6-1.8-2.5-.3-.4-.6-1-.6-1.5,0-.9-.2-1.8,0-2.7v-2c-.1-.6,0-1.2.8-1.5.5,0,.8.4.9.7.4,1.1,1.1,1.8,1.9,2.6.6.6,1.2,1.3,1.8,1.9,0,.3-.1.4-.2.6l-.1.1ZM969.04,257.47c-.9-.2-1.4-.3-1.8-.1-.6.2-1.1.1-1.6-.2-.2-.1-.5-.3-.7-.3-1.9-.4-3.5-1.5-5.1-2.4-.3-.2-.6-.4-.7-.7-.2-.4.2-1-.2-1.4-.3-.2-.6-.3-1,0,0,.4-.1.9-.2,1.4.4,1.8,1.7,3,3,4,2.8.9,5.3.5,8.3-.3h0Z"/>
      <path class="st3" d="M924.44,235.07c1.3-.9,1.4-.9,2.7-.6.2.3-.2.5-.1,1,0,.4.4.9,1,1.1.9.4,1.8.9,2.8,1.3.9.4,1.6,1.1,2.6,1.6,1.8.3,3.8.6,5.7.9.9-.3,1.8-.6,2.7-1,.9-.4,1.6-1,2.6-1,.3,0,.4.3.6.6.2.5,0,1-.2,1.6-1,1.1-2.1,2.3-3.2,3.5-1.5.5-2.9,1.1-4.5,1.3-.3,0-.7.1-1,0-1.6-.2-3.3-.3-4.8-1.1-1.1-.6-2.1-1.2-3.2-1.8-.4-.2-.8-.5-1.4-.8-1.1-1.2-1.9-2.7-1.9-4.6,0-.6-.3-1.2-.5-1.9l.1-.1ZM931.84,243.07c1.2.2,2.5.3,3.9.6,1.8.4,3.4-.1,5-.7.9-.3,1.2-.9,1.5-2-.3-.2-.5,0-.8,0-.7.2-1.4.5-2.2.6-2.5.2-4.9,0-7.1-1.4-1.5-1-3.2-1.7-4.9-2.4-.3.2-.3.5-.4.9.5.7,1.1,1.6,1.8,2.4,1.1.3,1.9,1.2,3.1,1.8l.1.2Z"/>
      <path class="st3" d="M993.84,232.97c-1.4-.2-2.7-.5-4-.6-.9,0-1.6-.7-2.5-.9-.4-.1-.8-.4-1.3-.5-.7-.2-1.2-.6-1.6-1.2-.6-.8-1.1-1.6-1.7-2.4.2-1.9.2-3.7,1.3-5.3.3-.3.7-.1,1-.1,1.2.9,2.4,1.8,3.5,2.9,1.1,1.1,2.7,1.4,3.7,2.3,2,.6,3.8.3,5.6-.3.8-.3,1.7-.5,2.6-.8.8.5,1.1,1,.7,1.6-1,1.6-2.2,3.1-3.9,4.1-.9.6-2,.9-3.2,1.2h-.2ZM985.34,224.27c-.6,1.1-1.3,1.9-1,3.1.6.9,1.2,1.9,2.6,2.6.8,0,1.6.4,2.5.8.9.3,1.9.2,2.6.8.7,0,1.2,0,1.7-.2,1.8-.2,3.3-.8,4.3-2.4.1-.2.1-.4,0-.6-.6-.1-1,.2-1.5.3-.9.2-1.7.6-2.6.5-2.7,0-5.1-1-7-2.5-.6-.9-.4-2-1.5-2.5l-.1.1Z"/>
      <path class="st3" d="M1063.54,217.47c.9.4,1,.9,1.1,1.5-.2.8-.8,1.4-1.1,2.1-.9.8-2.1,1.1-2.7,2.1-1.2.5-2.5.5-3.5,1.4h-.2c-.7.2-1.3.5-2,.4-1.8,0-3.5.4-5.3-.1-.7-.2-1.3-.4-1.8-.9-.7-.7-1.4-1.3-2.2-2-.3-1.2-.9-2.4-.3-3.7.4-.3.7-.3,1.1-.1.6.3,1.3.5,1.9.8.5.2.9.3,1.4.2.2,0,.5,0,.8.1,1.3.5,2.6.5,4,.4,1.1,0,2.2-.2,3.2-.5.3,0,.6-.1.8-.2.4-.3.8-.5,1.3-.7,1.2-.3,2.4-.6,3.5-.9v.1ZM1062.34,219.47c-.3,0-.7.2-1,.2l-6,1.5c-.5.1-1,.2-1.4.2-1.8-.2-3.6-.1-5.2-.9-.4-.2-.8-.2-1.2-.2-.2,0-.4.1-.6.2,1.3,2.5,1.9,2.9,4.6,3.1,1.3,0,2.6.1,4,.2.6-.5,1.3-.8,2.2-.9.5-.1.9-.3,1.4-.3.9-.2,1.7-.7,2.1-1.5.3-.5.7-1,1.2-1.5l-.1-.1Z"/>
      <path class="st3" d="M983.74,262.27c.6-.2,1,0,1.5,0,1.4,1,3,1.8,4.8,2,1.9.9,4,.9,6,1.3,2.2.4,4.3-.1,6.5-1.1.4,0,.9,0,1.3.2.4.3.4.5.3.7-.2.6-.6,1.1-1.1,1.5-1.4,1.1-4.6,3-6.6,3.1-.3,0-.5.2-.8.1-2.4-.3-4.8-.4-7-1.6-.5-.3-1.1-.5-1.7-.7-1.3-.6-2.2-1.7-2.9-2.9-.4-.7-.9-1.6-.3-2.6ZM985.84,264.37c.2.8.6,1.2,1,1.5.8.6,1.7,1.1,2.7,1.4,1.6.6,3.2,1.3,4.9,1.4h2.4c.3,0,.7-.1,1-.3.4-.2.8-.4,1-.6.3-.2.8-.1.9-.6-.3,0-.5-.1-.7,0-1.7.4-3.4.3-5.1,0-.9-.1-1.5-.7-2.3-.8-.9-.1-1.8-.3-2.7-.5-.2,0-.4-.2-.6-.3-.8-.3-1.6-.7-2.7-1.1l.2-.1Z"/>
      <path class="st3" d="M929.64,219.27c0-.7,0-1.3.3-1.7.4-.1.6,0,.8.2.4-.1.4-.7,1.1-.7.1,0,.5.2.7.5,1.2,1.4,2.9,2.1,4.5,2.9.3.2.6.3,1,.3,1.3.1,2.5.5,3.9.4,1.2-.1,2.5.1,3.7-.2.9-.3,1.9.2,2.8-.3.7.4,1.5.6,1.7,1.6-.8.9-1.9,1.5-2.9,2.2-.4,0-.9,0-1.2.2-1.5.7-3.2.7-4.8,1-1.2.2-2.3,0-3.4-.5s-2.1-1.3-3.3-1.5c-1.8-1.1-3.6-2.3-4.8-4.2l-.1-.2ZM942.54,224.27c1.4-.4,2.7-1.1,3.9-1.8-.5-.3-1-.3-1.4-.2-1.1,0-2.2.2-3.2.1-1.5-.1-3-.4-4.5-.6-.4,0-.9-.1-1.2-.3-.6-.4-1.3-.4-1.9-.6-.7-.7-1.6-1.3-2.2-2.2-.1-.2-.3-.2-.5,0,0,.5.1,1,.5,1.3,1.1,1,2.1,1.9,3.5,2.4.5.2,1,.4,1.5.7.9.5,1.9.8,2.9.9.9,0,1.8.3,2.6.4v-.1Z"/>
      <path class="st3" d="M955.04,230.47c.5-.1,1-.3,1.6-.4.6.4,1.3.4,2.1.4.7,0,1.3.1,2,.3.8.2,1.8.3,2.6,0,0,.3.1.5.2.7.1,0,.3.2.5.2,2.1-.2,4-1,5.4-2.7.3-.4.7-.7,1-1,.1-.1.4-.1.6-.2.6.2.7.7.6,1.2,0,.8-.3,1.5-.8,2.1-1,1.2-2,2.4-3,3.6-.1.2-.3.3-.4.4-.2,0-.3.1-.4.2-2.8,1.1-6,.6-8.7-.2-1.7-.5-2.7-1.8-3.4-3.3-.1-.2,0-.3.2-1.3h-.1ZM968.44,232.27c-.2,0-.3-.1-.4-.1-.3.1-.7.2-.9.4-.4.3-.8.5-1.3.6-.9,0-1.9.2-2.9.2-1.2,0-2.3-.1-3.3-.8-.5-.4-1.1-.5-1.8-.5-.3,0-.6,0-.7.3q.2.8.5,1c.9.7,2,.9,3.1,1,2,.3,3.9.6,6-.3.4-.6,1.4-.9,1.7-1.8h0Z"/>
      <path class="st3" d="M1070.84,235.27c-.8.2-1.6.4-2.3.5-.3,0-.5-.1-.8-.2-1-.3-2.2,0-3.2-.7-1.2-1-2.5-1.9-3.4-3.4-.2-.7-.5-1.4-.4-2.1.2-.5.7-.6,1.1-.5,1,0,1.8.5,2.7.9,0,.4-.1.6-.4.7-.4.1-.8.2-1.2.4.3.5.8,0,1.1.3.3.2.7.4,1.1.6,1.4,0,2.7.1,4.1,0,1.7-.1,3.2-.6,4.4-1.9.1-.2.3-.2.4-.3.4,0,.6,0,.8.4.1,1.2-.4,2.2-1.3,3-.8.8-1.6,1.7-2.7,2.4v-.1ZM1071.14,232.87c-1.8.7-3.7,0-5.6.6.6.4,1.2.5,1.8.4.7-.2,1.1.5,1.9.4.5-.2,1.1-.1,1.6-.5.3-.3.5-.5.3-1v.1Z"/>
      <path class="st3" d="M1086.84,210.77c1,.2,1.4.5,1.3,1.2-.2,1.3-.3,2.6-1.2,3.6-.3.3-.5.6-.7.9-1.1.6-2.2,1.1-3.7,1-1.6-.5-3.3-1.3-4.5-2.9-.1-.2-.3-.3-.4-.4-1.1-.8-1.7-2-1.5-3.4.3-.4.7-.7,1.2-.9.8,0,1.6.3,2.2,1.1.9,1.1,2.3,1.4,3.5,1.9.8-.3,1.6-.5,2.2-.8.6-.4,1.2-.9,1.8-1.3h-.2ZM1082.74,214.47c-.5-.3-1,0-1.4-.2-.5,0-1-.3-1.5-.4-.2.5.2.7.4.9.3.2.7.4,1.1.5.3.1.6.2,1,.4s.7.5,1.2.5c.8,0,1.5-.4,2.1-.9.5-.5.7-1.1.9-1.8,0-.2,0-.4-.2-.5-.6.2-1.2.4-1.7.6-.6.2-1.1.5-1.8.9h-.1Z"/>
      <path class="st3" d="M1038.14,243.97c.6.3,1.2.5,1.9.8-.9.1-1.6,0-2.4-.2,0-.4.2-.5.5-.6Z"/>
      <path class="st3" d="M1033.54,265.37c-.6.9-1.2,1.4-1.9,1.7-2.4.9-4.9,1.2-7.5.6-1.1-.7-2.4-.7-3.6-1-.6-.5-1.5-.8-2-1.6.4-.5.9-.2,1.1,0,.7.5,1.5.6,2.3.7,1,.2,2.1.3,3.1.5,1.9.4,3.7,0,5.5-.3.9-.2,1.7-.5,2.9-.4l.1-.2Z"/>
      <path class="st3" d="M969.04,257.47c-3,.7-5.6,1.2-8.3.3-1.3-1-2.6-2.2-3-4,0-.5.1-1,.2-1.4.4-.3.7-.3,1,0,.4.4,0,.9.2,1.4.1.3.4.6.7.7,1.7.9,3.2,2,5.1,2.4.3,0,.5.2.7.3.5.3,1,.4,1.6.2.5-.2.9,0,1.8.1h0Z"/>
      <path class="st3" d="M931.84,243.07c-1.2-.6-2-1.6-3.1-1.8-.7-.9-1.3-1.7-1.8-2.4,0-.5,0-.7.4-.9,1.7.7,3.4,1.4,4.9,2.4,2.2,1.4,4.6,1.6,7.1,1.4.7,0,1.5-.4,2.2-.6.3,0,.5-.2.8,0-.2,1-.6,1.7-1.5,2-1.6.6-3.2,1.1-5,.7-1.3-.3-2.7-.4-3.9-.6l-.1-.2Z"/>
      <path class="st3" d="M985.84,264.37c1.1.4,1.9.8,2.7,1.1.2,0,.4.2.6.3.9.2,1.8.3,2.7.5.8.1,1.5.7,2.3.8,1.7.2,3.4.4,5.1,0h.7c-.1.5-.6.4-.9.6-.3.3-.7.5-1,.6s-.7.2-1,.3h-2.4c-1.7,0-3.3-.8-4.9-1.4-1-.4-1.9-.8-2.7-1.4-.4-.3-.7-.6-1-1.5l-.2.1Z"/>
      <path class="st3" d="M1070.54,234.67c0,.5-.3.6-.7.8-.6.2-1.2-.1-1.7-.1-.7-.3-.9-1-1.6-1.1-.6,0-1.1-.3-1.5-1,2,0,3.5,1.5,5.4,1.4h.1Z"/>
    </g>
    <g>
      <path class="st3" d="M1063.64,132.97c.9.5,2.1,0,4.1.5,5.4,1.2,13.8,2.9,13.8-1.2,0-5.5-1.4-23-6.7-22.9s-14.6,21.7-11.1,23.6h-.1Z"/>
      <path class="st3" d="M839.24,164.87c0-.9.1-1.8.7-2.7.5.4,1.1.8,1.5,1.2,1.7,1.9,3.4,3.9,5.4,5.5.2.2.4.4.6.6,2.4,3.5,6,5.8,9.1,8.5q.4.3,1.7.1c.4-1.6-.3-2.7-1.7-3.5h0c0-.9-.6-1.7-1.3-2.3-.2-.2-.3-.1-.4,0q.7,1.6,1.7,2.2h0v1.4c-1.9-.5-2.3-2.5-3.9-3.1-.7-3-3.1-5.1-4.7-7.7.2-.6.4-1.3.6-2,1.1.2,2.3.4,3,1.1.7,0,1-.4,1.2-.8v-.6c-1.2-1.4-2.2-3-4.1-3.6-.6-.8-1.3-1.5-1.9-2.3.3-.5.5-.3.7-.2.2.1.5.4.7.4,1.5,0,2.7.7,4.1,1,1.2.3,2.4.5,3.6.2,1.2.7,2.3,1.3,3.4,2,2.7,1.6,5.7,2.8,8.6,4.1,1.8.8,4,1.1,6,1.5.7.1,1.6.1,2.3-.1,2-.8,4.1-.7,6.2-.8,2.5-.1,4.9-.7,7-2.1,1.5.3,3,.6,4.5.8,1,.6,1.8,1.3,2.5,2.3,4.1.6,8.1,1.8,12.3,2.2,1.5.1,2.9.6,4.4,1.1,2,.7,4,1.5,6.2,2,1.3.4,2.6,1,3.9,1.4,1.9.7,3.9,1.3,6,2-2.2,1.2-4.2,2.6-6.7,2.9-.9,0-1.5.7-2.3,1.1-.9.4-1.3,1-1.7,1.7-2.6.6-4.7,2-6.7,3.5-.8.5-1.4,1.3-2.2,1.7-1.7,1.1-3,2.5-4.2,4.1-.7.9-1.5,1.7-2.4,2.2-2.6,1.3-4.7,3.3-7.3,4.8-.6.3-1.1.6-1.7.9-.9.4-1.9.9-2.4,1.9.1.2.3.4.5.6.9,0,1.4-.7,2.1-.8.8-.2,1.3-.8,1.9-1.1,2.2-1.1,4.1-2.7,6.3-3.6.7-.3,1.3-.7,1.8-1.3,1.1-1.3,2.5-2.2,3.9-3.1,1.3-.8,2.5-1.6,3.5-2.7.4-.4.8-.7,1.3-1.1.8-.6,1.9-.9,2.2-2,2-1.3,3.5-3.2,5.9-4.1,2.7-1,5.3-2.4,7.9-3.7,1.4-.7,2.9-1.3,4.6-1.3.8,0,1.5-.2,2.2-.5.9-.3,1.9-.1,2.8-.5,1.9-.7,3.9-.6,5.9-.9.9-.1,1.9,0,2.8-.6.6-.3,1.3-.3,1.9,0,.8.4,1.8.3,2.5,0,1-.5,2-.5,3-.6.9,0,1.9,0,2.7-.6h.3c2.1,0,4.1-.8,6.1-1h.9c4-1.3,8.3-.8,12.4-1.3.9-.1,1.7.3,2.7.4,1-.8,2.4-.6,3.7-.9.5-.5,1.1-1,1.5-1.5.3,0,.4-.2.6-.2.9,0,1.9-.1,2.8-.2,2.8-.3,5.2.4,7.6,1.7.3.2.7.3,1,.4h.5c.1,0,.2-.3.3-.4-2.6-2.2-4.2-2.8-7.3-2.9-1.6,0-3.2-.4-4.8-.2-1.5.2-3,.2-4.5.3-.5.3-1,.5-1.5.8-1.4.7-2.9,1.2-4.6,1.3-2.1,0-4.2.2-6.3.4-.8,0-1.5,0-2.2.3s-1.4-.2-2.2.3c-.3.2-.9.2-1.4.2-1.5.1-3,.2-4.4.8-1.4.6-2.9.9-4.4.9-.9,0-1.7.2-2.4.6-.7,0-1-.6-1.6-.7-2.1.4-4.1,1.4-6.3,1.3-2.1,0-4,1.3-6.2.8.2-.4.4-.8.6-1.2-1-.2-2.8.33-5.4,1.6-.8,0-1.7.2-2.5,0,0-.8.7-1,1.1-1.5,1.1,0,2.1-.1,3-.2,1-.5,1.3-1.3,1.4-2.1-1.1-.5-1.7.6-2.8.8-1.3-.6-3,.3-4.6-.4-.6.3-1.3.7-2.1,1.1-2.1,0-4.3-.5-6.5-1.2-2-.6-3.9-1.4-5.9-2-2.1-.7-4.3-1.4-6.6-1.1-1.2.2-2.2-.3-3.3-.6.2-.6.5-1.1,0-1.6-.7-.6-1.5,0-2.4-.4-1.1-1-2.9-.9-4.6-1.1-1.8-.2-3.5-.6-5.2-1.3,0,0-.1-.1-.2-.2,0-.6.5-1,.9-1.3.9-.5,1.6-1.3,2.3-2,1.3-1.4,2.7-2.8,4.2-4.1,2.3-2.1,4.4-4.5,6.4-7,1.1-1.3,1.9-2.9,2.8-4.4,1.4-2.2,3.1-4.1,5.2-5.6.4-.3.7-.6,1-.9,1.2-1.2,2.5-2.2,4-3,1.8-.9,3.2-2.2,5.1-2.9,1.8-.6,3.5-1.4,5.2-2.2.4-.2.8-.4,1.2-.7,2.1-1.2,4.5-1.9,7-2h.6c2.7.8,5.5-.1,8.2,0,2.5-1,5.2-.7,7.9-1,1-.1,2.1-.1,2.8-.7,1.1.2,2,.5,3,.4,2.1-.2,4.1.3,6.2.4,7.1,5.3,15.4,9.3,20.9,17.3,11.7,14.6,25.1,29.1,20.2,48.2-.9,3.9-1.8,7.8-2.9,11.7h-.2c-2.4.7-5,1-7.4,1.9-.8.3-1.7.3-2.5.2-2.1-.4-4.1-.2-6.2-.1-2.7-.8-5.5.2-8.2-.3-.8.3-1.6.4-2.5.4-.8,0-1.6-.7-2.4,0-.7.5-1.5-.3-2.2.3-.2.2-.7.2-1.1.2-4.3.3-8.6.6-12.8.8h-1.4c-.6-.2-1.1-.1-1.6.1-.9.4-1.9.5-2.8.2-1.1-.4-2.3-.2-3.4-.2-1.5,0-3,.3-4.5-.2-.5-.2-1.1,0-1.7,0-1.3,0-2.6.3-3.9-.2-.5-.2-1.1,0-1.7,0-2.7.1-5.3.3-8,.5-1.1,0-2.2.3-3.4-.2-.5-.2-1.1,0-1.7,0-1.7,0-3.4.2-5.1.3-.5,0-1,.2-1.4,0-2.7-.7-5.5,0-8.2,0s-3.6.5-5.4-.1c-1.8.2-3.6-.2-5.3-.6-1.2-.3-2.4-.3-3.6-.4-3-.4-6-.6-8.9-1.2-.7-.1-1.5-.2-2.2-.4-1-.3-2-.5-3.1-.3h-1.1c-2.4-.5-4.8-1.1-7.1-1.7-.8-.2-1.6-.6-2.4-.7-2-.2-3.8-.9-5.6-1.7-.3-.2-.7-.2-1.1-.3-2.1-.3-4.2-1.1-6.3-2.2-1.2-.7-2.5-1.3-2.8-2.8-.1-.4-.7-.9-1.2-1.1-2.1-.8-3.2-2.5-4.3-4.1-.5-.8-1-1.6-1.5-2.3-.2-.4-.4-.8-.8-1.1-1.2-1-1.9-2.2-2.6-3.5-.9-1.7-1.7-3.4-3-4.8,0-.6.2-1,0-1.4-.7-1.7-1.3-3.4-1.3-5.2-.8-1.5-.7-3.2-.9-4.8l.3.3Z"/>
      <path class="st6" d="M983.54,120.57c0,.8.1,1.7.4,2.5.4,1.3.4,2.7.6,4.1,0,.8.2,1.7.4,2.5.3,1.2.8,2.4,1,3.6.5,2,1.1,3.9,1.9,5.7.9,2.1,1.3,4.4,2.3,6.5v.2c.3,1.6.8,3.1,1.3,4.7.3.8.4,1.6.6,2.5-.4.7,0,1.5,0,2.2.4,1.1.8,2.3,1.2,3.5.5.5.8,1,1.1,1.6.4.9.9,1.6,1.4,2.4.6.8,1.1,1.6,1.2,2.7,0,.7.5,1.5.8,2.2.4.8,1,1.6,1.3,2.4.3.9.9,1.6,1.3,2.4.6,1.1,1.1,2.2,1.6,3.4.7,1.5,1.3,3.1,2,4.6.2.4.6.7,1,.9.4-.1.7-.4.7-.8,0-.7.3-1.3.5-2-.2-.6-.4-1.2-.6-1.9-1.2-1-1.5-2.6-2.2-4.1-.6-1.3-1.1-2.6-1.6-3.8-1.4-1.4-1.7-3.4-2.9-4.9-.1-1.1-.9-1.8-1.5-2.4-.2-.9,1-.8.8-1.6-.3-.7-1.1-.8-1.5-1.4-.4-.5-.9-.9-1.2-1.4-.3-.6-.9-1.1-1.3-1.7-.7-2.2-.8-4.5-1.9-6.6-.5-1-.5-2.2-.9-3.3-.5-1.4-1.1-2.7-1.5-4.1-.5-1.7-1.1-3.4-1.6-5.1-.4-1.2-.9-2.5-1.3-3.7-.6-1.9-1.2-3.9-1.1-5.9,0-1-.7-1.9-.5-3-.3-.9-.4-1.8-.5-2.8-.5-.3-1-.5-1.5-.8v.7h.2Z"/>
      <path class="st3" d="M997.74,117.37c-.3-1.7,2-14.3,2.3-16,.1-.8.3-1.5.3-2.3v-3c0-1.9.5-3.7,1-5.4.5-1.7,1.3-3.3,2-5,.8-1.8,1.7-3.5,3.3-4.7.8-.6,1.6-1.2,2.3-1.9.8-.8,1.8-1.3,2.8-1.7,2.1-.8,4.2-1.5,6.3-2.3,1.9-.7,3.8-1,5.7-.6,1.6.3,3.2.4,4.9.4h.7c.9.5,2,.3,3,.4.4,0,.8,0,1.1.2,3.5,1.1,6.5,2.8,9.1,5.3,1.1,1,2.1,2.1,3.2,3.1,1.4,1.5,2.8,3.1,3.9,4.9,1.2,1.8,2.1,3.8,3.1,5.7.2.4.3.9.5,1.3.7,1.9,1.4,3.9,2.3,5.8,1.1,2.4,1.6,4.8,1.9,7.4.3,2,.8,3.9,1.3,5.9.7,2.7,1.2,5.4,1.7,8.1.3,1.6.5,3.2,1.4,4.6.5.8.8,1.8,1.1,2.8s.3,2.2,1,3.1c.2.3.5.6.7.9.1.2.1.4.1.7-1.1.8-3.6-1-3.9-2.3-.6-2.1-1.4-4.3-1.3-6.6,0-1-.3-2-.6-2.9-.4-1.3-.2-2.8-.8-4.1,0-1.2-.4-2.3-.8-3.4-.4-1.1-.7-2.2-.7-3.4,0-.8-.3-1.7-.5-2.5-.2-1.1-.4-2.3-.6-3.4-.2-1.1-.8-2.2-.9-3.3,0-.3-.2-.6-.4-.8-.7-1.4-1.3-2.8-1.7-4.3-.7-2.5-2.2-4.8-3.4-7.1-1.2-2.3-3.1-4.2-4.6-6.4-.4-.6-1-1-1.5-1.5-1.3-1.1-2.5-2.4-3.9-3.3-2-1.3-4.2-2.2-6.6-2.6-1.6-.3-3.2-.5-4.8-.4h-.7c-.9-.5-2-.4-3-.4h-1.6c-2-.1-3.8.3-5.6,1.2-1.3.7-2.7,1.1-4.1,1.7-.3.1-.6.2-.8.5-.6.7-1.5,1-2.3,1.5-.3.4-.5.9-.8,1.1-1.1.8-1.9,1.7-2.8,2.7-.8.9-1.2,1.9-1.7,2.9-.3.5-.5,1.1-.7,1.7-.7,1.4-1.2,2.9-1.1,4.5,0,.9-.7,1.8-.2,2.7-.3.7-.3,1.5-.3,2.3,0,2.8-.4,8-.4,10.8-.5,0,3,13.9,2.5,14,0-.4-6.1-6-6.2-6.3l-.2-.3Z"/>
      <path class="st6" d="M856.14,166.77h0Z"/>
      <path class="st3" d="M856.14,166.77h0Z"/>
      <path class="st3" d="M1080.94,126.87c-.1-.3,0-.8,0-1.2,0-.5,0-1-.2-1.4-.3-.7-.3-1.4-.3-2.1,0-.5,0-1-.1-1.4-.4-1-.4-2-.4-3v-.9c-.7-1.9-.8-3.9-1.9-5.7-.2-.3-.3-.7-.4-1.1-.2-2.3-1.2-4.3-1.9-6.4-.3-1-.7-1.9-1-2.8-.7-2-1.5-3.9-2.3-5.8-.6-1.3-1.6-2.5-2.3-3.7-1.2-1.9-2.5-3.7-3.2-5.9-.5-1.5-1.8-2.5-2.6-3.8-.4-.6-.8-1.2-1.2-1.7-1.1-1.1-2-2.5-3.4-3.4-.4-.2-.7-.7-1-1-1-1-2-2-3-2.9-.3-.3-.6-.7-.9-.7-.9,0-1.3-.7-1.9-1.2-1.8-1.4-3.7-2.6-5.9-3.1-.3,0-.6-.2-.9-.3-2.9-1.2-5.9-2.4-8.9-3.2-2-.6-4-1.1-6.1-1.1-.3,0-.7,0-.9-.1-.7-.4-1.5-.3-2.3-.3h-2.3c-.8,0-1.7.4-2.5.4-1.4,0-2.6.4-3.9.6-1.3.2-2.6.5-3.8.7-.3,0-.6.2-.9.2-1,0-1.8.3-2.7.6-.5.1-1,.4-1.6.4-1.1,0-2.1.5-3.1.9-.6.3-1.1.7-1.7.8-1.9.4-3.2,1.7-4.4,2.9-2.2,2.1-4.5,4.1-6.2,6.6-.7,1.1-1.7,2-2.4,3.1-.8,1.2-1.4,2.4-2,3.6-.7,1.4-1.2,2.9-1.9,4.2-.8,1.5-1.2,3-1.7,4.6-.4,1.3-.7,2.7-.5,4.1v1.6c-.3,1.3-.7,2.7-1,4s-.6,2.6-.7,3.9v7.7c0,.5,0,1,.2,1.4.3.8.3,1.5.3,2.3,0,.5,0,1,.1,1.4.2.6.3,1.3.4,2,2.5,1.3,5.1,2.5,8.1,3-3-.5-5.6-1.8-8.1-3,0,.9.2,1.9.5,2.8-.2,1,.5,1.9.5,3,0,2,.5,4,1.1,5.9.4,1.3.9,2.5,1.3,3.7.6,1.7,1.1,3.4,1.6,5.1.4,1.4,1.1,2.7,1.5,4.1.4,1.1.4,2.3.9,3.3,1.1,2.1,1.2,4.5,1.9,6.6.4.6,1,1,1.3,1.7.3.5.8.9,1.2,1.4.4.6,1.3.6,1.5,1.4.3.8-1,.8-.8,1.6.6.7,1.4,1.3,1.5,2.4,1.2,1.5,1.5,3.6,2.9,4.9.5,1.3,1,2.6,1.6,3.8.7,1.5,1,3.1,2.2,4.1.2.8.4,1.4.6,1.9-.1.7-.6,1.3-.5,2,0,.4-.3.7-.7.8-.4-.2-.8-.5-1-.9-.7-1.5-1.4-3.1-2-4.6-.5-1.1-1-2.3-1.6-3.4-.5-.8-1-1.5-1.3-2.4s-.9-1.6-1.3-2.4c-.3-.7-.7-1.4-.8-2.2-.1-1.1-.6-1.9-1.2-2.7-.5-.8-1-1.5-1.4-2.4-.6-1.4-1.7-2.4-3.1-3-.6-.3-1.3-.6-2-.7-1.3-.3-2.4-1-3.5-1.8-1-.7-1.7-1.6-2.7-2.2-.2,0-.4-.3-.5-.5-.4-1.3-1.9-1.5-2.5-2.7-1.7-.9-3.1-2.3-4.5-3.6-.5-.4-1.1-.9-1.7-1.3-.5-.3-1.1-.6-1.7-.8-1.8-.4-3.4-1.4-5.3-1.6-1.3-.8-2.7-1-4.1-1.5q-4.4-1.5-9.1-1.5c-.8,0-1.6.2-2.3,0-1.1-.4-2.1-.3-3.2-.4-.4,0-.8,0-1.1-.1-.9-.5-2-.1-3-.5s-2-.2-3-.3c-.5,0-.9-.1-1.4-.2h0c5.6,4.9,12.1,8.8,16.2,15.8,8.8,13.1,19.1,26.2,14.1,42.2-.9,3.3-1.9,6.6-2.9,9.9h0c.8-.2,1.7-.5,2.5-.5,1.9,0,3.6-.8,5.5-.6.2,0,.5,0,.7-.1.8-.5,1.7-.3,2.5-.3h4c.6,0,1.2,0,1.8-.3,1.5-.5,3-.8,4.6-.7.5,0,.9-.1,1.4-.2,1.3-.2,2.6-.6,3.9-.7,1.7,0,3.3-.7,5.1-.6,1.1-.6,2.3-.4,3.4-.4.8,0,1.7,0,2.5-.4.4-.2.9-.2,1.4,0,.6.3,1.2.3,1.8.3,1.8,0,3.7.3,5.5-.4h.7c1.3,0,2.6-.3,3.9-.2,1.4,0,2.7-.5,4.1-.3h.5c2-.6,4.1-.8,6.1-1.3,1.3-.4,2.3-.9,3-2,1.9-2.8,3.3-5.8,3-9.3,0-.9.2-1.9-.1-2.8-.3-1.1-.3-2.1-.4-3.2,0-.5,0-1-.2-1.4-.3-.6-.3-1.2-.3-1.8v-2.5c-.6-1-.9-2-1.1-3.1-.2-1.1-.8-2-.8-3.1,0-.8-.2-1.7-.6-2.5-1.2-2.2-2-4.7-3.7-6.7-.6-.7-1-1.6-1.5-2.3-.6-.9-1.1-1.8-1.8-2.7-1.5-1.9-3.3-3.7-4.7-5.7-2.1-3-4.6-5.6-6.3-8.9-.4-.7-1-1.3-1.5-2-.6-.9-1.2-1.8-1.8-2.7-.6-.9-1-2-1.7-2.8-.8-1-1.3-2-1.8-3.2-.4-.9-1.1-1.8-1.3-2.7-.7-3.3-2.3-6.4-3.2-9.7-.2-.9-.6-1.7-.8-2.6-.2-1-.5-1.9-.4-3v-.7c-.5-.9-.4-1.8-.4-2.7v-1c-1.7.2-3.4.6-5.2,1.3,1.7-.7,3.4-1.1,5.2-1.3,0-.4-.1-.7-.2-1.1-.3-1.7-.3-3.4,0-5.1.1-.8.3-1.5.3-2.3v-3c0-1.9.5-3.7,1-5.4.5-1.7,1.3-3.3,2-5,.8-1.8,1.7-3.5,3.3-4.7.8-.6,1.6-1.2,2.3-1.9.8-.8,1.8-1.3,2.8-1.7,2.1-.8,4.2-1.5,6.3-2.3,1.9-.7,3.8-1,5.7-.6,1.6.3,3.2.4,4.9.4h.7c.9.5,2,.3,3,.4.4,0,.8,0,1.1.2,3.5,1.1,6.5,2.8,9.1,5.3,1.1,1,2.1,2.1,3.2,3.1,1.4,1.5,2.8,3.1,3.9,4.9,1.2,1.8,2.1,3.8,3.1,5.7.2.4.3.9.5,1.3.7,1.9,1.4,3.9,2.3,5.8,1.1,2.4,1.6,4.8,1.9,7.4.3,2,.8,3.9,1.3,5.9.7,2.7,1.2,5.4,1.7,8.1.3,1.6.5,3.2,1.4,4.6.5.8.8,1.8,1.1,2.8s.3,2.2,1,3.1c.2.3,1.1,0,1.4-.1.6,0,2.5,2.2,2.9,2,.5-.2.9-.5,1.4-.8,0-.3.2-.5.2-.7.4-1.1.7-2.2.1-3.4-.2-.4-.2-.9,0-1.4.1-1.1.2-2.2.6-3.2.3-.9.9-1.8,1.5-2.6.5-.8,1.3-1.3,2.3-1.3,1.1.6,1.4,1.8,2.2,2.7v2.6c.1-.4.3-.8.6-1.3-.3.4-.5.8-.6,1.3v.2c.4.7.9,1.2,1,2.1,0,.8.3,1.7.9,2.3,1.9.3,2.7.7,4,.2-.1-1.6-.5-3.6-1.2-5.1l-1.4-.1Z"/>
      <g>
        <path class="st2" d="M1064.44,115.37c7.9-.4,9.7,9.3,11.8,15.7.1,1.5,1.8,2.2,3.9,2.4-.2.2-.4.5-.6.7-.8.7-1.2,1.5-1.7,2.4-4.7.4-9.5.6-14,1.6-.3-.4-.5-.7-.8-1.1-.9-1.2-1.7-2.5-2.3-3.8,1-.8,1.5-1.8,1.3-3.3-.4-5.5-4.6-13.8,2.4-14.6h0Z"/>
        <g>
          <path class="st8" d="M1077.84,136.47c-.2.5-.5.9-.7,1.3-.2.2-.2.5-.2.8,0,1.2.2,2.4.5,3.6.5.3.9.6,1.4,1,.1.3.3.6.4.9.3,1.3,1.1,2.5,2.3,3.6,1,1,1.6,2.1,2,3.2.2.5.2,1,0,1.6-.2,1,0,2-.6,3-1,.7-2.3.4-3.5.2-1-.5-2.1-.9-2.9-1.5-.7-.6-1.4-1.1-2.4-1.7,0-.9-1.1-1.4-1.6-2.1-2-3-4.1-5.9-6.1-8.8-.8-1.2-1.8-2.4-2.7-3.6,4.5-1,9.3-1.2,14-1.6l.1.1Z"/>
          <g class="st10">
            <path class="st5" d="M1070.84,135.07c-.3-.3-.6-.5-.9-.6-.5.2-.6.6-.7,1.1v.8c.5,1.2.5,2.5,1.1,3.6.2,1.7,1,3.2,1.6,4.7.5,1.4,1.2,2.8,1.9,4.2,1.2,2.4,3.3,5.1,5.2,7.8.9.6,1.1.5,1.4.3,0-.3-.4-.9-.7-1.4-.6-.9-1.3-1.7-2-2.6-1.2-1.6-2.2-3.1-2.8-4.5-.6-1.3-1.2-2.6-1.7-3.9-.4-1.2-.9-2.4-1.3-3.6-.2-.6-.3-1.3-.5-2-.3-1-.5-2.1-.9-3.1-.1-.3,0-.6.2-1l.1.2Z"/>
          </g>
        </g>
        <path class="st6" d="M1065.34,125.37c.2.5.3,1,.5,1.5,1.5,1.5,3.2,2.5,5.3,2.2.3-.3.5-.6.5-.9-.6-.5-1.2-.3-1.9-.5-.6-.2-1.3-.4-1.9-.6-.3-.3-.5-.5-.8-.8-.7-.6-.8-1.3-.5-2,0-.3.2-.6.4-.9-.3-.3-.6-.4-1-.3-.7.5-.5,1.5-.7,2.3h.1Z"/>
      </g>
    </g>
  </g>
  <g class="st4">
    <g>
      <path class="st7" d="M1767.43,145.84c1.01-.38.81-1.3.9-1.99.54-4.37,1.7-8.57,2.75-12.79.24-.95.33-1.96.35-2.96.02-1.32-.64-2.2-2.43-2.28-1.32-.06-2.65-.22-3.98-.39-5.2-.66-8.66-3.68-11.68-7.21-.75-.87-1.39-1.96-.76-2.9.67-1.01,2.03-.64,3.21-.37,4.24.97,8.46,2,12.59,3.52,2.72,1,2.95.89,3.41-1.34.51-2.47,1-4.95,1.36-7.46.54-3.68-2.5-6.29-6.86-5.96-1.42.11-2.81.32-4.25.35-4.65.07-7.66-2.22-8.34-6.3-.15-.9-.39-1.83-.37-2.71.07-2.48,1.51-3.4,4.53-2.96,1.59.23,3.18.67,4.69.19,1.18-.37,2.34.18,3.46.72,1.97.95,3.97,1.85,5.9,2.86,1.6.83,2.61.98,3.32-.59,1.54-3.37,2.46-6.96,3.65-10.45.51-1.49-.66-2.6-2.11-3.56-2.59-1.72-5.25-3.37-7.55-5.42-1.4-1.24-2.59-2.58-3.69-4.02-1.38-1.81-.66-3.32-.02-4.78.45-1.04,1.82-1.1,3.04-.65,4.09,1.52,8.3,2.77,11.85,5.44,2.57,1.94,2.55,1.84,3.86-.21,1.24-1.94,3.3-3.79,2.9-6.08-.38-2.14-3.21-3.85-4.89-5.79-1.1-1.27-2.36-2.44-3.48-3.69-1.67-1.85-1.65-2.48-.22-4.49.24-.34.37-.79.36-1.22-.02-.87-.53-1.91.85-2.2,1.28-.27,2.58-.16,3.85.6,2.39,1.42,4.27,3.24,5.83,5.29.76,1.01,1.43,2.06,2.3,3.33,2.1-1.15,3.55-2.77,4.89-4.42.9-1.09,2.89-1.65,2.67-3.24-.19-1.36-2.02-2.25-3.02-3.42-3-3.51-4.98-7.29-6.17-11.28-.33-1.1-.71-2.43.48-3.08,1.26-.7,2.79-.12,4.18.54,4.1,1.96,8.02,4.08,10.31,7.87.92,1.52,2.02,1.63,3.52.77,2.27-1.29,3.84-3.17,5.92-4.61,1.09-.75.69-1.73.06-2.74-1.42-2.28-1.87-4.66-2.35-7.05-.4-1.99.9-3.11,2.28-4.11,1.15-.84,3.39-.34,4.7.89,1.58,1.48,2.57,3.17,3.18,5.02.77,2.33,1.25,3.1,4.15,2.34,2.99-.77,6.28-.98,9.44-1.42,3.16-.45,3.36-.58,3.36-3.3,0-1.36.11-2.68.62-3.89.59-1.4,1.61-2.24,3.67-2.15,2.02.09,3.71.64,5.04,2.12,1.08,1.21.82,2.34.43,3.54-.59,1.82-.31,2.16,1.98,2.38,3.59.34,7.18.8,10.77,1,5.05.28,10.07.84,14.09,4.91,1.33,1.34,3.5,1.99,4.64,3.69,1.43,2.13,1.11,4.68-.92,5.54-1.94.82-5.03-.09-6.16-2.32-1.99-3.93-5.58-5.21-9.74-6.07-3.06-.63-6.12-1.14-9.18-1.26-1.53-.06-2.3.33-1.23,1.78.77,1.03,1.36,2.1,1.69,3.25.77,2.69-.11,4.51-2.49,5.05-2.31.52-4.95-.56-6.55-2.84-.87-1.23-1.62-2.55-2.15-3.88-.71-1.8-1.95-2.1-3.74-1.87-4.23.56-7.87,2.19-11.8,3.29-1.06.3-1.08.95-.75,2.1.78,2.68,2.5,4.6,5.11,6.28,1.94,1.24,3.69,2.71,4.96,4.52.91,1.3.86,2.3-.16,3.35-2.39,2.45-5.91,2.98-9.59,3.03-2.81.03-5.85-3.34-5.93-6.5-.05-1.81-.22-3.62-.67-5.41-.75-3.01-2.46-3.68-5.27-2.23-4.33,2.23-4.61,3.3-2.57,7.93,1.57,3.57,2.51,7.18,2.26,10.79-.2,2.9-2.5,3.58-5.43,1.54-1.9-1.32-3.36-2.98-4.64-4.76-.87-1.21-1.39-2.6-2.86-3.76-1.77.61-2.12,2.2-2.9,3.43-1.23,1.94-3.06,3.83-3.21,6-.17,2.41,3.31,3.94,5.11,5.89,3.57,3.88,5.49,8.11,6.27,12.62.36,2.09-1.7,2.93-4.28,1.63-3.12-1.57-5.54-3.81-7.51-6.4-.93-1.22-1.79-2.48-2.84-3.63-1.33-1.45-2.09-1.43-2.68.18-.63,1.73-2.2,3.24-1.9,5.16.36,2.23,3.36,2.76,5.12,4.07,2.64,1.97,4.99,4.04,6.69,6.59,1.47,2.2,1.15,2.99-1.39,3.75-1.06.32-2.18.54-3.26.83-2.89.77-5.42-.04-7.66-2.21-.66-.64-1.27-1.33-2.02-1.88-1.17-.86-2.31-.99-2.85.24-.88,1.99-1.7,4-2.47,6.04-.38,1.02.26,1.77,1.52,2.13,1.31.37,2.63.75,3.95,1.01,2.43.48,4.68,1.44,6.92,2.48,2.04.95,3.2,2.45,3.74,4.21.74,2.42-.56,3.63-3.43,3.25-4.64-.61-9.28-1.24-13.91-2.03-1.31-.22-2-.21-2.21.93-.47,2.48-1.19,4.89-1.22,7.48-.03,2.64.3,2.94,3.51,2.69,1.8-.14,3.56-.44,5.34-.66,3.59-.45,5.96,1.48,5.24,4.44-.52,2.12-1.68,4.02-3.13,5.7-.94,1.09-2.42,1.04-3.9.27-1.69-.88-3.3-1.9-4.95-2.84-1.87-1.07-2.49-1-2.76.59-1.04,6.17-2.87,12.15-3.22,18.49-.15,2.63.08,2.96,3.21,3.5,4.03.7,7.95,1.55,11.59,3.7,2.32,1.37,3.14,3.07,2.91,5.11-.06.53-.25,1.1-.62,1.47-1.99,2.02-8.19,1.72-10.81-.54-1.41-1.21-2.58-2.62-4-3.82-1.63-1.38-2.67-1.16-2.85.61-.26,2.53-.43,5.08-.49,7.65-.14,6.24-.63,12.4-1.47,18.52-.9,6.52-1.38,13.15-.07,20.06.61,3.24.33,6.53.04,9.72-.5,5.51-.05,11.16-.51,16.66-.04.44.03.91-.06,1.33-.29,1.38-1.55,1.64-2.86.56-.96-.79-1.65-1.71-1.5-2.81.65-4.73-.97-9.71-.46-14.45.09-.88-.13-1.87.21-2.64,1.06-2.42.79-4.94-.17-7.58-.89-2.45.5-4.55.27-6.94-.22-2.24,0-4.44-.15-6.71-.18-2.64-.35-5.33.71-7.84,1.41-3.33,1.05-7.19,1.03-10.83-.02-3.92.4-7.76.39-11.68,0-1.91.07-3.31-2.91-4.31-2.2-.74-4.28-2.48-5.67-4.32-2.38-3.16-4.1-6.57-5.62-9.99-.91-2.04.04-2.78,2.46-2.16,3.81.97,7.05,2.85,9.78,5.52.81.79,1.24,1.93,2.58,2.3ZM1764.84,121.13c-1.83-1.56-3.16-1.9-4.95-1.57,1.26,1.7,2.69,1.79,4.95,1.57ZM1829.62,52.37c-1.02.04-1.96-1.2-2.86-.46-.35.29-.14.9.26,1.2,1.32,1,2.03.31,2.6-.75ZM1790.94,87.91c.22,1.32.4,2.43,2.04,2.84.38.09.78-.15.75-.5-.11-1.23-.79-2.11-2.79-2.34ZM1780.43,154.72c.04.11.04.25.12.32.61.48,1.15,1.12,2.07.99.11-.02.24-.12.25-.2.09-.87-.8-.82-1.36-1.04-.35-.13-.75-.35-1.08-.06ZM1765.02,98.36c.03-.23-.12-.39-.46-.43-.25-.03-.56-.1-.75-.03-.25.1-.17.34.15.48.38.17.75.19,1.05-.03Z"/>
      <path class="st7" d="M1879.41,130.83c-.35-2.27.19-3.89.83-5.5.7-1.75.5-2.3-.96-3.26-1.61-1.06-2.6-1.06-3.49.29-1.37,2.09-2.64,4.27-3.32,6.8-.84,3.16-3.08,5.21-5.29,7.73-.87-2.44-1.56-4.5-2.34-6.54-.76-1.97-1.5-2.52-3.36-3.01-1.3-.34-1.75.23-1.64,1.24.12,1.17.53,2.37.77,3.56.36,1.82.85,3.62.88,5.44.06,4.99-3.17,7.55-6.06,10.4-.33-.29-.59-.43-.6-.53-.33-3.1-2.42-5.65-4.35-8.26-.74-1-1.54-1.61-2.69-1.64-1.43-.03-1.93.68-1.13,2.02,1.63,2.73,2.32,5.58,3.12,8.39,1.34,4.76.68,8.92-1.46,12.53-.68,1.14-.85,2.67-2.41,3.62-1.16-3.1-2.81-5.7-4.78-8.15-.88-1.09-1.71-2.24-3.26-2.56-1.86-.39-2.54.09-1.79,1.85,1.57,3.7,2.31,7.48,3.88,11.17,1.42,3.34,1.29,6.34.36,9.15-.7,2.1-1.81,3.93-3.54,5.66-.99-2.3-1.06-4.29-1.72-6.26-.94-2.81-2.96-4.95-4.97-7.14-.62-.68-1.56-1.26-2.32-.85-.88.47-.96,1.38-.42,2.54,1.72,3.66,2.65,7.42,4.2,11.11,1.73,4.13.52,7.56-.69,10.9-1.16-.27-1.02-1.04-1.23-1.6-.47-1.27-.78-2.57-1.37-3.8-.69-1.44-1.91-2.05-3.05-1.73-1.25.35-1.34,1.32-.79,2.54,1.58,3.47,2.15,6.9,2.29,10.33.04.98.1,1.98-.2,2.86-.36,1.06-.36,2.18.27,3.41.48.94.53,1.8.08,2.57-.33.57-.7,1.24.23,1.89.91.63,1.84.71,2.52.08.29-.27.5-.63.68-.99.68-1.4,1.55-2.71,1.94-4.24,1.18-4.57,4.93-6.16,9.23-7.15,1.08-.25,2.26-.31,3.41-.41.99-.09,1.79-.41,1.27-1.62-.45-1.05-.98-2.27-2.48-2.21-.81.03-1.58.18-2.39.19-.69,0-1.37.32-2.41-.52.92-2.38,2.49-4.24,4.55-5.66,2.87-1.99,6.31-2.89,10.21-2.91.82,0,2.05.41,1.97-.94-.06-1.05-1.33-2.33-2.6-2.62-1.13-.26-2.21-.22-3.26-.04-1.71.29-3.45.48-5.52.45-.03-1.77.36-3.33,1.37-4.19,1.97-1.66,3.43-3.83,5.64-5.25,1.32-.84,2.69-1.55,4.49-1.54,1.6.01,3.1.47,4.66,1.42,1.6.98,2.99.95,3.15.09.24-1.24-.8-2.11-1.81-2.82-1.62-1.14-3.38-1.77-5.18-2.16-.84-.18-1.68-.36-2.52-.57-.72-.17-1.14-.72-.88-1.23,1.37-2.64,2.35-5.64,5.31-6.95,1.83-.81,3.93-1.12,6.06-1.3,1.17-.1,2.35.09,3.59.59.81.33,1.69.56,2.5.61.76.04,1.01-.48.62-1.29-.42-.86-1.11-1.4-1.95-1.86-1.78-.97-3.52-2.02-5.3-2.99-1.08-.59-1.2-1.15-.71-1.96,1.86-3.06,5.04-3.59,8.93-2.71,1.2.27,2.41.89,3.62,1.24.73.21,1.48.26,2.22.33.73.07,1.17-.25,1.27-.93.1-.72-.41-1.35-1.01-1.68-1.05-.58-2.17-.98-3.27-1.42-1.03-.41-2.44-.33-2.61-1.9-.15-1.3.94-1.89,2.73-1.81,2.14.1,4.22.54,6.34,1.74,1.85,1.04,3.79,1.85,5.7,2.74.76.35,1.61.57,1.99-.07.39-.66-.24-1.42-.82-2-.97-.97-2.16-1.55-3.36-2.03-1.77-.71-3.44-1.61-5-2.83,1.4-1.88,3.41-2.24,6.04-.96,2.2,1.07,4.43,1.33,6.64,1.88.53.13,1.21.1,1.39-.41.23-.65-.42-1.2-.9-1.73-.85-.96-2.11-.99-3.51-1.87,2.9-.91,5.59-.99,8.52-.28.83.2,1.69.6,2.51.5,1.17-.14,1.45-1.08.58-2.13-1.46-1.76-3.24-2.84-5.34-3.03-1.12-.1-2.23-.27-3.33-.84-1.36-.7-1.53-1.18-.66-1.98.49-.46,1.55-.54.84-1.73-.7-1.17-2.03-1.87-3.21-1.61-1.28.29-2.36.88-3.08,1.91-.97,1.38-2.04,2.7-2.87,4.18-.82,1.46-2.07,2.18-4.2,2.2Z"/>
    </g>
    <g>
      <path class="st1" d="M67.83,28.25s-.02.02-.04.03c0,0,0-.01-.01-.02h.05Z"/>
      <path class="st1" d="M-89.23,240.96c2.37.53,4.75,1.06,7.12,1.58-.11-.3-.13-.6-.35-.88-.32-.42-.45-.84-.2-1.25.8-1.28,1.38-2.6,2.66-3.79,1.02-.95,1.65-1.93,2.42-2.89.64-.8,1.03-1.62,1.63-2.43,1.76-2.35,3.31-4.73,4.25-7.16.07-.18.06-.37.23-.53,1.31-1.22,1.96-2.49,2.3-3.83.4-1.55,1.17-3.09,2.12-4.6.99-1.57,1.42-3.18,2.44-4.74.72-1.1,1.23-2.24,2.35-3.28,1.55-1.44,2.39-2.96,3.57-4.44.41-.52.7-1.05,1.41-1.51,1.44-.93,2.32-1.95,3-3,.61-.93,1.09-1.87,1.93-2.76,1.86-1.96,2.82-4.03,4.38-6.03,1.51-1.94,2.64-3.92,3.75-5.91.86-1.53,1.69-3.04,1.87-4.61.05-.48-.08-.99.27-1.44,1.01-1.28,1.16-2.6,1.44-3.91.48-2.22.83-4.44,1.9-6.63.26-.53.46-1.07.62-1.6.34-1.19.5-2.4.99-3.58.82-1.96,1.43-3.93,1.59-5.92.12-1.49-.19-3,.82-4.47.16-.23.11-.48.13-.72.11-1.21.25-2.41.3-3.62.05-1.2.81-2.38.49-3.59-.08-.29-.02-.64.34-.87,1.1-.72.99-1.5,1.11-2.28.13-.84-.11-1.7,1.17-2.45.45-.26.38-.58.18-.88-.26-.38.05-.71.45-1.04.32-.27.61-.56.74-.85.86-2.01,2.11-3.99,3.6-5.93,1.27-1.65,1.76-3.43,4.39-4.89.17-.1.34-.22.36-.33.25-1.34,2.52-2.3,3.91-3.43.43-.35,1.14-.55,2.15-.46,1.89.81,2.22,1.83,2.48,2.77.68.34,1.75.4,2.1.96-.12.75-.21,1.65-.41,2.55-.19.87-1.37,1.71-.61,2.61.84.07,1.56.13,2.25.18.64.38,1,.79.93,1.22-.25,1.4.47,2.75,1.06,4.12.23.53-.11,1.09.86,1.56.42.2-.04.47.01.68.27,1.25-.4,2.53.75,3.76.25.27.31.61.16.89-.65,1.25-.3,2.51-.31,3.77-.02,1.81-.1,3.61-.14,5.42,0,.24.09.48.1.72.05,1.62.08,3.25.12,4.87-1.06.73.03,1.53-.5,2.31-.54.8-.35,1.68-.43,2.52-.16,1.51-.35,3.02-.41,4.53-.07,1.5-.35,3-.47,4.49-.1,1.26-1.2,2.5-.44,3.77-.92,1.42-.12,2.92-.93,4.31-.83,1.42.46,2.9-1.07,4.27-.06.05-.02.12,0,.18.64,1.4-.46,2.74-.88,4.11-.36,1.18-1.27,2.34-.85,3.56.1.28-.01.63-.35.87-.62.46-.51.94-.66,1.41-.38,1.25-1,2.5-.36,3.77.14.28,0,.61-.18.9-.69,1.13-.6,2.27-.48,3.41.03.3.04.58-.09.89-.33.82-.52,1.65-.63,2.49-.11.83-.34,1.67-.44,2.51-.05.36.04.72.1,1.08.09.54-.04,1.07-.23,1.61-.77,2.14-1.43,4.28-2,6.43-.59,2.21-.98,4.42-2.23,6.59-.49.86-.94,1.75-1.16,2.64-.46,1.86-.81,3.72-1.04,5.58-.14,1.08,0,2.17.84,3.26,1.77.54,2.72,1.6,5.71,1.54.83-.45,1.45-.89,1.69-1.46.29-.71.72-1.42,1.38-2.08,1.74-1.72,3.1-3.49,4.21-5.29.47-.75,1.32-1.47,1.83-2.22,1.06-1.56,2.6-3.06,3.26-4.67.15-.35.35-.7.59-1.05.6-.86,1.35-1.71,1.83-2.59,1.18-2.17,2.27-4.34,3.35-6.52.64-1.29,1.43-2.59,1.74-3.9.3-1.32,1.63-2.57,1.29-3.92-.03-.12.04-.24.09-.36,1.27-2.9,1.71-5.85,2.43-8.78.54-2.21,1.23-4.42,2.1-6.61.82-2.08,2.29-4.11,2.49-6.22,1.29-1.5.83-3.1,1.63-4.64.55-1.06.94-2.13,1.12-3.21.17-1.03.72-2.02,1.22-3.02.52-1.05-.02-2.17,1.13-3.16.83-.71-.05-1.43.4-2.14,1.05-1.65,1.17-3.35,1.03-5.03-.1-1.28.29-2.52.92-3.74.59-1.14.59-2.27.57-3.41,0-.24-.22-.49-.12-.72.9-2.03.6-4.09.98-6.13.18-.96.22-1.92.62-2.88.51-1.24.86-2.52.71-3.77-.13-1.1,0-2.15.47-3.22.35-.82.95-1.64.33-2.5-.2-.28-.08-.6,0-.9.84-3.13-.23-6.26-.35-9.38-.14-3.49-.46-6.98,0-10.48.13-.96.55-1.9,1.17-2.83.88-1.33,1.72-2.65,2.03-4.04.51-2.27,1.71-4.5,3.34-6.69.34-.46.32-.96,1.01-1.37.3-.18.42-.45,1.44-.41.33.71.1,1.54,1.49,2.16.17.08.11.23.16.35.89,2.19.78,4.44,2.1,6.61.07.11-.02.24-.03.36-.06.72.04,1.46-.21,2.17-.27.75.52,1.42.66,2.14.37,1.91,1.08,3.82,1.88,5.72.28.66.61,1.3.55,1.97-.03.36.12.72.22,1.07.08.3.48.64.23.88-.72.67-.22,1.35.03,1.96.29.69-.41,1.3-.13,1.96.35.84.02,1.67-.25,2.51-.3.95-.61,1.93-.4,2.88.33,1.52-.04,3-.61,4.49-.16.42-.63.86-.42,1.24.65,1.23-.3,2.4-.47,3.59-.12.83-.81,1.65-.27,2.51.1.16-.09.36-.23.53-1.21,1.5-.29,3.13-1.84,4.61-.37,2.21-.76,4.43-1.12,6.64-.09.53.71,1.08-.14,1.6-.3,1.5-.75,3-.87,4.5-.19,2.35-1.5,4.65-1.8,7-.1.78.19,1.57-.06,2.32-.68,2.04-.92,4.07-.66,6.12.03.23-.19.47-.35.69-.74,1.06-.99,2.15-.37,3.21.28.47.89.86.38,1.37-.47.46.63.96-.02,1.42-1.02.73-.75,1.53-.88,2.3-.19,1.14-.11,2.3-.35,3.44-.25,1.18.56,2.4-.68,3.55-.05.05.03.12.03.18-.03,1.32-.13,2.64-.06,3.95.08,1.5.33,3,1.97,4.39.25.21.24.47.34.66-.78.65-1.82,1.22-2.16,1.85-.69,1.29-2.56,2.44-2.63,3.81-.02.33-.63.68-1.14.98-1.92,1.11-2.69,2.42-3.58,3.68-1.71,2.42-3.09,4.87-4.8,7.29-.41.58-1.37,1.1-1.42,1.7-.11,1.58-1.32,3.08-2.21,4.59-.61,1.04-1.15,2.12-2.5,3.07-1.12.79-1.97,1.62-2.41,2.51-.51,1.01-1.47,1.95-2.81,2.84-.31.21-.74.43-.75.65-.07.83-1.24,1.48-2.11,2.18-.53.43-1.13.84-1.24,1.35-.08.34-.58.68-.96,1-.7.6-1.81,1.13-1.75,1.84-1.58,1.18-2.57,2.43-3.02,3.75-.1.28-.67.54-.99.81-1.62,1.42-2.57,2.96-4.73,4.28-.16.1-.21.23-.24.34-.2,1.04-2.22,1.85-2.3,2.9-1.71.89-2.03,2.01-2.88,3.02-.94,1.12-1.89,2.28-1.88,3.5,1.85.41,3.69.82,5.54,1.23-.07-.42-.35-.85-.17-1.25.73-1.65,2.09-3.24,3.46-4.82.59-.68,1.62-1.28,1.79-2.03.06-.27.45-.57,1.38-.67-.39.65-.3,1.32-1.11,1.93-.49.36-.11.7.42,1.03,1.06.33,2.18.63,3.48.77.99.02,1.84-.07,2.42-.46,1.54-2.89,2.41-5.88,4.35-8.78.74-1.1,1.14-2.24,2.05-3.31,1.35-1.58,2.85-3.16,4.14-4.74,1.25-1.53,2.74-3.03,3.7-4.6.42-.69.95-1.42,1.71-2.03,1.55-1.24,2-2.66,3.99-3.82.17-.1.32-.21.37-.33.96-2.08,3.92-3.88,5.21-5.92,2.24-1.58,2.9-3.39,4.5-5.07,1.44-1.51,2.21-3.1,3.45-4.64.91-1.13,2.17-2.24,2.3-3.46.02-.18.07-.38.32-.52,1.29-.71,1.62-1.56,2.04-2.37.47-.9,1.6-1.68,2.21-2.54,2.34-3.35,3.71-6.79,5.49-10.18,1.32-2.52,2.11-5.09,3.3-7.62.75-1.6.58-3.23,1.61-4.82.82-1.27,1.19-2.59,1.36-3.92.13-1.01.65-2.02,1.05-3.03.65-1.66,1.77-3.28,2.78-4.9.71-1.16,1.91-2.27,1.91-3.5,0-.41.37-.82.63-1.23.67-1.04,1.7-2.05,1.68-3.15,0-.17.12-.36.31-.52,1.49-1.2,1.82-2.54,2.42-3.82,1.21-2.59,2.78-5.16,2.97-7.81.02-.24-.02-.51.25-.7.77-.56.67-1.17.78-1.77.24-1.26.48-2.52.75-3.78.28-1.33,1.19-2.59,2.9-3.75,1.22-.83,2.28-1.71,3.5-2.54,2.14-1.46,3.94-2.97,4.54-4.67.12-.33.45-.7,1.76-.93-.8,1.62.32,3.15.02,4.71-.2,1.01-.41,2.01-.2,3.04.39,1.91.23,3.85.31,5.77,0,.24-.05.49.05.72.74,1.6.58,3.23.89,4.85.11.6.13,1.19.46,1.79.42.76.96,1.57.66,2.31-.29.71-.06,1.32.44,1.94.51.65.62,1.3.56,1.97-.06.6-.09,1.2.08,1.8.63,2.27,1.06,4.55,1.66,6.82.38,1.43.87,2.85-.21,4.27-.25.34-.11.72-.13,1.08-.08,1.56-.82,3.11-.52,4.68-1.37,2.1-1.11,4.28-2.08,6.4-.14.29-.31.6-.24.89.22.97-.09,1.9-.62,2.85-.26.46-.08.96-.04,1.44.07.84.17,1.68-.41,2.51-1.48,2.12-1.79,4.26-.78,6.43-1.15,1.12-1.44,2.33-1.91,3.51-.5,1.25-1.68,2.42-2.6,3.62-.48.62-1.49,1.19-2.31,1.77-.83.59-.45,1.33-1.53,1.87-.66.33-.13.85-1.21,1.13-1.05.27-.33.8-.9,1.17-.56.36-1.01.74-1.5,1.12-.14.11-.34.22-.34.33-.02.9-1.4,1.58-2.37,2.32-.97.75-2.34,1.47-2.81,2.27-.5.85-1.38,1.6-2.44,2.32-1.85,1.25-2.24,2.75-4.3,3.96-.16.09-.19.23-.2.35-.19,1.3-1.43,2.45-3.15,3.54-.32.2-.73.42-.78.65-.28,1.2-2.12,2.11-3.38,3.13-.93.75-1.87,1.47-2.38,2.32-.51.85-2.03,1.61-3.04,2.42-.26.21-.27.47-.34.7-.33,1.1-1.34,2.09-2.77,3.03-.54.35-.95.75-1.27,1.15-.95,1.2-1.55,2.44-3.12,3.55-.29.2-.53.45-.56.68-.07.51-.65.94-1.3,1.34-3.21,1.99-4.48,4.34-7.57,6.35-.23.15-.45.34-.45.5,0,.58-.73,1.04-1.34,1.52-.34.27-.89.54-.9.82-.03.78-1.56,1.34-1.77,2.03-.23.76-1.15,1.36-1.92,2.01-.13.11-.34.22-.35.33-.08,1.02-1.66,1.8-2.75,2.65-1.03.8-2.31,1.54-2.57,2.49-.09.33-.82.64-1.27.96-.75.16-1.52.33-2.23.48-.05.23-.1.41-.14.59,2.37.53,4.75,1.06,7.12,1.58,1.45-1.12,3.08-2.18,3.93-3.44.65-.97,2.31-1.83,3.51-2.74.7-.53,1.14-1.09,1.58-1.67,1.35-1.77,2.47-3.59,4.8-5.22.52-.37,1.04-.74,1.03-1.19,0-.17.14-.37.37-.51,2.56-1.65,3.3-3.63,6.03-5.24.67-.4,1.17-.84,1.23-1.35.03-.23.29-.48.62-.67,1.94-1.1,2.32-2.47,3.84-3.65.47-.36.41-.82.75-1.22,1.4-1.64,2.13-3.39,4.56-4.87.16-.1.31-.21.39-.33.36-.51.33-1.03,1.46-1.47.78-.3.86-.87,1.45-1.28,2.34-1.62,3.65-3.41,5.22-5.16,1.06-1.18,1.63-2.46,3.5-3.51.93-1.61,3.16-2.99,5.06-4.42.85-.64.63-1.42,1.75-2.04.95-.53,1.7-1.14,1.68-1.84,1.74-1.2,2.15-2.62,4.03-3.82,1.59-1.01,2.12-2.23,3.08-3.36,1.3-1.53,2.54-3.07,2.99-4.69,1.47-1.13,1.8-2.41,2.76-3.6.09-.11.33-.23.33-.34-.1-1.73,2.22-3.22,2.88-4.88.19-.47.38-.91.44-1.39.11-.95.42-1.94,1.23-2.82,1.82-1.98,2.94-4.03,3.9-6.09,1.2-2.6,2.84-5.15,4.55-7.69,1.25-1.85,2.92-3.64,4.25-5.48,1.29-1.78,3.28-3.48,3.75-5.35.17-.66,1.16-1.22,1.52-1.88.41-.77.81-1.52.9-2.3.09-.78.18-1.56.61-2.33.48-.87.46-1.77.42-2.68-.08-2.23.36-4.47.6-6.7,1.02-.57-.17-1.19.3-1.77.48-.59.4-1.19.42-1.8.06-1.81.59-3.61,1.46-5.38.41-.84-.18-1.67.52-2.49.62-.73.83-1.52,1.1-2.29.27-.77.78-1.53,1.17-2.28.92-1.75,2.39-3.46,5.2-4.83,1.01-.02,1.33.18,1.48.42.72,1.11,1.93,2.16,1.85,3.35-.02.35.45.7.62,1.06.14.29.41.63.18.88-.45.51-.12.96.19,1.42.75,1.11,1.3,2.2.75,3.37-.33.7.57,1.4.67,2.13.11.79.12,1.55-.41,2.38.88,1.05,1.23,2.14.59,3.32-.41.74-.17,1.57.2,2.33.58,1.17-.55,2.26-.62,3.4-1.34.69-.84,1.5-.67,2.24.17.73.22,1.47-.13,2.16-.52,1.02-.45,2.04-.68,3.06-.25,1.13-.63,2.26-.52,3.39.11,1.15-1.03,2.22-.95,3.36.04.54-1.32.97-.93,1.56-1.28,1.97-2.1,3.97-2.89,5.98-.58,1.48-1.26,2.96-2.8,4.34-.18.16-.24.35-.27.53-.23,1.69-1.53,3.31-2,4.98-.24.86-1.54,1.55-1.71,2.42-.16.82-.67,1.65-1.87,2.39-.53.33-.61.8-.68,1.22-.23,1.26-1.08,2.48-1.76,3.71-.1.18.03.39-.17.53-1.74,1.2-1.16,2.59-1.97,3.76,1.21,1.51,3.84,1.67,6.99,1.48,1.42-.5,2.26-1.19,2.66-1.86.43-.72,1.16-1.36,1.95-2.01.2-.16.48-.34.47-.5-.08-1.37,2.05-2.5,2.57-3.81.14-.34.68-.67,1.17-.98,1.26-.79,1.72-1.67,1.9-2.57.29-1.4,1.21-2.71,2.81-3.92.06-1.55,1.44-2.97,2.09-4.45.13-.29.45-.58.5-.87.16-1.09.68-2.14,1.56-3.17,1.03-1.19,1.2-2.46,1.91-3.69.89-1.52,1.76-3.03,3.43-4.45.19-1.19,2.27-2.09,3.05-3.19.78-1.09,1.7-2.17,2.56-3.25.95-1.19,1.57-2.43,2.26-3.66.95-1.7,2.24-3.35,3.59-5.01.84-1.03,1.51-2.08,3.03-3,.1-1.05,1.92-1.88,2.32-2.91.22-.57,1.22-1.1,1.93-1.62.87-.64,1.55-1.29,1.81-2.03.23-.65.73-1.28,1.18-1.92.87-1.22.91-2.49,1.63-3.72,1.07-1.82,1.7-3.65,2.31-5.5.24-.74-.17-1.43.02-2.15.21-.78.02-1.58.3-2.35.26-.72-.75-1.43.11-2.15.22-.18-.06-.48-.22-.71-.46-.66-.43-1.31-.04-1.97.21-.35.33-.71.34-1.07.04-2.18,1.14-4.3,1.69-6.46.43-1.68,1.59-3.29,2.54-4.92.5-.87.56-1.76,1.47-2.62.85-.81,1-1.75,1.49-2.62.49-.88,1.48-1.69,1.95-2.58.46-.86.84-1.78,2.18-2.55.57-.33-.08-.87,1.07-1.13.71-1.18,2.65-1.94,5.02-2.63.91-.27,1.37-.79,2.53-1,.39-.07.78-.14,1.16-.21,1.29.93,2.4,2.3,2.74,3.24.43,1.19.93,2.37,1.4,3.56.77,1.96,1.45,3.9.54,5.91-.69,1.53-.68,3.12-.98,4.68-.08.42-.05.85-.3,1.26-.21.34-.74.66-1.1.96-.09.56.69,1.11-.25,1.62-.44,1.37-1.45,2.69-1.99,4.05-.09.24-.17.49-.04.72.31.55.01,1.04-.36,1.58-.56.8-.66,1.66-.84,2.49-.35,1.67-.8,3.35-.19,5.02.22.6.5,1.2-.43,1.75-.04,1.19-1.43,2.37-.03,3.44-.99,1.39-1.92,2.65-2.78,3.92-.19.29-.31.61-.17.9.74,1.49-.4,2.84-1.74,4.19-.49.5-.69,1.04-.89,1.58-.51,1.37-1.54,2.67-2.52,3.99-.92,1.24-2.04,2.47-1.6,3.87.31.98-.38,2.03-.86,3.03-.2.41.33.69.5,1.09-.38.15-.81.31-1.35.51-.37.5-.79,1.07-1.25,1.68.02.76.95,1.46,1.76,2.24-2.18,1.2-2.3,2.82-4.51,4.06-.59,1.6-3.04,2.87-4.83,4.25-1.06.82-1.37,1.71-1.85,2.58-.73,1.34-1.56,2.65-2.86,3.92-1.07,1.05-1.72,2.17-2.34,3.28-1.18,2.11-2.79,4.15-4.43,6.21-.7.87-1.56,1.68-2.53,2.5-.39.32-.67.67-.94,1.01-.69.86-1.32,1.73-1.07,2.65-1.33.97-2.64,1.93-3.96,2.88-.37.26-.67.58-1.24.75-1.43.43-2.18.95-2.35,1.67-.08.34-.67.67-1.09.98-1.13.86-2.32,1.7-3.45,2.56-.7.53-1.56,1.03-1.62,1.67-.02.23-.33.46-.63.67-1.71,1.22-2.64,2.54-3.49,3.88-.18.29-.57.56-.9.83-.59.49-1.33.95-1.34,1.52,0,.17-.17.37-.43.51-1.9,1.05-2.13,2.37-3.64,3.49-.48.36-.43.82-.77,1.22-1.81,2.1-2.87,4.28-4.39,6.41-.2.29-.07.64-.45.87-1.58.98-1.66,2.18-3.22,3.17-2.02,1.28-3.68,2.64-5.54,3.96-.96.68-1.68,1.41-3.39,1.9-.68.19-.96.6-1.45.91-.96.61-1.54,1.32-3.2,1.73-.46.11-.94.4-.92.6.05.64-1.22.94-2.01,1.34-1.86.93-3.53,1.92-5.58,2.79-1.11.47-1.76,1.12-2.63,1.69-1.24.82-2.05,1.75-4.07,2.37-.66.2-.96.61-1.4.92-.81.58-1.48,1.2-2.44,1.74-.96.54-.84,1.24-2.14,1.74-1.14.45-1.76,1.12-2.56,1.7-.8.58-1.77,1.12-1.78,1.84,0,.22-.36.48-.74.65-1.63.74-2.04,1.68-2.83,2.57-1.17,1.31-1.6,2.68-2.43,4.01-.75,1.21-1.79,2.4-2.61,3.62-.5.74-1.57,1.42-3.08,1.9.07,1.09,2.08,1.61,3.71,2.2.85.3,1.97.6,3.35.26.91-1.35,1.8-2.74,2.77-4.11,1.01-1.44,1.86-2.89,2.57-4.36.45-.93,1.64-1.8,2.27-2.72,1.51-2.19,4.67-4.04,7.28-6,2.63-1.98,5.39-3.93,8.13-5.88.43-.31.97-.62,1.64-.85.72-.25,1.18-.54,1.64-.85.93-.62,1.58-1.31,3.21-1.73.46-.12.71-.39,1.01-.59.77-.52,1.41-1.05,2.71-1.43.68-.2,1.03-.58,1.5-.89.47-.31.73-.72,1.38-.93,2.59-.83,3.67-2.05,5.24-3.13,2.58-1.78,4.84-3.64,7.53-5.39,2.81-1.83,4.21-3.84,5.4-5.89.81-1.4,1.28-2.84,3.03-4.13.14-.1.19-.23.26-.34.65-1.17,1.14-2.36,2.83-3.4.19-1.31,2.55-2.28,3.27-3.53.7-1.21,2-2.37,2.76-3.59.25-.4.81-.78,1.27-1.16.59-.49,1.34-.93,1.43-1.51.04-.28.49-.56.82-.83.54-.43,1.17-.85,1.71-1.28.54-.43,1.46-.83,1.34-1.33-.14-.57,1.26-.75,1.51-1.25.35-.7,1.27-1.35,2.82-1.8.46-.14.98-.37,1.03-.57.18-.86,2.41-1.33,2.35-2.26-.03-.42,1.37-.84,1.53-1.29.43-1.22,2.25-2.21,3-3.38.58-.91,1.53-1.81,2.33-2.71,1.65-1.86,3.2-3.73,4.41-5.65.92-1.45,2.17-2.87,2.52-4.37,1.48-1.19,2.03-2.5,2.8-3.78.73-1.22,2.21-2.34,3.03-3.56.46-.68,1.64-1.29,2.45-1.94,1.07-.86,2.53-1.63,2.81-2.65.12-.45,1.03-.86,1.59-1.29.57-.43,1.17-.85,1.72-1.28.61-.48,1.6-.97,1.66-1.47.07-.56,1.24-.8,1.45-1.26.3-.68,1.36-1.21,2.08-1.8.65-.54,1.37-1.05,1.66-1.67.26-.57,1.22-1.09,1.87-1.64.97-.81,2.62-1.52,2.84-2.45.21-.87,2.21-1.47,1.96-2.38,1.8-1.85,2.56-3.82,3.93-5.71,1.58-2.18,2.94-4.39,4.46-6.58.52-.75,1.03-1.5,1.53-2.25.08-.12-.01-.26.13-.36,1.16-.79,1.51-1.7,2.37-2.52.77-.72.71-1.54,1.88-2.21,1.03-.59,1.5-1.29,1.93-2.01.34-.57,1.69-1.05,1.95-1.62.67-1.48,2.84-2.65,4.52-3.93,1.11-.85,2.05-1.75,4.08-2.36.56-.17.81-.5,1.2-.76.39-.26.66-.56,1.16-.78,4.12-1.74,6.19-3.98,9.25-5.98.86-.56,1.47-1.16,2.89-1.59.89-.27,1.3-.8,1.94-1.21.63-.4,1.28-.8,1.83-1.14.78,0,1.16.1,1.29.27.64.86,1.45,1.66.94,2.64-.38.73.24,1.55.43,2.39-1.62,1-2.2,2.17-2.41,3.38-.05.3-.15.6-.29.89-.38.78-.54,1.57-.2,2.34.34.77.95,1.48-.34,2.23-.42.24-.17.71,0,1.06.2.41.64.81.92,1.15-.63,1.24-.81,2.44-2.8,3.41-.34,1.01-1.35,1.96-1.89,2.95-.23.42-.52.81-.94,1.2-1.02.94-1.76,1.91-1.95,2.94-.24,1.32-1.13,2.59-2.21,3.84-.69.79-1.46,1.58-.92,2.45-.73,1.58-.26,3.27-2.68,4.69-.9.53-.76,1.16-1.09,1.74-.27.48-.48.93-1.1,1.36-1.06.73-2.19,1.44-2.35,2.33-.07.38-1.06.56-1.93.78,1.05.99.16,1.92-.83,2.73-.94.77-.82,1.68-2.09,2.37-1.3.71-.82,1.64-2.03,2.38-.6.36-.4.93-.58,1.46-2.64-.06-2.38,1.25-4.3,1.49-.52.95-1.28,1.82-.1,2.63-.29.6-1.84.7-2.42,1.3-.1.65-.22,1.43-.31,1.99-1.34,1.56-2.47,2.92-3.67,4.27-.7.78-1.55,1.54-2.27,2.32-.36.39-1.04.84-.81,1.18.56.84-.56,1.53-.74,2.29-.04.18-.27.34-.35.52-.23.53-2.05.58-2.16,1.1-.1.44-.42.82-.96,1.19-.61.43-1.28.81-2.34,1.08-.23.06-.45.18-.51.29-.49.91-2.29,1.51-3.29,2.3-.96.75-2.03,1.49-3.08,2.25.38.35.74.67,1.1,1-.05,1.25-1.37,2.32-2.95,3.36-1.56,1.02-2.45,2.23-5.1,2.94-.14.33-.26.62-.39.92-2.21.85-3.69,1.89-4.63,3.05-.97,1.2-.91,1.21-3.33,2.17-.06.66-.81,1.31-1.69,1.95-3.22,2.33-6.4,4.67-9.58,7.01-.79.58-1.64,1.13-1.85,1.83-.14.45-.97.87-1.49,1.31-1.42,1.19-3.48,2.25-4.07,3.61-.2.46-.99.88-1.63,1.29-1.94,1.24-2.93,2.62-3.88,4.02-.16.23-.24.49-.57.68-1.71.95-1.55,2.21-3.22,3.16-.27,1.19-1.98,2.14-3.29,3.15-1.18.91-1.59,1.93-2.41,2.89-.87,1.02-1.14,2.1-2.59,3.06-.75.5-.91,1.13-1.44,1.69-.53.56-1.59,1.04-1.53,1.68-1.54,1.17-1.88,2.53-3.66,3.67-.87.56-1.69,1.13-1.83,1.83-.07.34-.72.66-1.11.98-1.42,1.19-3.46,2.26-4.02,3.62-.16.4-.97.75-1.44,1.13-1.38,1.13-3.41,2.14-3.84,3.45-.09.28-.66.54-1.01.81-.35.27-.9.52-1.01.81-.55,1.35-2.46,2.45-4.03,3.61-.14.11-.37.21-.4.32-.25,1.12-2.05,2-2.89,3.01-.44.54-.84.99-1.95,1.33-.33.1-.55.29-.71.46-.42.44-.53.97-1.22,1.32-.63.32-1.46.59-1.95.98-.14.11-.26.22-.45.31-1.22.59-.85,1.38-1.72,2.04-.76.57-2.44.92-2.44,1.66-1.68,1.22-3.35,2.44-5.22,3.8-.75.23-1.81.55-2.97.9.54.67,1.05,1.29,1.69,2.08,1.89.49,3.84,1.28,6.35,1.18,1.47-.37,2.13-.78,2.16-1.16.07-.88,1.63-1.55,1.77-2.42.06-.34.63-.67,1.05-.99,1.19-.91,2.44-1.81,3.64-2.72.63-.48,1.37-.92,1.51-1.5.08-.34.59-.68,1-1,1.12-.86,2.31-1.7,3.44-2.56.77-.58,1.75-1.13,1.79-1.84.01-.22.42-.45.69-.66,1.24-.96,2.75-1.86,3.14-2.98.14-.4.92-.75,1.4-1.13.61-.48,1.18-.95,1.5-1.5.37-.63,1.31-1.21,2.02-1.81.77-.65,1.93-1.22,1.99-2,.02-.28.55-.55.9-.82.63-.48,1.26-.97,1.96-1.43,2.03-1.35,3.04-2.86,4.27-4.34.28-.34.64-.67,1.06-.99,1.56-1.18,3.13-2.35,4.76-3.51,1.48-1.06,2.82-2.12,3.06-3.36.15-.78,1.72-1.41,1.63-2.24,1.61-.9,1.6-2.06,2.91-3.02.83-.61,1.14-1.36,1.45-2.06.19-.43.62-.8,1.09-1.18,1.07-.86,2.62-1.64,2.69-2.66,1.74-1.01,2.07-2.25,3.38-3.33.97-.8,1.86-1.66,2.25-2.53.34-.75,1.16-1.37,2.02-2,.81-.59,1.48-1.19,1.4-1.86.76-.28,1.41-.52,2.25-.83.09-.8,1.11-1.53,2.13-2.27.94-.68,2.05-1.35,1.74-2.17,1.75-.54,3.05-1.06,3.17-1.96.06-.44.95-.88,1.53-1.3,3.69-2.71,7.43-5.41,11.08-8.13.99-.74,2.22-1.43,2.74-2.28.23-.37,1.25-.65,1.75-1.01,1.87-1.32,3.68-2.64,5.5-3.97.22-.16.5-.31.61-.49,1.28-2.16,4.63-3.91,7.12-5.84.42-.32.91-.62,1.68-.84.47-.14.83-.34,1.17-.54,3.12-1.82,4.58-3.9,5.83-6.01-.14-1.6,1.64-3.03,2.49-4.55.5-.89,1.44-1.7,2.4-2.52.94-.81,1.49-1.69,2.18-2.55,1.23-1.54,2.31-3.1,3.71-4.61.78-.84,2.03-1.62,3.19-2.4,2.09-1.41,3.27-2.95,4.45-4.5.18-.23.34-.47.66-.67,1.65-1.04,2.03-2.25,3-3.38,1.66-1.93,2.59-3.94,3.84-5.91.52-.81,2.07-1.49,1.98-2.38,1.88-1.84,2.66-3.8,4.06-5.69.98-1.33,1.56-2.69,2.14-4.05.43-1,1.25-1.97,1.84-2.96.59-.99,1.53-1.94,1.56-2.98.01-.46.68-.91.89-1.38,1.2-2.78,2.41-5.56,2.9-8.39.07-.42.31-.83.43-1.25.8-2.87,1.31-5.75,1.36-8.63.03-1.56-.38-3.12-1.02-4.67-.07-.18-.05-.36-.07-.56-.72-1.05-3.05-1.41-5.07-1.83-2.21-.24-4.27,0-6.45.07-2.2,1.1-4.42,2.21-7.05,3.53-.24.84-1.46,1.77-3.13,2.65-1.22.65-1.85,1.48-2.79,2.22-.75.59-1.62,1.16-2.35,1.76-1.01.82-2.34,1.53-4.4,2.06-.06-.53.81-.88,1.28-1.28.05-.04.1-.08.15-.12-3.32,1.98-7.66,3.76-11.3,5.62.24.06.45.13.57.22.11,1.46-1.75,2.62-2.79,3.85-1.06,1.24-3.09,2.35-4.85,3.63.24.23.52.5.83.79-.77.95-1.46,1.92-2.46,2.86-.97.92-.93,2.01-1.76,2.96-1.24,1.41-1.78,2.91-3.27,4.29-.18.16-.38.34-.37.52.07,1.17-1.1,2.23-1.6,3.35-.11.24-.03.52-.32.7-1.2.76-1.12,1.61-1.29,2.52-1.8.85-1.87,2.07-3.27,3.1-.81-.43-.21-.83.02-1.12,1.14-1.44,1.4-2.95,2.35-4.4.15-.23-.04-.53.26-.71,1.92-1.15,1.6-2.56,2.89-3.78,0-1.44,1.22-2.81,1.13-4.28-.08-1.24-.26-2.51.22-3.77.45-1.18.32-2.4.76-3.6.55-1.49.54-3,.97-4.5.51-1.79.57-3.6,1.65-5.36,1.18-1.92.95-3.95,2.69-5.84.15-.16.06-.36.08-.54.24-2.35.48-4.71.7-7.06.03-.36-.1-.72-.13-1.08-.08-1.14-.29-2.29-.16-3.43.1-.86-.18-1.68-.75-2.5-.51-.75-.96-1.51-1.3-2.29-.45-1.05-1.67-2.05-3.25-2.94-.92-.52-2.34-.81-3.79-.92-2.34-.18-4.75-.3-7.13-.3-1.96,0-3.81.3-5.38.83-1.43.48-6.02,2.55-7.01,3.25-1.34.95-2.63,1.91-3.47,2.52-.92.77-.19,1.18-.4,1.73-2.16,1.27-2.55,2.93-3.85,4.46-.58.68-.5,1.43-.68,2.14-.29,1.15-1.14,2.23-1.75,3.33-.71,1.29-1.53,2.57-1.52,3.91,0,.85-.15,1.69-.25,2.54-.04.3.09.66-.25.89-1.64,1.11-1.04,2.35-1.53,3.53-.28.68,1.17,1.3.36,1.92-.87.66-.03,1.31-.26,1.96-.23.65-.14,1.33-.17,1.99-.01.24-.04.48.04.72,1.02,2.86-.38,5.61-1.86,8.39-.77,1.45-1.62,2.93-1.27,4.52-.93.68-1.6,1.47-2.1,2.29-.89,1.45-1.94,2.89-3.13,4.29-1.2,1.41-2.67,2.79-3.46,4.26-2.93,1.93-3.61,4.18-5.38,6.27-.18.21-.2.48-.05.7.45.68-.23,1.25-.78,1.86-1.16,1.28-2.17,2.59-3.24,3.88-.33,0-.68.06-.91,0-1.07-.22-2.11-.46-3.11-.68-.75-.91-.54-1.81-.06-2.68.89-1.61.51-3.25.92-4.87.3-1.2.52-2.4.74-3.6.21-1.14,0-2.29.71-3.42.21-.34.11-.72.07-1.08-.02-.24-.22-.48-.27-.72-.16-.96.91-1.91.38-2.86-.54-.97-.17-1.92-.18-2.88,0-.54.22-1.09-.32-1.62-.17-.16-.28-.36-.24-.53.15-.85.18-1.69-.53-2.51.94-1.06-.37-2-.86-2.99-.27-.53-.43-1.07-.48-1.61-.09-.92-.69-1.78-1.27-2.66-.56-.86-1.89-1.51-3.18-2.17-.83-.42-2.12-.67-3.56-.68-.75,0-1.49-.01-2.39-.02-1.42.39-2.9.79-4.15,1.14-2.08,1.08-2.49,2.3-3.36,3.43-.56.73-1.28,1.48-1.16,2.28.04.23-.1.5-.38.69-1.22.87-1.45,1.84-1.58,2.79-.23,1.68.03,3.38-1.7,4.98.2.9-.62,1.77-.48,2.69.14.95-.3,1.91-.52,2.87-.21.9-.41,1.8-.7,2.69-.47,1.42-.16,2.87-.79,4.29-.15.35,0,.72.04,1.08.03.24.2.49.13.72-.88,2.74-.62,5.54-2.43,8.23-1.01,1.5-1.93,3.02-3.52,4.44-.3.27-.5.56-.66.85-.78,1.47-2.32,2.83-3.45,4.25-.03.04-.26.05-.52.11-.05-1.33-.13-2.62.55-3.93.6-1.17.56-2.41.42-3.61-.33-2.88-.77-5.76-1.29-8.64-.38-2.1-.75-4.2-1.17-6.3-.34-1.68-.75-3.35-1.17-5.02-.09-.36-.08-.7.03-1.07.76-2.57,1.69-5.13,1.84-7.73.07-1.19.69-2.38,1.15-3.57.39-1.01,1.33-1.96,2.21-2.91.47-.51.84-1.01,1.16-1.54.87-1.45,1.71-2.92,3.59-4.29-.26-.63-.46-1.29-.15-2.01.53-.44,1.13-.92,1.76-1.44-.25-.47-.5-.94-.73-1.36.11-.17.13-.3.26-.4.83-.64,1.64-1.3,2.56-1.92,2.06-1.41,3.87-2.85,4.39-4.5.07-.23.36-.46.67-.66,1.63-1.04,2.28-2.21,2.96-3.38.13-.23.28-.47.56-.68,1.36-1.01,1.8-2.15,2.67-3.23.6-.74,1.24-1.47,1.78-2.22.78-1.09,1.76-2.15,2.51-3.24.74-1.09,2.05-2.12,3.11-3.17.11-.11.35-.21.41-.32.9-1.96,4.13-3.47,6.02-5.13,1.73-.63,3.91-.89,4.49-1.81.94.07,1.51.11,2.35.16.87-.27,1.86-.62,2.96-.91,1.03-.27,1.71-.66,2.52-1.01,2.01-.88,4.28-1.66,6.35-2.52,1.03-.43,2.35-.75,2.99-1.34.22-.2.75-.37,1.22-.51,4.42-1.34,8.3-2.93,12.33-4.44,2.81-1.05,5.23-2.27,7.78-3.39-.05-.4-.16-.75-.97-1.05-.52.05-1.14.08-1.66.18-1.43.28-2.83.6-4.23.91.68.54,1.78-.1,2.43.39-.14.12-.34.34-.63.55-.3.21-.59.44-1.04.59-1.84.59-3.43,1.29-4.84,1.94-1.52-.18-.54-.77-2.06-1.01-.67-.08-1.45.15-2.09.54-.83.5-1.8.93-3.43.99,0,0-.02.01-.02.02-.01,0-.02,0-.04,0-.88.93-3.05,1.44-4.48,2.19-.21.11-1.04.31-1.32-.09.73-.31,1.4-.62,2.15-.91,1.13-.44,2.01-1,3.65-1.19,0,0,.02-.01.02-.02.01,0,.02,0,.04,0,.64-.47,1.19-.95,2.39-1.27.58-.15,1.01-.45,1.28-.72.44-.43.11-.8-.85-1.02-1.36.13-1.4.69-2.32.9-.96.22-1.52.57-2.05.94-.22.15-.47.33-.82.42-2.07.56-3.95,1.26-6.57,1.64.17-.69.83-1.16,1.9-1.48,1.02-.31,1.56-.72,2.17-1.14,1.37-.93,2.54-1.89,4.52-2.68,1.34-.53,1.96-1.35,2.97-2.02,1.47-.97,2.58-2.02,4.75-2.83,1.26-.47,1.84-1.24,2.75-1.86,1.05-.72,1.88-1.5,3.65-2.04.75-.23,1.04-.7,1.51-1.05-.81-.3-1.58.02-2.33-.13-.28-1.04,3.32-1.18,3.17-2.24-.4.01-.96-.04-1.17.04-1.98.81-4.49,1.4-5.94,2.42-.28.2-.84.34-1.22.52-1.42.69-3.22,1.24-4.39,2.03-.5.34-1.5.55-2.63.95.05-.68,1-1.02,1.25-1.47-.22-.26-.45-.54-.72-.88,1.95-1.07,1.67-2.5,3.58-3.62-1.51.48-2.6,1.1-2.85,1.78-.28.76-1.18,1.36-1.99,1.99-.55.43-1.16.85-1.73,1.27-.86.63-1.82,1.24-1.92,2-.04.28-.47.57-1.19.75-.65-.62-.14-1.25-.07-1.97.91-.66,1.94-1.4,2.94-2.15.64-.47,1.39-.92,1.43-1.51.02-.28.45-.57.79-.83.84-.64,1.74-1.27,2.68-1.96.86-.18,1.78-.37,2.7-.56,1.26-.61,1.63-1.38,2.37-2.08.05-.04-.05-.12-.12-.17-.06-.05-.17-.1-.26-.15-1.04-.12-1.72.1-2.18.42-1.36.94-2.65,1.9-3.99,2.85-.52.37-1.02.74-1.63,1.09-.23.13-.77.17-1.38-.05,1.24-2.08,2.51-4.21,3.76-6.31-.37-.1-.6-.17-.91-.25-1.92.52-2.02,1.59-3.8,2.16-.56-.19-.76-.43-.59-.67.48-.69,1.08-1.37,1.53-2.06.26-.4.3-.82.43-1.21-.82-.1-1.34,0-2.06.21-.59.83-1.36,1.72-2.39,2.59-1.01.85-.87,1.86-1.73,2.78-.79.84-.43,1.77-.65,2.65-.41,1.67-.68,3.35-1.39,5.01-.12.28.16.59.25.85-.34.63-1.54,1.09-1.46,1.75.03.27-.49.56-.81.83-.77.65-1.92,1.22-1.92,2.01,0,.27-.59.55-.93.82-.75.59-1.82,1.13-1.71,1.84-1.84,1.32-2.83,2.75-3.63,4.23-.37.68-1.87,1.25-1.35,1.94-.97.35-1.63.59-2.31.84-.27.46-.71.93-.76,1.4-.07.57-.47,1.07-1.25,1.52-1.16.66-1.63,1.42-1.88,2.19-.28.87-.66,1.7-3.05,1.98-.16.73-.29,1.32-.45,2.03-.68.49-1.48,1.08-2.28,1.66-.29.21-.76.42-.82.64-.31,1.05-1.81,1.9-2.85,2.83-.72.65-1.19,1.36-1.52,2.06-.2.42-.38.83-.96,1.19-1.62,1.04-2.19,2.21-2.84,3.38-1.03,1.87-2.34,3.7-4.07,5.49-.86.89-1.74,1.78-2.62,2.67-.88.88-1.81,1.78-2.39,2.69-.3.48-1.72.64-1.49,1.24.2.53-1,.97-1.01,1.56-.01.45-.9.88-1.22,1.34-.32.46-.23.97-.63,1.41-1.1,1.24-1.89,2.51-2.72,3.78-.11.16-.47.3-.71.44-.76-.01-.48-.21-.49-.35-.04-2.59-.14-5.18-.07-7.76.03-.96.41-1.91.71-2.87.27-.88,1.02-1.72.78-2.66-.22-.88.46-1.79.52-2.68.06-.83-.19-1.67-.28-2.37-.7-.49-1.52-.57-2.48-.6-1.92-.06-3.82.13-5.79-.04-1.27-.11-2.65.14-3.33.7,0,0,0,0,.01.01,0,0,0,.01-.02.02.56.22.72.5.64.94-1.76.72-.71,2.09-3.48,2.92.68-1.42,1.65-2.65,2.84-3.86,0,0-.02,0-.03-.01,0,0,.02,0,.03-.02-.69-.45-.38-.93-.1-1.37.84-1.33,1.83-2.64,2.65-3.98.52-.84,2.12-1.48,2.59-2.3.43-.76.34-1.57,1.3-2.27,1.47-1.06,2.05-2.24,3.01-3.37.24-.28.42-.57.7-.85.69-.66,2-1.21,2.05-1.99.05-.66,1.61-1.15,1.45-1.88-.06-.26.5-.56.87-.82,1.18-.84,2.09-1.71,2.67-2.66,1.06-1.74,2.25-3.48,4.73-5.02.32-.2.55-.44.65-.67.6-1.35,2.59-2.41,4.41-3.5.07-.04.27-.05.41-.07.21.07.43.14.75.24-.72,1-1.5,2.03-1.4,3.04.47.24.87.22,1.34.12.53-.73.22-1.52,1.05-2.27.71-.64.75-1.4,1.24-2.08.28-.4.86-.77,1.31-1.15,1.34-1.13,3.53-2.12,3.77-3.45,2.56-1.59,2.66-3.56,4.97-5.19.22-1.06,1.67-1.92,2.97-2.92-.9-1.45.3-2.85,1.57-4.18.92-.09,1.5-.14,2.07-.2.22-.08.49-.14.64-.24,1.16-.77,1.11-.78,1-1.86-1.52.23-.74.85-1.29,1.24-.47.17-.98.29-1.63.26-.53-.16-.6-.39-.57-.71.32-.13.73-.29,1.15-.46-.06-1.5.2-3,2.24-4.31,1.17-.75,1.36-1.58,1.72-2.4.12-.27-.16-.61-1.16-.61-.17.02-.41.03-.43.06-.5.69-.98,1.37-1.49,2.1-.86.26-1.81.55-2.82.86-1.07.97-3.04,1.79-3.17,2.95-.03.22-.49.44-.76.65-.87.7-2.23,1.37-2.5,2.11-.29.8-1.98,1.39-1.65,2.24.04.11-.11.24-.28.34-2.13,1.2-2.61,2.68-4.31,3.95-1.05.79-1,1.76-2.38,2.51.17,1.08-2.31,1.84-2.13,2.91-1.14.75-1.44,1.57-1.43,2.43-1.58,1.12-1.39,2.44-2.6,3.61-.57.55-.79,1.15-1.35,1.7-.52.5-1.35.95-1.22,1.53.02.11-.13.24-.31.34-2,1.02-2.1,2.37-3.68,3.47-.17,1.1-2.01,1.98-2.45,3.07-.33.8-1.89,1.5-1.97,2.37-1.7.95-1.45,2.22-3.24,3.15-.91,1.52-3.14,2.87-3.67,4.41-.3.88-1.84,1.5-2.04,2.38-.18.76-.86,1.51-1.4,2.25-.62.85-1.71,1.66-1.94,2.57-.11.45-.84.88-1.24,1.27.26.3.45.52.66.76-.53.21-1.05.42-1.64.65.08.34.17.69.28,1.14-.65.58-1.52,1.21-1.63,1.96-.1.72-.86,1.38-1.63,2.04-.99.86-1.67,1.79-2.27,2.71-.8,1.22-1.47,2.45-3.24,3.52-.49.3-.91.62-.91,1.01,0,.18-.03.39-.27.52-1.97,1.1-2.31,2.47-3.83,3.64-.88.68-1.36,1.46-1.75,2.21-.22.42-.54.8-.9,1.2-1.01,1.12-1.93,2.25-2.95,3.37-1.43,1.57-2.21,3.22-4.04,4.74-.76.63-.96,1.37-1.47,2.14.21.15.49.35.77.55,1.08-.78,1.93-1.58,2.54-2.46,1.02-1.49,1.79-3.03,3.75-4.42.1-.46.21-.94.31-1.41,1.09-.28,1.83-.66,2.03-1.16.57-1.38,1.57-2.68,3.46-3.87.32-.2.62-.44.62-.67,0-.52.59-.93,1.15-1.36.76-.58,1.82-1.13,1.67-1.84,1.66-.96,1.82-2.15,3.08-3.18,1.23-1.01,1.98-2.12,2.8-3.2.4-.52.81-1.01,1.91-1.38.37.52.36,1.01-.34,1.42-1.15.68-1.21,1.48-1.78,2.22-.17.23.01.52-.28.7-1.88,1.15-2.16,2.48-2.96,3.76-.8,1.28-1.58,2.56-2.52,3.82-.72.97-.96,2.02-2.49,2.88-.54.3-.59.67-.72,1.03-.45,1.18-1.7,2.31-1.6,3.53-1.83,1.47-1.95,3.14-3.19,4.68-1.09,1.36-1.97,2.76-2.94,4.14-.12.17-.15.37-.39.51-2.59,1.51-2.94,3.43-5.78,4.89,0,1.23-.8,2.39-1.63,3.54-.41.57-.49,1.19-1.01,1.75-1.59,1.71-1.67,3.52-2.4,5.29-.07.18-.2.36-.14.54.66,2.16-.91,4.29-.42,6.48.42,1.85-.49,3.7-2.12,5.48-.81.89-1.06,1.87-1.45,2.82-.68,1.66-1.83,3.29-1.79,4.99,0,.23-.13.48-.34.7-.77.8-.92,1.64-1.18,2.47-.36,1.13-.72,2.26-1.62,3.35-.85,1.04-.8,2.13-1.28,3.2-.83,1.83-1.67,3.66-2.47,5.5-.36.83-.71,1.66-.91,2.49-.15.64-.88,1.13-1.9,1.71-.95-.6-1.5-1.19-1.25-1.76.89-2.02.74-4.06.95-6.1.35-3.5.67-7,1.07-10.5.08-.72-.05-1.45.58-2.15.24-.27.25-.61.15-.9-.73-2.12.25-4.2.77-6.29.09-.36.26-.7.12-1.06-.13-.35-.21-.74.02-1.08,1.42-2.11,1.48-4.28,1.85-6.43.08-.48.35-.95.47-1.43.47-1.79.82-3.58.98-5.37.15-1.62.65-3.23,1.23-4.84.41-1.13.38-2.28.89-3.41.37-.83,1.14-1.61,1.78-2.41,1.14-1.42,2.13-2.86,3.23-4.28.16-.21.44-.44,1.32-.51-.14,1.42-1.16,2.72-2.79,3.85-.01.4.01.7.76.89.25-.04.65-.05.7-.11,1.12-1.42,2.12-2.86,3.32-4.27.87-1.03.73-2.15,1.95-3.13.42-1.8,2.21-3.47,3.27-5.2,1.28-2.09,2.74-4.16,4.26-6.22.51-.69.47-1.43.67-2.14.97-3.46,2.45-6.89,4.24-10.29,1.04-1.98,1.93-3.98,3.74-5.91.88-.93,1.08-1.98,1.74-2.96,1.39-2.08,2.66-4.17,3.98-6.25,1.47-.93,1.29-2.11,2.93-3.01.41-.23.42-.57.63-.85.86-1.21,1.54-2.44,2.63-3.61.78-.84,2.12-1.6,3.15-2.41.82-.64,1.64-1.25,2.05-1.99.47-.86,1.48-1.72,3.37-2.29,1.36-.41,1.81-.94,1.7-1.58-.21-1.28.73-2.44,1.69-3.65,1.35-1.71,3.17-3.35,4.07-5.12.12-.23.48-.46.49-.69.07-1.24,1.81-2.28,2.5-3.44.15-.26,1.02-.37,1.23-.71.7-1.16,1.59-2.3,2.33-3.45.23-.36.48-.69,1.29-.99,1.4.12,1.39.86,2.62,1.06.96,0,1.34-.28,1.4-.57.16-.78.28-1.57.26-2.35-.03-1.32-.17-2.65-.27-4.15,1.46-.79,1.23-2.02,2.9-3.01,1.52-.9,2.67-1.9,3.63-2.6,1.05-.63,2.3-.59,3.39-.97.12-.08.42-.29.69-.5.21-.16.6-.35.52-.49-.34-.63,1.18-1.11.85-1.7-.82-.24-1.5-.14-2.37.07-1.92,1.32-5.08,2.41-6.66,3.94-.49.48-1.57.71-2.82.98-.31-.97-.19-1.9.28-2.81.57-1.11.6-2.28,2.26-3.28.7-.42.27-.92.31-1.34-.91-.2-1.4-.04-1.67.18-.33.26-.59.55-.7.84-.12.31-.22.59-.93.81-1.28.15-2.12-.28-3.17-.47,0,0,0,0-.01.01,0,0-.02,0-.02,0,.03.51-.14,1.01-.95,1.43,0,0,0,0,.02,0,0,0,0,0-.02.01.65.24.14.57.36.83.28.34.68.65,1.02.97-.07,1.3.05,2.59-1.08,3.83-.67-.06-.77-.24-.8-.4-.1-.64.45-1.31-.53-1.92.22-1.11-.57-2.27,1.03-3.31,0,0-.01,0-.02,0,0,0,.01,0,.02-.01-.76-.35-.22-.75-.26-1.13-.02-.24.56-.35,1.2-.3,0,0,0-.01,0-.02.01,0,.02,0,.03,0,.14-.22.46-.45.37-.65-.24-.57-.47-1.16-1.37-1.66-.55.27-1.1.54-1.66.82-.22,1.24-.74,2.45-1.58,3.68-.92-.21-1.03-.54-1.04-.8-.08-1.56.04-3.11.43-4.64.65-.09,1.06-.14,1.76-.24.39.29.98.56,1.76.73.24-.75-.85-1.14-2.42-1.32-.83-.1-1.77-.05-2.46-.06-.82.19-.73.45-.82.68-.48.11-.86.04-1.08-.14-.47-.38-.74-.79-.74-1.22,0-.73-.42-1.41-1.5-2.07-1.21.36-.28.69-.21.99.08.36.38.71.52,1.07.14.35.22.71.31,1.07.09.36.24.72.22,1.07-.01.36-.2.71-.32,1.11.4.25,1.16.52,1.3.84.45,1.07.78,2.13.63,3.23-.19,1.32-.71,2.65.04,3.99-1.94.99-1.42,2.18-1.72,3.43-1.91,1.24-3.11,2.72-3.81,4.24-1.25.2-2.42-.3-4.05.19-1.53.81-3.09,1.88-3.73,3.15-1.17-.73-1.16-.73-1.17-1.05-.04-1.02-.06-2.05-.13-3.07-.02-.3-.1-.6-.25-.89-.08-.16-.36-.31-.53-.45-.73-.04-1.25.06-1.69.24-.38.26.34.47.28.66-.54,1.8.91,3.57.45,5.34-1.12.36-1.49-.66-2.82-.07-.02.58.51,1.21,1.28,1.78,1.44,1.09,2.01,2.24,2.35,3.45.43,1.56.47,3.12.6,4.68.06.67.09,1.33.69,1.84-.32.65-.46,1.2-.86,1.71-.36.45-1.01.86-1.58,1.33.68.1,1.2.18,1.72.25.68.32.47.76.19,1.03-.83.84-.78,1.78-2.1,2.56-.4.23-.35.58-.61.85-.86.89-.9,1.89-2.26,2.72-.31.19-.37.45-.49.68-.74,1.4-1.17,2.84-3,4.12-.15.1-.24.23-.27.34-.39,1.68-2.07,3.24-2.83,4.89-.54,1.18-1.66,2.29-2.45,3.44-.95,1.38-1.66,2.79-2.42,4.19-.41.77-1.85,1.41-1.58,2.24-1.25.99-1.25,2.1-1.86,3.14-.51.87-.89,1.74-1.64,2.6-.82.95-.94,1.99-1.37,3-.05.12-.08.24-.11.36-.16.78-.64,1.53-1.16,2.28-.5.74.14,1.56-.54,2.29-.95,1.02-1.32,2.09-1.76,3.15-.93,2.25-2.27,4.45-3.68,6.66-.59.92-1.41,1.82-2.16,2.73-1.59,1.92-3.91,3.75-4.92,5.76-.14.28-.5.57-1.5.76.4-1.83-.31-3.62.69-5.4.32-.57-.1-1.2.06-1.79.44-1.68.39-3.35.07-5.02-.2-1.07-.05-2.13.18-3.2.15-.71.26-1.46-.1-2.15-.77-1.48-.13-3.01-1.4-4.47-.58-.66-.62-1.42-.69-2.14-.11-1.2-.66-2.39-.49-3.6.09-.59-.45-1.19-.55-1.78-.28-1.68-.58-3.35-1.16-4.96,1.24-1.29,2.31-2.53,3.25-3.8.09-.11.08-.25.24-.34,1.9-1.04,2.13-2.37,3.63-3.47.81-.6.55-1.3,1.52-1.88.84-.49,1.33-1.05,1.54-1.68.17-.51,1.1-.98,1.72-1.48-.82-1.02.45-2.01.19-3.05.49-.16.95-.31,1.52-.5.91-2.48,2.12-4.99,3.74-7.42-1.52-.54-1.64.35-2.82.29.5-1.84,1.03-3.68,2.13-5.49.18-.29.43-.57.55-.87.35-.89,1.32-1.72,1.8-2.59.69-1.22,1.43-2.46,1.27-3.66.81-.3,1.11.11,1.66.05q.96-.66-.19-1.63c-.05-1.16.01-2.36.86-3.62.5-.1,1.16-.23,1.82-.36,1.02-.3.24-.81.89-1.18.51-.29.77-.64,1.11-.94-.24-.23-.41-.39-.58-.55-1.05.12-1.06.59-2.11.87,0,0-.27-.05-.23-.22.16-.66.39-1.31.58-1.96.65-2.21,1.21-4.42,1.57-6.64.27-1.68.82-3.35,1.22-5.02.04-.17-.03-.35-.05-.55-.69-.23-1.36-.46-2.01-.67.01-.94.6-1.79,1.54-2.43.32-.64-.72-.94-.93-1.37.16-.14.34-.3.51-.45-.5.08.3-.31.47-.08.29.39.49.8,1.49,1.04-.1.71-.16,1.42-.32,2.13-.1.44-.12.85.61,1.2.44.21.2.44.19.67-.07,1.13-.03,2.27-.02,3.4,0,.04.15.09.24.13.73-.52,1.44-1.02,1.39-1.67-.04-.53.49-1.07.51-1.6.05-.95.83-1.89.38-2.86-.13-.28.05-.6.21-.89,1.16-2.16,1.65-4.38,3.62-6.47.72-.76-.2-1.4-.82-1.92,1.62-3.04,3.16-5.95,4.69-8.82-.56-.21-1.14-.13-1.31-.01-1.33.94-3.19,1.78-3.28,2.94-1.96,1.58-2.37,3.33-3.3,5.03-.44.81-1.03,1.59-1.59,2.44-1.43-.2-.99-.79-1.86-1.01-.5.44-.83.85-.72,1.38.27,1.37.53,2.77-1.33,4.05-.2.14-.02.36-.1.54-.07.17-.28.32-1.05.23-.36-1.53.88-3.06.69-4.62-.1-.84.44-1.65.81-2.42.81-.18,1.31-.04,1.82.08.64-1.08.99-2.16.34-3.25-.69.4-.92.85-.98,1.34-.03.23-.4.46-1.12.51-.96-.03-1.22-.33-1.19-.62.04-.48.26-.95.47-1.42.39-.88.35-1.78.54-2.66.18-.83.38-1.68.87-2.49.54-.91,1.25-1.8.8-3.15,2.07.86.69,1.68,2.08,2.12.73-.85.95-1.71.71-2.62-.17-.63-.56-1.3.1-1.96.18-.18-.23-.45-.35-.64-.79-.15-1.25-.08-1.7.14-1.35.65-1.41,1.47-1.62,2.22-.28,1.02-.75,2.02-1.18,3.02-.4.95-.55,1.91-.73,2.87-.06.31-.12.6-.69.84-.83.18-1.7.09-2.77,0-.18-.31-.52-.66-.56-1.01-.11-1.02-.1-2.04-.13-3.06,0-.18.13-.38,0-.54-.83-.94-.6-1.89-.12-2.78-.69-.31-1.3-.44-2.3-.2-.12.15-.42.37-.45.6-.29,2.53-.72,5.05-.05,7.58.08.3.02.6-.04.9-.43,2.23.28,4.45.27,6.67,0,.42.07.82-.25,1.24-.31.39.64.81.06,1.22-.66.15-.74-.07-.91-.22-.84-.69,0-1.44-.47-2.13-.54-.2-1.17-.21-1.69-.08-1.02.24-1.96.53-2.95.81-.06.35-.21.65-.14.94.28,1.25.62,2.5.93,3.75.07.3.08.6.16.9.69,2.57,1.34,5.13,2.12,7.69.25.83.78,1.65,1.13,2.48.45,1.04.36,2.04.2,3.06-.24,1.5-.56,3-.86,4.5-.02.1-.16.2-.25.3-2.69-.86-2.93-.84-3.17-1.37-.33-.73-2.11-1.22-1.89-2,.2-.7-.7-1.29-.95-1.94-.04-.12-.08-.24-.04-.36.46-1.39-.22-2.76-.54-4.13-.17-.71-.14-1.43-.2-2.08-.71-.36-1.54-.15-2.31-.25-1.34.34-2,.86-2.05,1.5-.03.48.15.96.19,1.44.03.32-.27.58-1,.7-1.66.11-1.8-.59-2.82-.78-.82-.06-1.51.02-2.11.23-.74.27-.47.67-.86.99-.27.05-.54.14-.81.14-1.65,0-3.3-.03-4.95-.05-.46,0-.89,0-1.14.2.88.66,1.89,1.17,2.93,1.45.38.1.77.2,1.18.27,2.26.39,4.06,1,5.61,1.79.29.81.48,1.65,1.74,2.37.34.19.57.43.73.66,1.63,2.26,4.18,4.4,5.57,6.7.21.34,1.45.06,1.89.35-.3,1.55-.59,3.09-.93,4.86-.34.28-.93.76-1.56,1.29,1.73.85.96,1.84.97,2.88-.5.41-1.1.89-1.7,1.38-.15.43.08.83.7,1.2.25-.04.66-.05.7-.11.76-1.09,1.8-2.16,1.58-3.24.9-.91,2.6-1.59,2.37-2.51.91-.17.93.08,1.06.22.31.34.36.69.36,1.06,0,1.75-.7,3.48-1.1,5.21-.27,1.15-1.08,2.22-1.84,3.32-.2.29-.48.57-.81.84-1,.8-2.43,1.54-2.47,2.5,0,.06-.09.12-.17.17-2.58,1.62-2.79,3.52-3.89,5.31-.22.35-.49.71-.49,1.06,0,.85-1.02,1.47-2.49,2,.35.53,1.69.09,2.45.51-.36.59-.46,1.34-1.25,1.93-1.12.84-.56,1.96-2.93,2.66-1.58-1.08-.93-2.5-3.19-3.45-.13-.03-.24-.09-.38-.1-1.18-.06-2.36-.12-3.17-.15-2.55.34-3.77,1.01-4.71,1.79-.84.7-2.2,1.32-2.15,2.16-2.02,2.34-2.75,4.79-3.98,7.19-.36.7-.65,1.41-1.21,2.1-1.28,1.6-1.43,3.3-2.32,4.94-.4.74.51,1.43.58,2.2-2.42,1.44-2.84,3.27-5.34,4.72-.61,1.53-2.92,2.76-4.62,4.09-.21.16-.49.32-.57.49-1,2.08-4.5,3.66-6.69,5.5-.38.32-1.73.3-1.63.79.29.37.99.26,1.35.1.59-.27.99-.6,1.43-.92,1.9-1.38,3.78-2.76,5.7-4.13.35-.25.52-.58,1.33-.7.47.24-.02.41-.23.6-.31.27-.92.53-.97.81-.17.95-1.45,1.7-2.51,2.49-1.14.85-2.33,1.7-3.49,2.55-1.08.79-2.17,1.58-3.26,2.37-1.38-.26-1.31-.73-1.45-1.1-.66-1.66-1.17-3.33-1.76-4.99-.11-.3-.24-.6-.5-.88-.58-.65-.56-1.3-.36-2.12.35-.25.94-.61,1.34-1,.34-.32.45-.69.64-1.01.8-.22,1.48.04,2.46.02.54-.14,1.29-.33,1.96-.5.11-.16.28-.28.24-.39-.32-.78-.27-1.52.41-2.3.77-.89.96-1.87,1.38-2.79-.39-.36-.75-.68-1.15-1.04.5-.16.96-.31,1.44-.46.92-.82-.15-1.64.04-2.44-.48-.21-.88-.39-1.28-.56-.01-.12-.12-.25-.03-.35,1.25-1.42,1.6-2.92,2.61-4.36.32-.46.48-.92.93-1.38.93-.95,1.63-1.91.2-2.94-.86-.62-.71-1.38-.77-2.1-.13-1.86-.42-3.72-1.2-5.55-.13-.3-.18-.58.04-.89.47-.65.47-1.31-.08-1.96-.3-.35-.34-.7.04-1.06.16-.15.2-.37.07-.53-.71-.89-.46-1.76-.08-2.67.31-.75.08-1.56-.18-2.33-.21-.61-.06-1.19,0-1.79.12-1,.74-2.01-.02-3.01-.23-.3-.12-.59.13-.89.34-.4.32-.83.03-1.27-.51-.07-1.05-.14-1.59-.21-.22-.55-.07-1.07.65-1.56,1.06-.73,2.06-1.48,3.06-2.23.7-.53,1.6-1.02,1.62-1.67,0-.22.35-.46.62-.67.95-.75,1.99-1.46,2.32-2.33.19-.51,1.18-.97,1.82-1.45.35-.26.72-.52,1.04-.76-.43-.4-.79-.73-1.16-1.08.27-.87,1.86-1.5,2.58-2.3-.38-1.33.83-2.8,2.49-4.09.08-.55.14-1.1.24-1.64.09-.47.23-.93.35-1.41-1.94.11-2.14.22-2.92,1.7-.69.31-1.42.61-2.08.93-.65.32-.75.8-1.85.98.15-.84.43-1.67.41-2.5-.02-.79.41-1.53,1.03-2.21-.83-.35-1.52-.24-2.51-.06-1.32.68-2.25,1.58-3.47,2.41-1.12.75-1.92,1.59-3.58,2.39-.36-1.85-.02-3.51.69-5.16.71-1.65.34-3.36,1.72-4.92-.06-.46-.63-.71-1.49-.89-.58.42-1.17.85-1.75,1.27.08.05.25.1.24.15-.29,1.13-.46,2.26-.92,3.38-.91,2.19-1.62,4.39-2.03,6.61-.48.7-1.92,1.22-2.18,1.97-.23.65-.58,1.29-.81,1.79-1.13.57-2.49.37-3.58.52-.58.33-.2.71-.36,1.13,1.02.5,3.12.73,2.93,1.53.8.06,1.24.09,1.62.12.14.06.31.11.32.15.11.96,1.33,1.89.61,2.85-.49.65-.26,1.32-.62,1.97-.51.2-1.03.41-1.5.59-.05.33.84.55.38.95-.62.13-1.39.29-2.3.49.88,1.15,1.05,2.35.93,3.55-.04.37.15.71.32,1.07.45.96.49,1.92-.41,2.84-.61.62-.17,1.35-1.54,1.81.69.98,1.31,1.85,1.91,2.72.28.41.79.83.68,1.23-.18.67.69,1.15,1.45,1.7-.04.58-.05,1.18-.12,1.78-.04.42,0,.83.26,1.25,1.16,1.83,1.28,3.68.29,5.54-.12.23-.1.47-.13.69-.54.18-.99.33-1.44.48-.07.11-.28.25-.19.34.75.77-.67,1.55.1,2.31-.88,1.23.14,2.5-.53,3.75-.66,1.22-.79,2.5-1.15,3.75-.07.24-.3.48-.24.7.19.64.77,1.29.67,1.92-.1.6-.19,1.19-.16,1.79.04.77-.01,1.58-.53,2.31-.65.93-1.09,1.86-1.54,2.8-.12.25-.61.4-1.46.44-1.62-.4-2.59-1.3-4.92-1.37-1.5-.04-3.02-.12-4.41.22-2.31.61-3.77,1.52-5.03,2.49-.84.64-1.62,1.31-2.63,1.91-1.98,1.17-2.63,2.55-4.01,3.82.35.97-1.81,1.62-1.98,2.56-.16.89-.62,1.81-1.5,2.62-2.02,1.85-2.07,3.86-3.2,5.78-1.09,1.86-2.14,3.75-2.4,5.68-.06.48-.23.96-.56,1.42-.95,1.34-.6,2.72-.94,4.07-.34,1.37.61,2.77-.65,4.1.51,1.33.03,2.65-.03,3.98-.07,1.51-.46,3-1.28,4.47-.69,1.23-1.09,2.47-1.58,3.71-.21.53-.57,1.04-.28,1.6.26.52-.07,1.06-.49,1.59-.67.85-1.02,1.75-1.07,2.66-.24,5.01-2.11,9.94-4.55,14.84-.76,1.52-1.95,3.01-3.05,4.5-1.02,1.38-2.24,2.73-3.25,4.11-.89,1.21-1.53,2.44-3.07,3.56-.94.68-.7,1.55-1.98,2.19-1,1.64-3.16,3.1-4.33,4.71-.33.46-.52.94-.77,1.41-.16.29-.14.62-.49.87-2.37,1.66-2.53,3.56-3.75,5.35-.51.75-.62,1.53-1.28,2.28-.64.72-.05,1.57-1.13,2.28.02,1.03-.76,2.01-1.29,3-1.22,2.28-2.37,4.57-3.99,6.82-.66.91-.77,1.88-1.3,2.82-.44.78-1.8,1.37-2,2.19-.17.7-.74,1.4-1.25,2.09-.67.91-1.64,1.79-2.14,2.73-.46.87-1.76,1.64-2.18,2.54-.36.76-.96,1.51-1.03,2.3ZM7.04,58.65q.33-.66,1.55-1.07c.19.07.39.15.79.31q-1.11.83-2.34.77ZM-.12,67.11c.28-1.3.57-2.61.79-3.91.09-.57.75-1.02,1.65-1.43.4-.18,1-.24,1.79-.15-.31.33-.77.65-.89.99-.15.42-.45.8-.71,1.21-.47.73-.73,1.49-.11,2.24h0s.01,0,.02.01c.38-.32.77-.63.92-.99.42-.99.92-1.99,1.56-2.96.27-.42.74-.86,1.81-1.13.13.11.23.16.24.22.33,2.42-1.89,4.7-2.5,7.07-.03.11-.21.23-.38.32-.75.41-.76.9-.96,1.37-.07.17-.2.46-1.05.35.08-1.09-.03-2.16.6-3.22.18-.31.46-.7-.23-1.02,0,0,0,0-.01,0,0,0,0-.01-.01-.02-.4.32-.8.64-1.22.96-.38.29.37.75-.82.92-.58-.24-.54-.52-.48-.83ZM46.36,51.2c0,.07-.31.15-.5.21-.03,0-.25-.03-.28-.07-.12-.15-.21-.3-.3-.45.78-.1,1.09.05,1.08.3ZM61.85,31.09s-.01,0-.02-.01c.01,0,.02-.01.03-.02-.82-.79-.4-1.45,1.25-2-.6.65-.04,1.41-1.25,2,0,0,0,0,.01.01,0,0-.01.01-.02.02.65.33,1.15.67.2,1.11-.99-.38-.71-.74-.2-1.11ZM60.38,43.11c-.24-.93-.53-1.7-.6-2.47-.06-.71.04-1.43.24-2.14.1-.33.79-.49,1.67-.31.15.11.42.22.4.32-.27,1.42-.56,2.85-.9,4.27-.02.09-.39.16-.82.34ZM56.58,40.57c-.17-.66,0-1.37-.63-2.05-.16-.17.29-.44,1.08-.45,1.01.81,1.45,1.66.8,2.56-.43.1-.82.13-1.24-.06ZM55.18,36.22c.34.47.59.75.72,1.03.1.22.09.47-.98.48.08-.43-1.16-.81.25-1.51ZM51.88,59.78c2.02.68,3.43,1.77,3.45,2.93,0,.47.53,1.11-1.39,1.44-.98-1.46-2.48-2.83-2.06-4.37ZM105,57.04c.02-.38.47-.75,1.55-.92,1.28.9.63,1.78.21,2.68-1.27-.5-1.79-1.11-1.76-1.76ZM103.6,52.14c.66-.2,1.33-.22,2.16.02-.13.72.33,1.48-.59,2.2-.09.07-.45.09-.69.13-1.28-1.21-1.26-1.21-.89-2.36ZM99.48,58.91c.28-.98-.53-1.96,1.59-2.76.58.9-.33,1.67-.7,2.46-.04.09-.42.14-.89.29ZM92.33,65.65c.07-.48.23-.95.37-1.42.48-1.6.98-3.19,1.43-4.79.04-.16-.22-.33-.35-.49-1.36.8-.77,1.84-1.84,2.67-.66-.04-.76-.23-.78-.38-.25-2.4,1.29-4.67,3.05-6.93.84.12.85.37.77.58-.21.53-.58,1.04-.79,1.57-.18.46-.56.93.13,1.38.3-.33.69-.66.89-1.01.3-.52.39-1.06.7-1.58.18-.31.67-.54,1.87-.32-.35.69.81,1.35.67,2.07-.42,2.13.35,4.33-2.25,6.34-.04,1.09-1.82,1.86-2.92,2.72-.73-.08-.96-.24-.94-.4ZM90.89,68.22c.24-.5.43-.88.61-1.25,1.3.48.64.83-.61,1.25ZM86.85,70.32c-.32-1.35-.08-2.49,2.13-3.48-.35,1.04-.69,2.08-1.08,3.12-.03.08-.41.15-1.04.37ZM84.27,61.71c.57-1.49.95-3.07,3.52-4.24,1.06-.03,1.46.17,1.51.41.43,2.08.73,4.16-.4,6.22-.19.35-.24.72-.55,1.04-.37.39-.85.78-1.48,1.11-.66.35.26.87-.91,1.14-2.28-1.87-2.75-2.87-1.68-5.67ZM125.35,51.84c.67-.56,1.4-1.19,3.03-1.98-.68,1.05-.18,1.93-2.14,2.44-.64-.06-.85-.19-.9-.46ZM120.34,62c-.08-.17-.05-.36.03-.53.85-1.82,2.9-3.49,4.19-5.26.03-.04.26-.05.39-.08.18.08.52.15.52.23-.12,2.12-2.52,4.02-3.54,6.1-1.22,0-1.48-.22-1.59-.45ZM117.2,65.69q1.11-2.01,2.38-2.46.39.73-1.17,2.5c-.44.11-.84.1-1.21-.04ZM110.15,71.18c.44-.35.76-.6,1.08-.85,0,0,0-.01-.01-.02,0,0,.02-.01.02-.02-.13-.1-.36-.21-.32-.3.48-.92.98-1.84,1.55-2.75.3-.47,1.11-.87,2.54-1.24-1.34.64-1.56,1.42-1.75,2.16-.21.8-1.07,1.46-2.01,2.12,0,0,.01,0,.02.01-.01,0-.02.02-.03.02.3.57.29.57-1.08.85ZM146.41,63.38c.26-.89.47-1.79.81-2.67.53-1.36,1.67-2.27,4.41-3.66.02.11.12.24.06.34-.86,1.45-2.27,2.85-2.65,4.34-.21.83-1.18,1.46-2.15,2.13-.64-.15-.53-.32-.49-.48ZM150.05,71.24c-.13-.05-.26-.11-.38-.16.17-.16.25-.35.52-.48,2.24-1.03,4.53-2.04,6.78-3.07.59-.27,1.09-.56,1.66-.84.28-.13.36-.42,1.32-.27-.56.41-.91.82-1.58,1.12-2.72,1.25-5.53,2.46-8.31,3.68ZM149.14,73.07c.04-.39.44-.68,1.7-.99-.34.37-.43.54-.66.67-.23.14-.29.43-1.04.31ZM147.94,71.92c-.55.81-1.6,1.41-2.67,2.05-.57-.33-.24-.62-.21-.99,1.36-.09,1.38-.8,2.88-1.07ZM144.58,75.67c.67-.92,1.62-1.54,2.88-2.17q.52.54-2.88,2.17ZM-.87,152.77c.05-2.05.18-4.09.04-6.14-.04-.5.52-.95.31-1.42-.79-1.78-.32-3.59-.65-5.37-.17-.91-.19-1.8.03-2.78.51-.37,1.09-.8,1.68-1.22,1.24-.9,2.48-1.8,3.72-2.7,1.24-.9,2.48-1.8,3.72-2.7,1.24-.9,2.33-1.84,3.75-2.7,1.45-.88,1.67-1.93,2.84-2.83.78-.6,1.38-1.19,1.58-1.86.04-.15.51-.27.77-.4.63.18.67.42.7.67.21,1.68.19,3.37.71,5.04.43,1.37-.28,2.62-1.13,3.9.1.11.24.22.31.33.8,1.35.88,4.7-.42,6.23-.25.3-.2.58-.21.88-.06,1.57-.02,3.14-.41,4.69-.2.78-.27,1.56-.47,2.34-.18.72-.69,1.46-.4,2.14.34.78-1.51,1.5-.15,2.26-.73,1.66-.7,3.34-.95,5.02-.14.95-.37,1.92-.56,2.88-.31,1.56-.57,3.12-1.17,4.67-.21.55.42,1.07-.1,1.61-1.6,1.65-1.58,3.42-2.26,5.13-1.32,3.32-2.13,6.67-3.19,10.01-.24.77-.5,1.55-.96,2.31-.86,1.4-1.61,2.81-1.71,4.26-.03.48-.04.97-.18,1.45-.59,2.08-1.83,4.11-2.07,6.21-.25,2.21-1.81,4.39-1.33,6.63.05.22-.33.45-.47.68-.44.69-1.16,1.39-1.18,2.09-.01.55-.15,1.04-.53,1.57-.82,1.15-1.35,2.33-1.91,3.51-.28.59-.07,1.24-.58,1.78-1.36,1.48-1.46,3.06-2.65,4.56-1.18,1.48-1.69,3.04-2.63,4.55-.83,1.33-1.93,2.64-2.76,3.98-.31.49-1.75.64-1.79,1.2-.04.54-.34,1.07-.62,1.6-.12.23-.46.45-.74.66-.26.2-.46.44-1.32.49-.56-.58-.3-1.16-.02-1.75.36-.77.65-1.54.87-2.31.3-1.08.33-2.17.78-3.23,1.43-3.38,2.62-6.77,3.02-10.2.01-.12-.02-.25.04-.36,1.06-2.01,1.19-4.06,1.45-6.1.22-1.74.47-3.49.95-5.23.53-1.91,1.18-3.82,1.39-5.74.03-.24-.12-.52.12-.72,1.23-1.03.82-2.13,1.09-3.2.07-.3-.04-.64.28-.89.68-.52.58-1.03.39-1.58-.13-.35.07-.72.17-1.08.37-1.31.81-2.62,1.12-3.93.37-1.62.43-3.25.97-4.86.89-2.62.83-5.27,1.51-7.89.65-2.51.21-5.03.69-7.55.27-1.42.19-2.85.56-4.28.17-.66.47-1.37.04-1.98-.56-.8-.06-1.54-.04-2.31Z"/>
      <path class="st1" d="M103.82,44.16s-.01,0-.02,0c0,0,.01,0,.02-.01,0,0,0,0,.02,0,0,0,0,0-.02.01Z"/>
      <path class="st1" d="M68.68,47.15s.01,0,.02-.01c0,0,.02,0,.02.01h-.04Z"/>
      <path class="st1" d="M69.24,21.93s0-.01.01-.02c.02,0,.02.01.04.02h-.05Z"/>
      <path class="st1" d="M56.5,134.18s.02-.01.02-.02c0,0,.01,0,.02.01h-.05Z"/>
      <path class="st1" d="M111.25,70.29s.01,0,.02.01c-.01,0-.02.02-.03.02,0,0,0-.01-.01-.02,0,0,.02-.01.02-.02Z"/>
      <path class="st1" d="M2.42,66.06s0,0-.01,0c0,0,0-.01-.01-.02h0s.01,0,.02.01Z"/>
      <path class="st1" d="M82.63,104.68s-.02,0-.03-.01c0,0,.02,0,.03-.02,0,0,0,0,.01.01,0,0,0,.01-.02.02Z"/>
      <path class="st1" d="M61.86,31.06s0,0,.01.01c0,0-.01.01-.02.02,0,0-.01,0-.02-.01.01,0,.02-.01.03-.02Z"/>
      <path class="st1" d="M104.76,42.71s0-.01,0-.02c.01,0,.02,0,.03,0,0,0,0,0-.01.01,0,0-.02,0-.02,0Z"/>
      <path class="st1" d="M151.75,77.67s.02-.01.02-.02c.01,0,.02,0,.04,0,0,0-.02.01-.02.02-.01,0-.02,0-.04,0Z"/>
      <path class="st1" d="M114.82,51.07c.46-.59.76-1.04,1.15-1.47.4-.45,1.36-.79,1.46-1.31-1.25.42-2.56,1.18-3.22,1.92-.2.22-.14.48.62.86Z"/>
      <path class="st1" d="M45.13,79.83q-1.92.7-1.16,1.52,1.94-1.02,1.16-1.52Z"/>
      <g>
        <path class="st1" d="M-15.8,114.16c.21-.91.93-1.81.14-2.74-.22-.26.09-.6.18-.9.3-.96.7-1.92.92-2.88.38-1.61-.11-3.24.6-4.86.19-.44-.61-.92-.3-1.42.25-.41.22-.85.48-1.26.26-.39.74-.76,1.07-1.09-.38-.35-.75-.61-1.65-.62-.13.03-.28.05-.37.09-.85.38-.44.93-1.06,1.38-.26-.1-.57-.17-.54-.22.51-1.18.06-2.44,1.9-3.5.31-1.02,1.09-2.06.82-3.05-.42-1.55.39-2.98,1.3-4.52-.23-.18-.57-.44-.9-.69.61-3.45.94-4.05,3.9-6.88-.35-.47-.74-.98-1.18-1.56.25-.17.55-.38.91-.63-.27-.6-.56-1.24-.87-1.94.3-.4,1.02-.78,1.22-1.28.5-1.24.18-2.55,1.92-3.69-1.02-.83.92-1.45.95-2.22.03-.72.48-1.44.67-2.16.25-.95,1.08-1.89.16-2.87-.19-.2.04-.48.12-.72,1-3,2-6,3.03-9.08,1.41-.29,2.75-.61,3.66-1.21.9-.59.36-1.34,1.69-1.91-.37-.17-.74-.35-1.29-.61.41-.72,1.63-1.44,1.67-2.3.04-.78.47-1.56.75-2.38,1.56-.63,2.95-1.34,4.04-2.13-.2-.35-.59-.7-.09-1.05,1.57-1.1,1.94-2.37,3.17-3.54.74-.17,1.51-.35,2.43-.57.65-.97.83-2,1.15-3.01.37-1.15,1.42-2.2,2.88-3.18,1.15-.78,2.29-1.55,2.78-2.45.16-.29.65-.52,1.67-.49.03.35.07.7.1,1.02.26.1.51.08.65-.07.31-.34.43-.71.86-1.02.87-.61.83-1.26,1.05-1.86-.95-.33-1.51.07-2.02,0-2.86.95-3.14,2.5-5.68,3.46-.06.02-.25,0-.41-.01-.4-.49-.19-1,.42-1.39.86-.55,1-1.13,1.21-1.73.51-1.44,1.02-2.88,1.46-4.32.19-.61.54-1.18,1.41-1.67q-.91-.36-2.22-.06c-1.21,1.2-2.44,2.42-3.65,3.62-.55-.03-.95-.05-1.5-.08-.93,1.31.38,2.65-.49,3.95-.8,1.21-.52,2.51-1.61,3.67-.76.05-1.09-.07-1.29-.23-.2-.16-.43-.34-.44-.51-.04-1.2-.91-2.38-.93-3.56-.02-1.07-1.19-2.13.18-3.16-1.16-.13-1.64.04-1.82.25-.29.34-.6.71-.52,1.05.26,1.07.76,2.13.84,3.21.02.33.75.65,1.22,1.03-.04.6-.3,1.25.24,1.91.91,1.12.5,2.26-.17,3.33-.41.18-.76.27-1.24.14-1.41-2.11-1.76-3.22-1.65-5.99-.76-.04-1.42.08-2.08.23-.59.23-.68.56-.52.83.38.66.44,1.31.15,1.97-.16.36-.22.71.1,1.07.48.54.15,1.06-.29,1.6-.98-.21-.85-.62-1.23-.91-.72-.55-.22-1.22-.75-1.75-.55-.56-1.16-1.09-1.29-1.79-.49-.23-1.18-.48-1.65-.79-2.03-1.34-5.09-2.25-8.44-2.91-2.21-.44-3.18-1.01-3.48-1.9-.02-.05-.17-.1-.26-.14q-1.68-.06-5.08,1.14c.16.15.21.38.51.46,1.63.4,2.48,1.02,3.16,1.7,1.26,1.28,2.89,2.49,3.37,3.89.3.89,1.01,1.75,1.59,2.62.57.87,1.63,1.68,1.42,2.63-.07.33.5.69.8,1.03,1.02,1.13,1.58,2.31,2.24,3.49.47.84-.1,1.67.56,2.5.56.72.61,1.52.44,2.32-.18.82.12,1.67.44,2.49.27.68.26,1.38-.51,1.95-.92.68-.98,1.39-1.32,2.09-.7,1.42-.51,2.9-1.89,4.27.81,1.02-1.32,1.79-1.41,2.75-.09,1.02-.62,2.04-.96,3.06-.32.96-.63,1.92-.96,2.88-.15.42-.28.85.43,1.23-1.47.93-1.91,1.99-1.63,2.98.25.86.03,1.68-.17,2.51-.24,1.01-.65,2-.3,3.05.32.93-.44,1.92-.77,2.88-.14.41-.38.81-.51,1.07-1.04.37-1.62-.11-2.39.07-.92,1.61-2.47,3.17-2.81,4.87-.33,1.63-1.06,3.24-1.58,4.87-.11.35-.47.72.31,1.07.51-.01,1.09-.03,1.69-.04.57.41.1.83-.03,1.24-.9,2.76-1.85,5.53-2.75,8.29-.23.71-.75,1.43-.03,2.15.15.16.03.36,0,.54-.03.18-.14.36-.13.54.05,1.44.22,2.88-.51,4.31.76,1.02.2,2.04-.18,3.05-.23.62.74,1.16.38,1.79-.33.58-.48,1.17-.02,1.79.28.38-.02.83-.12,1.25-.28,1.14-.85,2.26-.99,3.28.55.39,1.38.41,2.06.47,1.71-2.27,4.14-4.56,5.45-6.89ZM15.72,28.9c-.19-.51-.1-.95.87-1.69-.08.81.41,1.31-.87,1.69ZM-4.02,31.94c.12,1.13.66,2.25.1,3.39-.13.27.24.58.29.87,0,.06-.42.13-1.02.29-.37-.35-.66-.56-.82-.78-.97-1.31-1.97-2.61-3.65-3.82-.76-.55-.82-1.26-1.14-1.9-.04-.08.26-.19.41-.29q3,.47,5.84,2.24ZM.21,43.15c-.44-.69-1.05-1.36-.71-2.1.24-.53.35-1.05-.03-1.6-.43-.62-.03-1.25.6-1.85.88.12,1.27.38,1.2.59-.3.91.18,1.78.63,2.66.43.85.03,1.65-.75,2.43-.45-.06-.9-.07-.94-.13ZM-8.29,65.84c-.49-.48-.39-.82.43-1.13.45.43.21.76-.43,1.13ZM-18.29,89.86c-.13-1.02,0-2.04,1.07-2.96.58-.51.76-1.01,1.05-1.53.09-.17-.11-.46.97-.45-.1.37-.19.72-.3,1.06-.47,1.41-.94,2.82-1.43,4.29-1.08-.06-1.33-.25-1.35-.41ZM-16.82,102.01c-.08-.11-.22-.21-.21-.32,0-.16.11-.32.6-.37.07.11.21.21.21.32-.01.16-.11.32-.59.37ZM-17.37,106.32c-.52-.24-1.37.18-2.01-.17.04-.54.07-1.13.77-1.73.63.21,1.18.4,1.8.6.72-.26.12-.55.1-.82.46-.21.59-.55,1.64-.67-.45,1.49-.69,2.94-1.65,4.43-.65-.3-.42-.54-.39-.77.05-.29.28-.59-.28-.88Z"/>
        <path class="st1" d="M32.83,34.41c-2.34,1.25-4.44,2.58-6.6,3.88-.9.54-1.56,1.17-2.59,1.67-2.66,1.29-5.46,2.55-8.23,3.8-.39.18-.95.3-1.61.22-.13-.1-.26-.2-.41-.31.99-.51,2.11-1,2.96-1.55.96-.62,2.28-1.12,3.33-1.69.96-.52,1.59-1.15,2.36-1.73-.34-1.18,2.04-1.91,2.99-2.88.27-.27.78-.51,1.07-.78.16-.15.11-.34-.59-.48-2.64,1.19-4.59,2.6-6.78,3.88.18.31.31.54.47.8-2.42,1.01-4.06,2.3-6.96,3.21-.39-.23-.63-.37-.8-.47,2.13-1.63,4.19-3.21,6.47-4.96.53-.16,1.66-.29,2.45-.71.97-.53,1.84-1.07,2.78-1.6.95-.53,2.13-.99,2.8-1.61.7-.65,2.28-1.08,2.88-1.79.47-.56,1.38-1.06,2.15-1.57.59-.4,1.45-.44,3.09-.18-1.38.93-3.1,1.81-4.04,2.8-.96,1.01-2.25,2-2.85,3.2,2.27-.46,3.7-1.06,4.79-1.8,1.47-.99,3.25-1.87,5.17-2.72.76-.34,1.76-.46,2.8-.09-2.38,1.15-4.87,2.26-7.1,3.45ZM27.41,36.76c-.5-.44-.98-.21-1.32-.08-.53.21-.8.48-.33.96.69-.37,1.2-.64,1.65-.88Z"/>
        <path class="st1" d="M10.29,22.08c.32-.69.59-1.27.86-1.83.61.03,1.02.05,1.51.08.1-.19.26-.36.25-.53,0-.25-.31-.46-.84-.6-.68-.09-1.08.09-1.45.27-1.2.57-1.75,1.25-1.68,1.99.02.23.28.47,1.35.63Z"/>
        <path class="st1" d="M2.29,23.84c.57-.68.83-1.24.22-1.84-.52-.5.57-1.07-.28-1.56-.5-.09-.85,0-1.34.19.4.82.46,1.7.17,2.59-.07.21.3.46,1.24.62Z"/>
        <path class="st1" d="M9.07,25.28c.15-.17.35-.33.42-.5.21-.53.37-1.06.55-1.6-.47-.03-.83-.09-.93-.04-1.42.57-1.57,1.24-.79,1.96.09.08.45.11.76.18Z"/>
        <path class="st1" d="M12.97,21.06c-1.38.64.78,1.19.08,1.8,1.42-1.01,1.41-1.13-.08-1.8Z"/>
      </g>
      <path class="st1" d="M68.39,50.39q-1.21.95-1.26,2.01c1.14-.53,1.37-.9,1.21-2.01h.05Z"/>
      <path class="st1" d="M68.72,47.14c-.81.53-1.5,1.06-.17,1.63h-.04c.82-.53,1.48-1.06.16-1.62h.04Z"/>
      <path class="st1" d="M44.05,82.13c-.84.01-1.06.24-1.16.47-.08.17.14.36.67.37.53.01.82-.14.8-.34-.02-.17-.2-.34-.31-.5Z"/>
      <path class="st1" d="M56.55,134.18c-.63.46-1.25.92-2.18,1.61,2.39-.79,2.4-.8,2.13-1.6h.05Z"/>
      <path class="st1" d="M68.55,48.77c-.82.53-1.48,1.06-.16,1.63h-.05c.6-.53.92-1.07.17-1.62h.04Z"/>
      <path class="st1" d="M67.78,28.25c.6-.45,1.51-.88.39-1.43-.75.62-.77.62-.35,1.42h-.05Z"/>
      <path class="st1" d="M68.75,23.97c-.8.5-.42.85-.51,1.18,1.31-.25,1.34-.25.51-1.18Z"/>
      <path class="st1" d="M69.29,21.92c-.51.37-.85.74.18,1.12.97-.44.43-.78-.23-1.12h.05Z"/>
      <path class="st1" d="M49.03,143.13c-.86,0-1.43.16-1.72.48q1.08.11,1.72-.48Z"/>
      <path class="st1" d="M53.82,137.95q-.82.39-.66.71c.31-.16.61-.29.78-.43.08-.07-.08-.18-.13-.28Z"/>
      <path class="st1" d="M46.03,72.21c.5.03.76-.1.91-.26.1-.1.06-.22.08-.33-.5-.03-.75.11-.9.26-.1.1-.06.22-.09.33Z"/>
      <path class="st1" d="M-4.64,69.15c-.46-.15-.88-.33-1.57-.24-.31.38.3.67.42,1.04q1.08-.29,1.15-.8Z"/>
      <path class="st1" d="M94.31,57.81c-.33.37-1.44.69-.51,1.15.32-.37,1.46-.69.51-1.15Z"/>
    </g>
  </g>
</svg>