<?xml version="1.0" encoding="UTF-8"?>
<svg id="Layer_1" xmlns="http://www.w3.org/2000/svg" version="1.1" viewBox="0 0 1920 48">
  <!-- Generator: Adobe Illustrator 29.8.3, SVG Export Plug-In . SVG Version: 2.1.1 Build 3)  -->
  <defs>
    <style>
      .st0 {
        fill: #b4ccbf;
      }
    </style>
  </defs>
  <path class="st0" d="M0,0v13.19c10.03.54,19.94.89,31.46,1.01,27.38.29,45.41-1.08,74.01-1.37,24.98-.26,69.03-.08,98.74-.54,40.92-.63,77.64-1.93,121.03-.83,17.05.44,31.93,1.18,44.85,1.84,13.08.67,23.75,1.22,33.07,1.35,16.73.23,53.31,1.37,100.03,1.28,27.2-.05,42.48-3.25,72.06-5.47,21.12-1.58,41.71-1.51,89.89.95,6.83.35,16.56,1.03,28.75,1.83,12.36.81,27.7,1.77,46.29,2.72,26.7,1.36,40.06.79,85.33,1.07,41.43.25,121.49.09,164.43-.09,61.33-.26,97.09-5.27,116.12-6.83,10.37-.85,28.51-1.54,55.54-2.87,37.73-1.86,71.26.46,91.1,1.83,13.56.93,45.26.92,89.9,1.95,32.62.75,54.43,1.56,77.22,2.47,13.08.53,39.9,2.63,71.96,4.57,21.35,1.3,36.6,2.54,52.11,2.98,11.44.32,45.24,1.18,91.99,1.63,22.95.22,52.7,1,100.29.55,32.66-.31,54.4-1.14,71.45-1.97,16.78-.82,30.17-1.71,44.7-2.04,18.19-.42,39.61-1.1,67.67-1.41v30.2h.01V0H0Z"/>
</svg>