<svg width="1391" height="958" viewBox="0 0 1391 958" fill="none" xmlns="http://www.w3.org/2000/svg">
<mask id="mask0_38_169" style="mask-type:luminance" maskUnits="userSpaceOnUse" x="26" y="42" width="1339" height="874">
<path d="M1354.81 908.86L50.4784 915.805C45.3162 915.825 41.0358 912.127 40.9681 907.542L26.9568 58.2952C26.8891 53.7101 31.0162 49.9406 36.1785 49.9201L1340.51 42.9749C1345.67 42.9544 1349.95 46.6526 1350.02 51.2376L1364.03 900.485C1364.1 905.07 1359.97 908.839 1354.81 908.86ZM53.449 81.3458L66.6939 884.213C66.7617 888.798 71.041 892.527 76.2042 892.475L1328.28 885.808C1333.45 885.788 1337.61 882.019 1337.51 877.433L1324.26 74.566C1324.19 69.9809 1319.91 66.2518 1314.75 66.3033L62.6705 72.9707C57.5083 72.9912 53.3464 76.7596 53.449 81.3458Z" fill="white"/>
</mask>
<g mask="url(#mask0_38_169)">
<path d="M748.926 1493.82L-447.348 451.976L-470.575 473.02L725.698 1514.87L748.926 1493.82Z" fill="#FFCC66"/>
<path d="M796.746 1450.1L-399.527 408.253L-422.779 429.319L773.495 1471.16L796.746 1450.1Z" fill="#314199"/>
<path d="M845.711 1405.84L-350.563 363.999L-373.79 385.043L822.483 1426.89L845.711 1405.84Z" fill="#FFCC66"/>
<path d="M893.424 1362.23L-302.646 320.204L-325.877 341.244L870.193 1383.27L893.424 1362.23Z" fill="#314199"/>
<path d="M942.39 1317.9L-253.884 276.05L-277.111 297.094L919.162 1338.94L942.39 1317.9Z" fill="#FFCC66"/>
<path d="M990.49 1274.23L-205.783 232.38L-229.01 253.424L967.263 1295.27L990.49 1274.23Z" fill="#314199"/>
<path d="M1039.18 1229.96L-157.098 188.118L-180.325 209.162L1015.95 1251.01L1039.18 1229.96Z" fill="#FFCC66"/>
<path d="M1087.51 1186.14L-108.97 144.483L-132.193 165.531L1064.28 1207.19L1087.51 1186.14Z" fill="#314199"/>
<path d="M1135.99 1142.02L-60.2797 100.173L-83.507 121.217L1112.77 1163.06L1135.99 1142.02Z" fill="#FFCC66"/>
<path d="M1184.16 1098.31L-12.1103 56.4604L-35.3376 77.5045L1160.94 1119.35L1184.16 1098.31Z" fill="#314199"/>
<path d="M1232.88 1054.04L36.6098 12.1992L13.3583 33.2652L1209.63 1075.11L1232.88 1054.04Z" fill="#FFCC66"/>
<path d="M1280.88 1010.33L84.6045 -31.5178L61.3773 -10.4739L1257.65 1031.37L1280.88 1010.33Z" fill="#314199"/>
<path d="M1329.53 966.095L133.254 -75.75L110.027 -54.706L1306.3 987.139L1329.53 966.095Z" fill="#FFCC66"/>
<path d="M1377.72 922.405L181.448 -119.441L158.196 -98.3746L1354.47 943.471L1377.72 922.405Z" fill="#314199"/>
<path d="M1426.35 878.194L230.074 -163.651L206.847 -142.607L1403.12 899.238L1426.35 878.194Z" fill="#FFCC66"/>
<path d="M1474.48 834.45L278.209 -207.395L254.981 -186.351L1451.25 855.494L1474.48 834.45Z" fill="#314199"/>
<path d="M1523.24 790.221L326.963 -251.625L303.711 -230.559L1499.98 811.287L1523.24 790.221Z" fill="#FFCC66"/>
<path d="M1571.37 746.508L375.098 -295.337L351.846 -274.271L1548.12 767.574L1571.37 746.508Z" fill="#314199"/>
<path d="M1620.09 702.246L423.818 -339.599L400.591 -318.555L1596.86 723.29L1620.09 702.246Z" fill="#FFCC66"/>
<path d="M1668.18 658.553L471.907 -383.292L448.68 -362.248L1644.95 679.597L1668.18 658.553Z" fill="#314199"/>
<path d="M1716.9 614.322L520.626 -427.523L497.399 -406.479L1693.67 635.366L1716.9 614.322Z" fill="#FFCC66"/>
<path d="M1765 570.609L568.726 -471.236L545.498 -450.192L1741.77 591.653L1765 570.609Z" fill="#314199"/>
<path d="M1813.65 526.346L617.376 -515.5L594.125 -494.434L1790.4 547.412L1813.65 526.346Z" fill="#FFCC66"/>
<path d="M1861.76 482.654L665.486 -559.191L642.259 -538.147L1838.53 503.698L1861.76 482.654Z" fill="#314199"/>
</g>
</svg>
