<svg width="1391" height="958" viewBox="0 0 1391 958" fill="none" xmlns="http://www.w3.org/2000/svg">
<mask id="mask0_155_10" style="mask-type:luminance" maskUnits="userSpaceOnUse" x="30" y="44" width="1331" height="871">
<path d="M1351.04 914.597L46.6945 910.16C41.5324 910.135 37.2844 906.4 37.2567 901.814L30.6569 52.4774C30.6292 47.8919 34.7891 44.1585 39.9514 44.1831L1344.29 48.6205C1349.45 48.645 1353.7 52.3804 1353.73 56.9658L1360.33 906.303C1360.36 910.889 1356.2 914.621 1351.04 914.597ZM56.947 75.7583L63.1851 878.711C63.2129 883.296 67.4595 887.062 72.6229 887.055L1324.71 891.315C1329.88 891.34 1334.07 887.607 1334.01 883.021L1327.77 80.0685C1327.74 75.483 1323.49 71.7167 1318.33 71.7232L66.2412 67.464C61.079 67.4395 56.8844 71.1714 56.947 75.7583Z" fill="white"/>
</mask>
<g mask="url(#mask0_155_10)">
<path d="M740.071 1494.25L-447.065 442.004L-470.475 462.845L716.661 1515.09L740.071 1494.25Z" fill="#FFCC66"/>
<path d="M788.271 1450.95L-398.865 398.7L-422.299 419.562L764.837 1471.8L788.271 1450.95Z" fill="#314199"/>
<path d="M837.621 1407.12L-349.516 354.875L-372.926 375.716L814.21 1427.96L837.621 1407.12Z" fill="#FFCC66"/>
<path d="M885.712 1363.92L-301.219 311.5L-324.633 332.336L862.299 1384.76L885.712 1363.92Z" fill="#314199"/>
<path d="M935.063 1320.02L-252.073 267.773L-275.483 288.614L911.652 1340.86L935.063 1320.02Z" fill="#FFCC66"/>
<path d="M983.542 1276.77L-203.593 224.525L-227.003 245.365L960.133 1297.61L983.542 1276.77Z" fill="#314199"/>
<path d="M1032.62 1232.93L-154.524 180.689L-177.934 201.53L1009.2 1253.78L1032.62 1232.93Z" fill="#FFCC66"/>
<path d="M1081.33 1189.53L-106.017 137.476L-129.423 158.32L1057.91 1210.38L1081.33 1189.53Z" fill="#314199"/>
<path d="M1130.19 1145.84L-56.9418 93.5923L-80.3519 114.433L1106.79 1166.68L1130.19 1145.84Z" fill="#FFCC66"/>
<path d="M1178.74 1102.55L-8.39272 50.3018L-31.8028 71.1424L1155.34 1123.39L1178.74 1102.55Z" fill="#314199"/>
<path d="M1227.84 1058.71L40.7118 6.46743L17.2773 27.3297L1204.41 1079.57L1227.84 1058.71Z" fill="#FFCC66"/>
<path d="M1276.22 1015.42L89.0862 -36.8292L65.6762 -15.9888L1252.81 1036.25L1276.22 1015.42Z" fill="#314199"/>
<path d="M1325.26 971.61L138.12 -80.6351L114.71 -59.7946L1301.85 992.45L1325.26 971.61Z" fill="#FFCC66"/>
<path d="M1373.83 928.342L186.693 -123.904L163.258 -103.041L1350.39 949.204L1373.83 928.342Z" fill="#314199"/>
<path d="M1422.84 884.557L235.703 -167.688L212.293 -146.847L1399.43 905.397L1422.84 884.557Z" fill="#FFCC66"/>
<path d="M1471.35 841.235L284.218 -211.01L260.807 -190.17L1447.94 862.075L1471.35 841.235Z" fill="#314199"/>
<path d="M1520.5 797.433L333.356 -254.813L309.921 -233.951L1497.05 818.295L1520.5 797.433Z" fill="#FFCC66"/>
<path d="M1569.01 754.141L381.871 -298.103L358.436 -277.241L1545.57 775.004L1569.01 754.141Z" fill="#314199"/>
<path d="M1618.11 710.306L430.975 -341.938L407.566 -321.098L1594.7 731.147L1618.11 710.306Z" fill="#FFCC66"/>
<path d="M1666.58 667.035L479.444 -385.21L456.034 -364.37L1643.17 687.875L1666.58 667.035Z" fill="#314199"/>
<path d="M1715.68 623.23L528.547 -429.014L505.137 -408.174L1692.27 644.071L1715.68 623.23Z" fill="#FFCC66"/>
<path d="M1764.16 579.939L577.026 -472.306L553.616 -451.465L1740.75 600.779L1764.16 579.939Z" fill="#314199"/>
<path d="M1813.2 536.102L626.061 -516.144L602.627 -495.281L1789.76 556.964L1813.2 536.102Z" fill="#FFCC66"/>
<path d="M1861.69 492.832L674.55 -559.413L651.141 -538.573L1838.27 513.672L1861.69 492.832Z" fill="#314199"/>
</g>
</svg>
