<?xml version="1.0" encoding="UTF-8"?>
<svg id="Layer_1" xmlns="http://www.w3.org/2000/svg" version="1.1" viewBox="0 0 1920 48">
  <!-- Generator: Adobe Illustrator 29.8.3, SVG Export Plug-In . SVG Version: 2.1.1 Build 3)  -->
  <defs>
    <style>
      .st0 {
        fill: #6DA2B4;
      }
    </style>
  </defs>
  <path class="st0" d="M0,30.2c28.06-.31,49.48-.99,67.67-1.41h0c14.53-.33,27.92-1.22,44.7-2.04,17.05-.83,38.79-1.66,71.45-1.97,47.59-.45,77.34.33,100.29.55,46.75.45,80.55,1.31,91.99,1.63,15.51.44,30.76,1.68,52.11,2.98,32.06,1.94,58.88,4.04,71.96,4.57,22.79.91,44.6,1.72,77.22,2.47,44.64,1.03,76.34,1.02,89.9,1.95,19.84,1.37,53.37,3.69,91.1,1.83,27.03-1.33,45.17-2.02,55.54-2.87,19.03-1.56,54.79-6.57,116.12-6.83,42.94-.18,123-.34,164.43-.09,45.27.28,58.63-.29,85.33,1.07,18.59.95,33.93,1.91,46.29,2.72,12.19.8,21.92,1.48,28.75,1.83,48.18,2.46,68.77,2.53,89.89.95,29.58-2.22,44.86-5.42,72.06-5.47,46.72-.09,83.3,1.05,100.03,1.28,9.32.13,19.99.68,33.07,1.35,12.92.66,27.8,1.4,44.85,1.84,43.39,1.1,80.11-.2,121.03-.83,29.71-.46,73.76-.28,98.74-.54,28.6-.29,46.63-1.66,74.01-1.37,11.52.12,21.43.47,31.46,1.01V0H0v30.2Z"/>
</svg>